<?xml version="1.0" encoding="utf-8"?>
<svg xmlns="http://www.w3.org/2000/svg" id="Layer_1" style="enable-background:new 0 0 1600 463;" version="1.1" viewBox="0 0 1600 463" x="0px" y="0px">
<style type="text/css">
	.st0{fill:#003057;}
</style>
<path class="st0" d="M231.5,0C103.64612,0,0,103.64606,0,231.5S103.64612,463,231.5,463S463,359.35394,463,231.5&#xD;&#xA;	S359.35394,0,231.5,0z M336.40582,146.78259h-68.6087v228.52173c-42.71997,9.11365-71.62317,0-71.62317,0V146.78259h-68.6087&#xD;&#xA;	c-7.56525-33.3913,0-63.3913,0-63.3913s30.52594,0,68.23645,0c60.92548,0,140.60413,0,140.60413,0&#xD;&#xA;	S343.97101,113.3913,336.40582,146.78259z"/>
<polygon points="548.08698,189.04346 590.86957,189.04346 590.86957,311.13043 621.91302,311.13043 621.91302,189.04346 &#xD;&#xA;	664.17389,189.04346 664.17389,158 548.08698,158"/>
<path d="M767.01001,256.60999c-3.53003-24.20001-24.37-42.77997-49.56-42.77997c-27.66003,0-50.08002,22.41998-50.08002,50.07996&#xD;&#xA;	C667.37,291.58002,689.78998,314,717.45001,314c15.01996,0,28.48999-6.59998,37.65997-17.07001l-20.13-13.71997&#xD;&#xA;	c-0.13995,0.15997-0.29999,0.32001-0.45996,0.46997c-4.23004,4.09003-9.82001,6.58002-15.95001,6.58002&#xD;&#xA;	c-10.44,0-19.29999-7.19-22.53998-17.22003h70.67999h0.82996v-9.13C767.53998,261.42999,767.35999,258.98999,767.01001,256.60999z&#xD;&#xA;	 M695.88,256.60999c3.12-10.26996,12.08997-17.67999,22.69-17.67999c10.58997,0,19.56,7.41003,22.67999,17.67999H695.88z"/>
<path d="M854.98999,282.29999l11.62,22.29999C858.09998,310.51001,847.65002,314,836.34998,314&#xD;&#xA;	c-28.52997,0-51.64996-22.19-51.64996-49.57001c0-27.37,23.12-49.56,51.64996-49.56c11.53003,0,22.17004,3.63,30.77002,9.76001&#xD;&#xA;	l-12.37,21.71997c-4.75-4.45996-11.25-7.19995-18.40002-7.19995c-14.54999,0-26.34998,11.31995-26.34998,25.27997&#xD;&#xA;	c0,13.97003,11.79999,25.28998,26.34998,25.28998C843.63,289.71997,850.21997,286.89001,854.98999,282.29999z"/>
<path d="M992.09003,264.17999V311.13h-28.44v-47.67999c0-13.54004-10.98004-24.52002-24.52002-24.52002&#xD;&#xA;	s-24.52002,10.97998-24.52002,24.52002V311.13H885.13V148.60999h29.47998V221.75c7.83002-5.01001,17.14001-7.91998,27.13-7.91998&#xD;&#xA;	C969.54999,213.83002,992.09003,236.37,992.09003,264.17999z"/>
<path d="M1090.66992,228.46997c4.55005-7.25,7.20007-15.88995,7.20007-25.16998c0-25.47998-19.95007-46.20996-44.47998-46.20996&#xD;&#xA;	h-40.29999v92.41998h50.67999c9.65991,0,17.47998,7.82001,17.47998,17.46997c0,4.83002-1.94995,9.20001-5.12,12.36005&#xD;&#xA;	c-3.16003,3.15997-7.53003,5.12-12.35999,5.12h-11.42004v27h11.42004c24.53003,0,44.47998-20.73004,44.47998-46.21002&#xD;&#xA;	C1108.25,250.26001,1101.34998,236.91998,1090.66992,228.46997z M1065.75,213.91998c-3.16992,3.16003-7.53003,5.12-12.35999,5.12&#xD;&#xA;	h-13.29993v-34.94995h13.29993c9.65002,0,17.47998,7.81995,17.47998,17.47998&#xD;&#xA;	C1070.87,206.40002,1068.90991,210.76001,1065.75,213.91998z"/>
<path d="M1226.73999,216.96002v49.56c0,26.82996-21.83008,48.64996-48.6499,48.64996&#xD;&#xA;	c-26.83008,0-48.66016-21.82001-48.66016-48.64996v-49.56h27v49.56c0,11.95996,9.70007,21.64996,21.66016,21.64996&#xD;&#xA;	c11.95996,0,21.6499-9.69,21.6499-21.64996v-49.56H1226.73999z"/>
<line x1="1156.43005" x2="1129.43005" y1="216.96001" y2="216.96001"/>
<line x1="1226.73999" x2="1199.73999" y1="216.96001" y2="216.96001"/>
<rect height="162.85133" width="28.43478" x="1245.65222" y="148.60869"/>
<rect height="162.85133" width="28.43478" x="1290.26086" y="148.60869"/>
<rect height="94.50002" width="28.43478" x="1335.91309" y="216.96001"/>
<rect height="29.73565" width="28.43478" x="1335.91309" y="158.78609"/>
<path d="M1432.43481,214.80084c-28.95898,0-52.43481,22.20648-52.43481,49.59961C1380,291.79352,1403.47583,314,1432.43481,314&#xD;&#xA;	s52.43481-22.20648,52.43481-49.59955C1484.86963,237.00732,1461.3938,214.80084,1432.43481,214.80084z M1432.43481,290&#xD;&#xA;	c-13.54297,0-24.52173-11.4613-24.52173-25.59955c0-14.13831,10.97876-25.59961,24.52173-25.59961&#xD;&#xA;	s24.52173,11.4613,24.52173,25.59961C1456.95654,278.5387,1445.97778,290,1432.43481,290z"/>
<path d="M1552.95996,214.60999c-11.31995,0-20.34998,4.48004-26.63989,11.76001l-4.41016-9.40997H1500v94.5h27.65002v-50.35004&#xD;&#xA;	c0-12.32001,9.98999-22.31,22.30994-22.31c12.31006,0,22.30005,9.98999,22.30005,22.31v50.35004H1600V260&#xD;&#xA;	C1600,236.84998,1576.09998,214.60999,1552.95996,214.60999z"/>
</svg>