<?xml version="1.0" encoding="utf-8"?>
<svg xmlns="http://www.w3.org/2000/svg" height="262.2262" id="svg4121" version="1.1" width="605.26611">
  <defs id="defs4123"/>
  <g id="layer1" transform="translate(-47.366956,-401.24909)">
    <path d="m 405.57813,406.25421 c -27.53474,0.10556 -56.38087,1.8471 -85.96875,5.375 -55.5907,6.63419 -107.14377,18.80042 -151.21875,34.5625 36.61741,-10.46884 76.90344,-18.63725 119.4375,-23.71875 180.32277,-21.50229 334.52607,20.47324 343.21875,93.4375 2.15257,17.99699 -4.75498,36.2467 -19.09375,53.84375 25.01934,-21.99633 38.0885,-45.68256 35.3125,-68.9375 -6.87716,-57.67656 -109.02012,-95.07111 -241.6875,-94.5625 z m -21.78125,67.53125 0,126.59375 34.0625,0 0,-126.59375 -34.0625,0 z m 42.21875,0 0,126.59375 34.0625,0 0,-44.28125 14.15625,0 c 23.93718,0 40.25,-14.86531 40.25,-40.4375 0,-31.91231 -20.10476,-41.875 -46.40625,-41.875 l -42.0625,0 z m 138.46875,0.0312 c -25.87803,0 -44.40625,13.109 -44.40625,36.1875 0,17.30299 6.11624,28.16197 26.21875,36.03125 l 7.15625,2.78125 c 9.44547,3.66998 14.875,5.95429 14.875,14 0,7.69284 -4.3598,13.09375 -16.78125,13.09375 -11.71569,0 -23.6139,-5.0423 -27.625,-7.3125 l -1.9375,26.75 c 6.11662,1.57621 17.83959,4.75 32.53125,4.75 28.50111,0 47.71875,-13.67726 47.71875,-40.4375 0,-18.18519 -9.60333,-25.856 -20.625,-30.9375 l -14.6875,-6.65625 c -10.83349,-4.8933 -14,-7.70694 -14,-14 0,-7.51639 5.9634,-11.53125 15.75,-11.53125 9.44547,0 19.412,3.16079 25.1875,6.125 l 1.40625,-23.96875 c -9.9748,-4.02285 -21.51221,-4.875 -30.78125,-4.875 z m -476.437504,21.1563 c -25.019343,21.99632 -38.088507,45.68256 -35.3125,68.9375 8.304492,69.6589 155.477324,109.7135 327.625004,89.1875 55.5907,-6.6342 107.14377,-18.8004 151.21875,-34.5625 -36.6174,10.4688 -76.90345,18.6372 -119.4375,23.7188 -180.33454,21.5022 -334.526091,-20.4733 -343.218754,-93.43755 -2.152581,-17.99699 4.786222,-36.2467 19.125,-53.84375 z m 370.593754,3.09375 5.0625,0 c 10.33945,0 16.71875,5.46374 16.71875,17.25 0,10.163 -6.74342,16.5 -15.8125,16.5 l -5.96875,0 0,-33.75 z" id="path206" style="fill:#0061aa;fill-opacity:1;fill-rule:nonzero;stroke:none"/>
    <path d="m 143.79688,444.34796 -1.90625,0.46875 0,0.46875 0.46875,0.5 0.46875,0.46875 0.96875,0 c 1.23508,-0.23525 2.09497,-0.0588 2.8125,0 1.32919,0.10587 2.17503,-0.1882 2.375,0 0.1882,0.17645 -0.20997,0.70997 -0.46875,0.96875 -0.47051,0.48227 -0.46875,0 -0.46875,0 l -0.46875,0 -0.46875,-0.46875 -0.5,0.46875 -0.46875,0.5 -0.46875,1.90625 -2.84375,0 -0.46875,-0.96875 -0.9375,-0.46875 -0.9375,0.46875 -0.46875,1.46875 -1.90625,0 -1.40625,0.96875 -2.84375,0 -0.96875,-0.5 -1.40625,-1.4375 c -4.04639,0 -6.60444,0.94682 -8.96875,-0.5 l -1.4375,-0.46875 0,-0.96875 -0.9375,-0.46875 c -0.4117,-0.17644 -0.6494,0.0571 -1.4375,0.46875 -0.47051,0.24701 -1.52212,0.42766 -1.875,0.96875 l -1.0625,2.25 -1.78125,0.15625 -0.78125,-0.8125 -6.96875,-0.0625 -0.28125,0.40625 -1.90625,0 -0.375,-0.4375 -5.750004,-0.0625 -0.5,0.5 -1.40625,0 -0.46875,-0.5 -2.375,0.5 -0.46875,0.46875 -1.40625,-0.46875 -0.9375,-1.03125 -4.125,0 c 0.105865,0.0824 -0.02001,0.0593 -0.9375,0.90625 -0.635188,0.58814 -2.384819,0.80212 -3.9375,2.53125 l 2.84375,5.28125 3.78125,0.5 -0.5,1.4375 0,0.96875 1.34375,0.0625 0.09375,-0.5625 0.46875,-0.9375 1.125,0.125 0.3125,-1.09375 0.46875,0 0,-0.96875 4.25,0 0.9375,-0.5 0.46875,-0.46875 2.375,0 0,0.46875 0,0.5 1.875004,0 0.46875,-0.96875 0.96875,0.4375 0,0.53125 1.40625,0 2.375,1.4375 3.3125,0 2.84375,3.875 2.84375,5.28125 0,2.90625 1.40625,1.4375 0,1.4375 -1.40625,0 0.46875,5.3125 1.40625,2.40625 0,2.40625 2.375,1.9375 2.75,3.875 0.59375,2.3125 0.90625,2.53125 0.46875,1.5 0,-2.53125 -0.125,-2.28125 0.90625,0.5 3.96875,6.125 2.8125,4.8125 0.46875,6.25 1.90625,1.0625 0.9375,1.34375 2.375,1.9375 4.25,0.5 0,2.875 0.90625,1.03125 2.3125,0.5 0.90625,0 1.40625,0.53125 0.15625,0.8125 0,3.875 0.96875,0.875 0.90625,1.53125 1.90625,0.46875 0.90625,1.03125 2.53125,1.3125 0.34375,5.375 -0.46875,3.375 0,2.03125 -0.46875,1.53125 -2.0625,3.25 0.625,3.3125 c -0.96455,4.7992 1.26106,7.17659 1.4375,10.09375 l 0.59375,3.21875 0.46875,1 1.375,2.03125 0.46875,2.0625 0.90625,1 1.875,1.03125 0.46875,0.5 0.4375,2.0625 0.5,2.53125 0.46875,2.875 -0.875,5.5 0,4.59375 0,4.0625 -1.96875,6.5625 -0.46875,6.75 -0.375,2.78125 -0.59375,3.46875 0,6.28125 2.03125,3.6563 1.375,2.0312 1.875,1.5312 1.34375,0 0.46875,-0.5 0,-0.5 0,-1.0312 -1.375,-1.0312 -1.375,-1.5313 0.78125,-0.9375 0.46875,-1.53125 1.375,-4.0625 0.9375,-3.0625 1.15625,-0.9375 0.90625,-3.59375 0.9375,-1.5 4.25,-1.9375 0.5,-4.1875 0.90625,-3.03125 2.375,-0.5 1.34375,-3.09375 0.46875,-2.5625 1.375,-1.53125 0.46875,-1.53125 0.21875,-5.15625 0.46875,-1.03125 0.90625,-0.5 2.3125,0 1.375,-0.5 0.46875,-1.03125 0,-3.0625 0.46875,-7.625 0.90625,-2.5625 0.9375,-2.03125 1.375,-1.03125 0.90625,-0.5 0,-1.03125 -1.4375,-7.625 -0.9375,-2.0625 -1.375,-1 -10.25,-5.125 0.46875,-6.25 -1.3125,-3.4375 -1.375,-0.5 -0.46875,-0.5 0,-1.53125 -0.4375,-0.53125 -3.03125,-0.21875 -0.6875,-2.3125 -1.65625,-1.5625 -3.8125,-0.96875 -2.28125,-1.53125 -2.3125,-1 -0.90625,0.5 -2,2.0625 -1.375,-1 -2.46875,1.46875 -2.84375,-1.46875 -0.4375,-1 -0.46875,-1.53125 0.4375,-3.625 -0.46875,-2.03125 -0.90625,0 -1.46875,-0.375 -1.40625,0 0,-1.53125 0.46875,-4.34375 0.9375,-2.84375 0,-1 -0.9375,0 -1.40625,4.3125 -1.90625,1.4375 c -2.84659,0 -4.71875,-0.94745 -4.71875,-7.6875 l -0.46875,-4.34375 1.40625,-3.375 2.375,-2.875 4.71875,-0.96875 2.375,0.96875 2.34375,0.46875 0,2.40625 0,0.96875 1,1.3125 0.4375,1.09375 0.46875,0.53125 0.4375,0 0.5,-1.5 -0.46875,-3.375 -0.9375,-3.375 c -0.95279,-1.92909 0.46699,-1.92818 0.9375,-3.375 l 0.90625,-1.1875 1.9375,-1.1875 0.9375,-0.96875 -0.46875,-3.875 c 1.8938,-0.48227 3.26438,-5.36024 5.6875,-7.21875 l 0.46875,-0.96875 1.40625,0 0.96875,0.96875 0.9375,-0.46875 0.9375,0 1.4375,-0.5 0,-2.40625 -2.84375,0 0,-1.9375 -1.4375,-0.46875 0,-1.4375 5.6875,0 0,-0.5 0.9375,0 0.46875,-0.46875 0.46875,-0.5 0.96875,0 -0.46875,1.9375 -0.5,0.96875 0,0.96875 0.96875,0.46875 1.46875,0.0625 1.375,0 0,-1.03125 -1.90625,-0.46875 0.46875,-3.84375 -0.9375,-0.5 0,-0.9375 -1.90625,0 -1.40625,-1.46875 -1.40625,0 0,-0.96875 -1.90625,-1.90625 -4.25,0 0,-1.46875 -1.40625,0 -1.4375,-0.9375 -1.90625,-0.96875 -1.875,0.46875 c 0,0.96455 -0.47051,1.9417 0,2.90625 l 0.9375,0.46875 0,2.40625 -1.875,0 -0.46875,0.5 0.46875,0.46875 0,2.875 -2.375,0 -0.9375,-2.375 -0.96875,-1.9375 -2.8125,0 -3.3125,-0.96875 -2.0625,-0.28125 -0.9375,-1.03125 -0.4375,-1.03125 0.4375,-1.03125 0.625,-0.46875 0.3125,-1.0625 0.46875,-1 1.375,0 0.9375,-0.5 0.6875,-0.8125 1.90625,0 0.9375,1.4375 1.875,0 0,-0.96875 0.46875,-0.96875 0.5,-0.46875 0,-1.4375 0.9375,-0.96875 1.90625,0.46875 2.34375,0.96875 0.96875,0.875 0.9375,0.5625 0.46875,0 0.25,1.53125 0.6875,0.875 0.96875,0 0.46875,0 0.46875,0.5 0.46875,0 0.9375,0 0.46875,0 0.46875,-0.5 1.4375,0 0.46875,-0.46875 -0.46875,-0.46875 0,-0.96875 1.875,0 0.5,0 0,-0.5 -0.5,0 -0.9375,-0.46875 0,-0.46875 -0.9375,-0.5 -1.4375,0 0,-0.46875 -2.34375,0 -0.46875,-0.96875 -0.96875,0 0,-0.5 -1.875,0 -1.4375,-0.46875 -0.9375,-0.46875 0,-0.96875 1.40625,0 0.46875,-0.5 0.5,0 2.375,0 1.875,0 5.21875,0 0.9375,0.5 0.46875,-0.5 2.84375,0 1.40625,0.5 0,0.46875 1.4375,0.96875 2.34375,0.96875 0.46875,2.40625 0.46875,1.9375 1.4375,1.4375 1.40625,0.96875 1.21875,-0.5625 0.96875,-0.4375 0.1875,-0.9375 1.90625,-0.96875 0,-0.96875 0.9375,0 0.9375,-0.46875 2.84375,0 0.46875,0 0.46875,-0.96875 2.375,-0.46875 0.46875,0 0.9375,-0.5 2.375,0 1.03125,-1.03125 1.34375,-0.40625 0.84375,-1.4375 1.03125,-0.5 0.9375,-0.96875 0,-0.46875 -31.6875,0 -5.1875,0 -8.0625,0 -4.71875,0 -1.40625,0 -5.21875,-0.46875 -0.9375,0 -0.9375,0 z m 161.28125,0.9375 -2.375,0.96875 -7.09375,0 -4.25,0.96875 -2.84375,0 -1.875,1.71875 -3.46875,-0.375 -2.21875,0.0937 -1.28125,-0.46875 -0.15625,0 -1.46875,-0.375 -1.5,0.75 -0.78125,1.0625 -1.90625,0 -6.15625,0.5 -1.875,0.46875 -1.90625,-0.46875 -2.84375,0.46875 -1.875,0.5 -1.4375,-0.5 -1.40625,-0.46875 0,1.90625 -1.4375,0.5 -1.40625,-0.5 -0.46875,-1.90625 -1.125,-0.4375 -4.09375,0.4375 c -1.21156,-0.52927 -2.18733,-0.7805 -3.28125,-0.9687 -1.15275,-0.19997 -1.86744,-0.99225 -2.84375,-0.96875 -1.82323,0.0471 -2.81671,0.74525 -3.78125,0.96875 -0.96455,0.22349 -1.91449,-0.0235 -2.84375,0 -0.82339,0.0118 -1.23578,0.47471 -1.90625,0.96875 -0.87044,0.63519 -1.875,1.36516 -1.875,1.90625 l -1.90625,0.5 -2.34375,0.96875 -0.46875,0.9375 -1.90625,0.5 0,2.875 4.25,0 0,1.9375 -2.34375,0.46875 -0.96875,1.46875 -0.9375,0.96875 -1.90625,-0.5 -2.8125,0 -1.4375,-1.4375 -0.46875,-1.9375 -1.90625,-0.46875 -1.40625,1.6875 -1.46875,1.84375 -1.84375,0.3125 -0.15625,1.1875 0,0.75 2.0625,0 1.875,0 1.03125,0 1.8125,2.875 c -0.16469,0.694 -0.10411,0.86288 -0.46875,0.96875 -0.36465,0.10586 -1.1552,0.13939 -1.4375,0.46875 -0.94102,1.11746 0.1536,0.35709 1.90625,0.96875 0.4705,0.16469 -0.31584,1.05529 -0.46875,1.9375 -0.0941,0.52931 0.46875,1.07285 0.46875,1.4375 l 0,1.46875 -1.90625,-0.5 -1.5,0.15625 -1.96875,0.375 -1,0.75 0.6875,2.09375 -0.46875,3.375 0,0.96875 0.96875,1.4375 1.53125,-0.90625 3.6875,-0.1875 1.40625,-1.3125 1.40625,-2.90625 1.875,-1.4375 2.84375,-1.4375 2.84375,0 1.875,2.875 1.4375,0.96875 0.46875,2.40625 -2.375,-0.46875 0,1.9375 2.375,0.46875 0.9375,-0.96875 0.46875,-0.96875 0.5,-0.96875 0,-3.375 -1.4375,-0.9375 -1.875,-1.9375 0.46875,-1.4375 1.09375,0.65625 1.25,0.78125 1.90625,1.46875 0.9375,1.40625 0,2.90625 0.84375,3.46875 1.03125,-0.0937 0.96875,0 -0.34375,-1.8125 1,-2.59375 0.5,-0.40625 2.625,-1.46875 0.96875,-2.875 1.875,-3.375 1.875,2.40625 1.4375,0 0,-2.40625 2.375,0 0.9375,2.90625 1.40625,1.4375 0,1.90625 -1.875,-0.46875 -1.90625,0 -0.9375,-0.9375 -1.4375,0 -2.34375,1.90625 -3.03125,1.375 -0.46875,0.375 0.46875,3.71875 1.125,1.28125 2.875,-0.15625 0.46875,-0.375 c 2.89364,-1.1057 2.41609,4.8808 1.875,4.375 l -0.375,0.875 -0.0937,1.0625 -1.90625,0 -2.84375,0 -2.34375,0 -1.43755,-1.4688 -1.40625,0 -1.4375,-0.46875 -0.9375,1.4375 -0.46875,1.9375 -1.40625,0 -0.5,-1.4375 -0.9375,-0.96875 -1.875,-0.5 -1.4375,0 -0.46875,-1.4375 0.46875,-3.375 -1.40625,-1.4375 -1.40625,0 -1.4375,0.5 -0.9375,-0.96875 -2.375,-0.5 -1.40625,1.9375 -2.375,0 -2.375,0.46875 -1.875,0 -0.0312,1.34375 0.0312,1.5625 -1.90625,1.4375 -0.46875,4.34375 -2.84375,3.375 -0.9375,2.875 -1.40625,2.40625 -0.96875,2.90625 c 0,1.23509 0.35464,3.35391 -0.46875,4.8125 -0.22349,0.38816 0.37462,1.62059 0.46875,3.84375 0.11763,2.87011 -0.16644,7.10198 0.46875,10.125 0.76458,3.55235 1.87799,5.85446 2.125,6.125 l 1,1.875 2.46875,1.84375 2,0.75 c 3.77584,0 1.36566,0.125 4.90625,0.125 l 4.0625,-1.09375 1.90625,1.46875 2.96875,1.46875 -0.125,1.90625 0,7.21875 2.28125,6.71875 0.0625,5.8125 0.9375,1.90625 -0.46875,3.375 -1.125,5.75 0,2.25 0,1.84375 0,0.78125 1,0.71875 1,1.125 0.5,3.375 0,3.75 0,2.21875 0,1.125 1,0.75 0.46875,1.5 1,3 0.5,2.59375 0.5,2.25 1,1.5 2.6875,-0.3125 2.75,-1.1875 1.5,-0.75 1.5,-1.125 1.25,-2.625 1,-1.125 0.96875,-1.875 0.96875,-4.8125 1.40625,-2.40625 0,-5.3125 0.96875,-2.375 1.40625,-1.9375 1.40625,-1.9375 0,-2.40625 0.9375,-0.96875 -0.46875,-1.4375 -0.46875,-0.96875 -0.46875,-3.375 0.46875,-5.3125 -0.46875,-1.4375 0.0937,-1.25 -0.0937,-2.09375 -0.46875,-1.9375 0.9375,-0.96875 0.9375,-1.9375 0,-1.9375 0.96875,-0.9375 1.875,-2.40625 0.96875,-1.4375 1.40625,-2.90625 1.40625,-1.4375 0,-3.84375 0.96875,-2.4375 0.46875,-2.40625 0.9375,-1.9375 -0.9375,-0.9375 -4.25,0.46875 -1.90625,-0.96875 -0.46875,-3.34375 -0.96875,-0.96875 -0.21875,-2.59375 -1.65625,-0.3125 0.15625,-1.8125 -0.625,-1.09375 0,-1.90625 -1.40625,-0.5 -0.46875,-3.34375 -0.5,-1.9375 -0.46875,-1.9375 -0.3125,-1.15625 -0.15625,-2.21875 -0.9375,-1.90625 0.40625,-0.96875 0.46875,-0.375 1,0.84375 0.6875,2.40625 0.5,1.46875 1,1.5 0.1875,3.78125 0.9375,2.40625 0.46875,2.40625 0.9375,2.40625 0.5,1.46875 0.9375,1.90625 1.40625,1.9375 2.375,-0.96875 0.9375,-0.96875 2.84375,-0.46875 0,-2.90625 0.9375,-1.90625 0.96875,-0.5 0.46875,-1.90625 0.46875,-1.4375 2.375,-0.5 -1.25,-1.65625 0,-0.75 -0.5,-0.40625 -1.5625,-2.5 -1.90625,-0.0937 0,-0.375 -1,-0.375 -0.96875,0.75 -1,-0.375 -0.5,-0.375 0.15625,-3.46875 -0.9375,-2.40625 c 0,-2.41136 1.41519,-2.4375 2.15625,-2.4375 l 2.5625,5.3125 1.4375,-0.96875 1.875,0.5 0.46875,1.4375 0.5,1.90625 3.75,-0.46875 0,-0.46875 2.375,0 0.34375,1.71875 0.5,1.125 1,1.125 1.46875,3.75 2.84375,0 0,5.75 0.9375,2.90625 0.5,5.28125 0.9375,1.9375 -0.46875,0.96875 2.34375,3.375 0.84375,1.71875 1,0.375 0.5,-0.375 0.5,-0.75 -1.90625,-3.875 c 0.82339,-1.83499 -0.0411,-6.14499 0.5,-9.15625 0.38816,-2.25845 2.07918,-2.66572 2.84375,-4.3125 1.30566,-2.82306 2.02685,-6.41224 4.25,-4.8125 0.63519,0.45875 2.82847,-0.57637 3.78125,0 l 0.9375,2.40625 0.9375,2.875 c 1.8938,2.59956 2.83551,4.76454 1.90625,8.1875 l 1.875,0 2.375,1.4375 0.4375,1.6875 1,0.71875 0.46875,1.15625 1,0 0.40625,-1.625 1.875,-0.46875 0.5,-4.34375 -1.4375,-0.96875 1.03125,-1.5 0,-1.125 -1.5,-0.75 -0.9375,-3.84375 0.4375,-3.125 0.96875,-1.6875 1.90625,0 3.96875,-0.4375 0.5,-0.375 0.5,-1.5 1.1875,-3 1.875,-1.71875 0,-1.5 0,-1.09375 0.46875,-5.8125 -1,-2.25 0.53125,-4.46875 0,-3.875 2.375,0 1.40625,-0.96875 0.9375,2.40625 0.96875,0.5 -0.96875,0.46875 0.0937,1.625 0.40625,2.25 0.46875,1.90625 3.78125,0 -1.4375,-1.4375 -0.46875,-1.9375 0.21875,-0.78125 -0.5,-0.75 0.28125,-2.3125 1.09375,-0.71875 -0.125,-3.59375 0.9375,-1.46875 2.375,0 0.9375,-2.40625 1.875,-1.4375 1.90625,-3.375 1.90625,1.4375 0.9375,-3.375 -0.9375,-0.9375 -0.78125,-1.5625 -2.46875,0.75 -0.5,-0.40625 -1,-0.71875 0,-2.90625 4.25,-1.9375 4.25,-0.46875 2.375,0 2.3125,0 1.46875,0 0.9375,-0.46875 0.5,-1.46875 1.875,0.5 -0.9375,2.40625 -0.9375,2.40625 0,1.9375 0.46875,2.875 1.40625,0 0,-1.90625 1.4375,-0.96875 0.9375,-0.96875 1.28125,-1.71875 -0.8125,-1.65625 0.9375,-0.96875 3.78125,-0.46875 3.3125,-0.5 1.90625,-0.96875 2.84375,-0.46875 0.9375,-1.4375 1.90625,-0.46875 3.28125,-0.5 -0.9375,-0.96875 -1.53125,-0.25 -3.15625,-0.5625 -0.5,-0.625 -2.84375,0 -1.90625,-0.96875 -0.46875,1.9375 -4.25,0 -3.3125,0 -0.78125,-1.0625 -1,-0.40625 -2.46875,0 -5.1875,0 -1.90625,-0.9375 -2.84375,-0.5 -2.84375,0 -1.875,1.4375 -9.46875,-0.46875 -7.09375,-0.46875 -3.3125,-0.5 -4.25,-0.46875 -3.78125,-0.96875 -2.375,-0.5 z m -99.34375,6.75 -1.875,0.5 -0.9375,0 0,0.96875 c 0,0 1.87324,0.46875 2.34375,0.46875 0.47051,0 0.9375,-0.96875 0.9375,-0.96875 l 0.5,-0.46875 -0.96875,-0.5 z m 129.625,30.375 0,0.46875 -1.4375,0 0,0.96875 -0.9375,0 -0.96875,0.46875 0,0.96875 0.5,0 1.875,-0.5 0,-0.46875 2.84375,0 0,-0.9375 -0.9375,0 0,-0.96875 -0.9375,0 z m -183.53125,20.6875 -2.375,0.5 0,0.96875 2.375,0.96875 1.90625,0.46875 0.4375,1.4375 1.4375,0.46875 0.46875,0.96875 1.4375,0 -0.5,-2.375 -1.875,0 0,-1.9375 -1.90625,0 -1.40625,-1.46875 z m 8.53125,6.75 -1.4375,0.96875 0.9375,0.46875 1.90625,0 0,-0.9375 -1.40625,-0.5 z m 140.125,23.125 -0.0625,0.59375 -0.0625,0.59375 0.8125,1.53125 0.40625,2.59375 0.84375,1.5 0.0625,2.46875 0.71875,2.6875 0.28125,0.71875 1.75,2.40625 0.1875,1.28125 0.0625,-3.6875 -0.15625,-1.90625 -0.8125,-1.5 -0.28125,-0.6875 0.1875,-1.78125 -0.78125,-2.125 -0.125,-1.875 -0.53125,-1.40625 -0.5625,-0.8125 -1.03125,0.3125 -0.90625,-0.90625 z m 15.78125,1.9375 -0.46875,0.5 -0.90625,2.03125 -0.9375,1.53125 -2.28125,0.53125 -1.375,1 0.90625,1.03125 0.9375,1.53125 0.4375,0.5 1.375,0.5 1.40625,0.53125 0.90625,-2.03125 0.46875,-3.0625 0,-2.5625 0.4375,-1.53125 -0.4375,-0.5 -0.46875,0 z m 16.6875,10.09375 -0.90625,0.5 0,1 3.3125,2.375 0.875,3.09375 0,1.03125 0,1.5625 0.9375,0.46875 2.4375,0.0937 2.15625,-1.09375 -1.6875,-4.65625 -1.4375,-2.4375 -1.9375,-1.0625 -3.75,-0.875 z m -2.34375,16.40625 -1.8125,1.96875 -1.5,1.625 -0.40625,1.375 -1.53125,0.46875 0,0.46875 -0.75,1.40625 -1.5625,2.3125 -0.78125,0 -1.15625,0.46875 -1.15625,0.9375 c -2.43489,0.97631 0.65345,0.99665 -0.6875,2.9375 -1.22332,1.76441 -2.68555,1.32407 -4.25,2.40625 l -0.25,7.625 1.125,2.28125 -1.3125,1.40625 1.1875,3.25 0.75,2.3125 0.375,0.46875 1.15625,0.9375 1.15625,0 0.78125,-0.46875 3.53125,-2.40625 1.90625,-0.46875 1.96875,-0.1875 1.5625,-0.46875 2.53125,0.96875 1.125,0.9375 1.1875,1.84375 1.5625,1.84375 1.53125,1.875 1.90625,1.84375 0.40625,0 0.75,-0.90625 2.34375,-1.40625 0.75,-1.40625 0.78125,-1.375 0.375,-2.3125 0.78125,-1.875 0.78125,-1.84375 0,-1.375 0.15625,-3.28125 0.375,-1.40625 0.40625,-1.875 -0.40625,-1.375 -0.375,-0.9375 -0.75,-0.90625 -4.71875,-5.0625 -0.375,-1.84375 0,-2.34375 0,-2.3125 0,-3.25 -0.78125,0.46875 -0.78125,1.84375 -1.15625,1.40625 -0.75,1.375 -0.78125,0.9375 -0.78125,0 -0.375,-0.46875 -0.375,-0.90625 -1.78125,-2.25 -0.0625,-5.28125 -1.84375,0 z m -70,2.40625 -0.40625,0.0312 -0.46875,1 -1,1.375 -0.46875,1.03125 0,0.90625 -1.90625,0 -0.46875,1.4375 0,2.40625 0.46875,0.96875 0,1.90625 c 0,0.48228 -0.4677,0.97719 -0.75,0.8125 l -0.6875,0.65625 0.5,1.90625 0,1.9375 c -0.48227,0.95277 0.3743,1.68433 0.5625,2.53125 l 1.375,-0.5 0.9375,-1.03125 0.90625,-1 0,-3.375 0.4375,-1.0625 0.0312,-1.34375 0.9375,-0.46875 -0.46875,-1.9375 0,-1.9375 0.9375,-0.46875 0,-0.46875 -0.9375,0 0,-0.96875 0.9375,0 0,-0.96875 0.46875,-0.5 0.0312,-0.8125 -0.0312,-1.09375 0,-0.96875 -0.9375,0 z m 103.03125,35.65625 0,2.53125 -0.46875,2.0625 -0.4375,1.5 -1.375,1.53125 -0.9375,1.53125 0,0.53125 0.46875,0.5 0.90625,0 0.9375,-0.5 0.90625,-1.03125 0,-1.53125 0.9375,0 1.375,-1.03125 0.46875,-1.5 -0.46875,-1.0625 -0.9375,-1.5 -1.375,-2.03125 z" id="path232" style="fill:#ffd400;fill-opacity:1;fill-rule:nonzero;stroke:none"/>
  </g>
</svg>