<?xml version="1.0" encoding="UTF-8"?><svg id="Layer_1" xmlns="http://www.w3.org/2000/svg" viewBox="0 0 1920 1080"><defs><style>.cls-1{fill:#4b1d51;}.cls-2{fill:#dd531c;}</style></defs><circle class="cls-1" cx="1577.37" cy="706.15" r="4.66"/><rect class="cls-2" x="870.18" y="309.01" width="16.7" height="16.7" rx="4.5" ry="4.5"/><rect class="cls-1" x="870.18" y="342.4" width="16.7" height="16.7" rx="4.5" ry="4.5"/><path class="cls-1" d="M903.57,292.31h78.97c2.49,0,4.5-2.01,4.5-4.5v-12.19h0v-95.68c0-2.49-2.01-4.5-4.5-4.5h-107.87c-2.49,0-4.5,2.01-4.5,4.5v95.67h0v12.2c0,2.49,2.01,4.5,4.5,4.5h28.89ZM886.88,196.64c0-2.49,2.01-4.5,4.5-4.5h74.47c2.49,0,4.5,2.01,4.5,4.5v74.47c0,2.49-2.01,4.5-4.5,4.5h-74.47c-2.49,0-4.5-2.01-4.5-4.5v-74.47Z"/><rect class="cls-2" x="886.88" y="325.7" width="16.7" height="16.7" rx="4.5" ry="4.5"/><rect class="cls-2" x="903.57" y="442.57" width="16.7" height="16.7" rx="4.5" ry="4.5"/><path class="cls-2" d="M936.97,258.92h12.2c2.49,0,4.5-2.01,4.5-4.5v-41.09c0-2.49-2.01-4.5-4.5-4.5h-41.09c-2.49,0-4.5,2.01-4.5,4.5v41.09c0,2.49,2.01,4.5,4.5,4.5h28.89Z"/><path class="cls-2" d="M936.97,559.45h12.2c2.49,0,4.5-2.01,4.5-4.5v-41.09c0-2.49-2.01-4.5-4.5-4.5h-41.09c-2.49,0-4.5,2.01-4.5,4.5v41.09c0,2.49,2.01,4.5,4.5,4.5h28.89Z"/><path class="cls-1" d="M953.66,359.09h28.89c2.49,0,4.5-2.01,4.5-4.5v-7.7c0-2.49-2.01-4.5-4.5-4.5h-12.2s-16.69,0-16.69,0h-28.89c-2.49,0-4.5,2.01-4.5,4.5v7.7c0,2.49,2.01,4.5,4.5,4.5h12.2s16.69,0,16.69,0Z"/><path class="cls-1" d="M870.18,480.47v107.86c0,2.49,2.01,4.5,4.5,4.5h107.87c2.49,0,4.5-2.01,4.5-4.5v-107.86c0-2.49-2.01-4.5-4.5-4.5h-107.87c-2.49,0-4.5,2.01-4.5,4.5ZM965.85,576.14h-74.47c-2.49,0-4.5-2.01-4.5-4.5v-74.48c0-2.49,2.01-4.5,4.5-4.5h74.47c2.49,0,4.5,2.01,4.5,4.5v74.48c0,2.49-2.01,4.5-4.5,4.5Z"/><path class="cls-1" d="M987.05,421.38v-7.7c0-2.49-2.01-4.5-4.5-4.5h-12.2s-12.19,0-12.19,0c-2.49,0-4.5-2.01-4.5-4.5v-7.7c0-2.49,2.01-4.5,4.5-4.5h12.19s12.2,0,12.2,0c2.49,0,4.5-2.01,4.5-4.5v-7.7c0-2.49-2.01-4.5-4.5-4.5h-12.2s-12.2,0-12.2,0c-2.49,0-4.5,2.01-4.5,4.5v7.7c0,2.49-2.01,4.5-4.5,4.5h-7.69c-2.49,0-4.5-2.01-4.5-4.5v-7.7c0-2.49-2.01-4.5-4.5-4.5h-7.7c-2.49,0-4.5-2.01-4.5-4.5v-7.7c0-2.49-2.01-4.5-4.5-4.5h-12.2s-12.2,0-12.2,0c-2.49,0-4.5,2.01-4.5,4.5v7.7c0,2.49-2.01,4.5-4.5,4.5h-7.7c-2.49,0-4.5,2.01-4.5,4.5v74.48c0,2.49,2.01,4.5,4.5,4.5h7.7c2.49,0,4.5-2.01,4.5-4.5v-24.39c0-2.49,2.01-4.5,4.5-4.5h24.39c2.49,0,4.5,2.01,4.5,4.5v7.7c0,2.49,2.01,4.5,4.5,4.5h7.7c2.49,0,4.5,2.01,4.5,4.5v7.7c0,2.49,2.01,4.5,4.5,4.5h7.7c2.49,0,4.5-2.01,4.5-4.5v-7.7c0-2.49,2.01-4.5,4.5-4.5h7.69c2.49,0,4.5-2.01,4.5-4.5v-7.7c0-2.49,2.01-4.5,4.5-4.5h7.7c2.49,0,4.5-2.01,4.5-4.5ZM915.77,409.18h-7.7c-2.49,0-4.5-2.01-4.5-4.5v-7.7c0-2.49,2.01-4.5,4.5-4.5h7.7c2.49,0,4.5,2.01,4.5,4.5v7.7c0,2.49-2.01,4.5-4.5,4.5ZM941.47,409.18h7.69c2.49,0,4.5,2.01,4.5,4.5v7.7c0,2.49-2.01,4.5-4.5,4.5h-7.69c-2.49,0-4.5-2.01-4.5-4.5v-7.7c0-2.49,2.01-4.5,4.5-4.5Z"/><path class="cls-1" d="M1024.94,208.84h7.7c2.49,0,4.5-2.01,4.5-4.5v-7.7c0-2.49,2.01-4.5,4.5-4.5h12.2s12.2,0,12.2,0c2.49,0,4.5-2.01,4.5-4.5v-7.7c0-2.49-2.01-4.5-4.5-4.5h-12.2s-16.7,0-16.7,0h-28.89c-2.49,0-4.5,2.01-4.5,4.5v41.09c0,2.49,2.01,4.5,4.5,4.5h7.7c2.49,0,4.5-2.01,4.5-4.5v-7.7c0-2.49,2.01-4.5,4.5-4.5Z"/><path class="cls-2" d="M1003.74,580.64v7.7c0,2.49,2.01,4.5,4.5,4.5h12.2s12.2,0,12.2,0c2.49,0,4.5-2.01,4.5-4.5v-7.7c0-2.49-2.01-4.5-4.5-4.5h-12.2s-12.2,0-12.2,0c-2.49,0-4.5,2.01-4.5,4.5Z"/><path class="cls-1" d="M1037.14,271.11v-24.39c0-2.49-2.01-4.5-4.5-4.5h-24.39c-2.49,0-4.5,2.01-4.5,4.5v7.7c0,2.49,2.01,4.5,4.5,4.5h7.7c2.49,0,4.5,2.01,4.5,4.5v7.69c0,2.49-2.01,4.5-4.5,4.5h-7.7c-2.49,0-4.5,2.01-4.5,4.5v7.7c0,2.49,2.01,4.5,4.5,4.5h7.7c2.49,0,4.5-2.01,4.5-4.5v-7.69c0-2.49,2.01-4.5,4.5-4.5h7.7c2.49,0,4.5,2.01,4.5,4.5v24.39c0,2.49-2.01,4.5-4.5,4.5h-107.87c-2.49,0-4.5,2.01-4.5,4.5v7.7c0,2.49,2.01,4.5,4.5,4.5h12.2s16.69,0,16.69,0h45.59c2.49,0,4.5,2.01,4.5,4.5v7.7c0,2.49,2.01,4.5,4.5,4.5h12.2s12.2,0,12.2,0c2.49,0,4.5-2.01,4.5-4.5v-7.7c0-2.49,2.01-4.5,4.5-4.5h7.7c2.49,0,4.5-2.01,4.5-4.5v-41.09c0-2.49-2.01-4.5-4.5-4.5h-7.7c-2.49,0-4.5-2.01-4.5-4.5Z"/><path class="cls-1" d="M1053.83,480.47v7.69c0,2.49-2.01,4.5-4.5,4.5h-24.39c-2.49,0-4.5,2.01-4.5,4.5v24.39c0,2.49,2.01,4.5,4.5,4.5h7.7c2.49,0,4.5,2.01,4.5,4.5v7.69c0,2.49-2.01,4.5-4.5,4.5h-12.2s-12.19.01-12.19.01c-2.49,0-4.5-2.01-4.5-4.5v-74.48c0-2.49-2.01-4.5-4.5-4.5h-24.4c-2.49,0-4.5-2.01-4.5-4.5v-7.7c0-2.49,2.01-4.5,4.5-4.5h7.7c2.49,0,4.5-2.01,4.5-4.5v-7.69c0-2.49,2.01-4.5,4.5-4.5h7.7c2.49,0,4.5,2.01,4.5,4.5v7.69c0,2.49,2.01,4.5,4.5,4.5h24.39c2.49,0,4.5,2.01,4.5,4.5v24.4c0,2.49,2.01,4.5,4.5,4.5h7.69c2.49,0,4.5,2.01,4.5,4.5Z"/><rect class="cls-2" x="1053.83" y="208.84" width="16.7" height="16.7" rx="4.5" ry="4.5"/><rect class="cls-1" x="1070.53" y="275.61" width="16.7" height="16.7" rx="4.5" ry="4.5"/><rect class="cls-1" x="1070.53" y="392.49" width="16.7" height="16.7" rx="4.5" ry="4.5"/><rect class="cls-2" x="1070.53" y="475.97" width="16.7" height="16.7" rx="4.5" ry="4.5"/><rect class="cls-2" x="1087.22" y="208.84" width="16.7" height="33.39" rx="4.5" ry="4.5"/><rect class="cls-2" x="1087.22" y="292.31" width="16.7" height="16.7" rx="4.5" ry="4.5"/><path class="cls-1" d="M1120.62,313.51v24.39c0,2.49-2.01,4.5-4.5,4.5h-7.7c-2.49,0-4.5,2.01-4.5,4.5v7.69c0,2.49-2.01,4.5-4.5,4.5h-24.39c-2.49,0-4.5,2.01-4.5,4.5v7.7c0,2.49-2.01,4.5-4.5,4.5h-24.39c-2.49,0-4.5,2.01-4.5,4.5v7.7c0,2.49,2.01,4.5,4.5,4.5h7.69c2.49,0,4.5,2.01,4.5,4.5v41.08c0,2.49-2.01,4.5-4.5,4.5h-7.69c-2.49,0-4.5-2.01-4.5-4.5v-7.69c0-2.49-2.01-4.5-4.5-4.5h-24.39c-2.49,0-4.5-2.01-4.5-4.5v-57.79c0-2.49,2.01-4.5,4.5-4.5h41.08c2.49,0,4.5-2.01,4.5-4.5v-24.39c0-2.49,2.01-4.5,4.5-4.5h7.7c2.49,0,4.5,2.01,4.5,4.5v7.7c0,2.49,2.01,4.5,4.5,4.5h7.7c2.49,0,4.5-2.01,4.5-4.5v-7.7c0-2.49,2.01-4.5,4.5-4.5h7.69c2.49,0,4.5-2.01,4.5-4.5v-7.69c0-2.49,2.01-4.5,4.5-4.5h7.7c2.49,0,4.5,2.01,4.5,4.5Z"/><path class="cls-1" d="M1066.03,526.05h-24.39c-2.49,0-4.5-2.01-4.5-4.5v-7.69c0-2.49,2.01-4.5,4.5-4.5h7.69c2.49,0,4.5-2.01,4.5-4.5v-7.7c0-2.49,2.01-4.5,4.5-4.5h7.7c2.49,0,4.5,2.01,4.5,4.5v24.39c0,2.49-2.01,4.5-4.5,4.5Z"/><rect class="cls-2" x="1103.92" y="175.44" width="16.7" height="16.7" rx="4.5" ry="4.5"/><path class="cls-1" d="M1099.42,258.92h-7.7c-2.49,0-4.5-2.01-4.5-4.5v-7.69c0-2.49-2.01-4.5-4.5-4.5h-7.7c-2.49,0-4.5,2.01-4.5,4.5v7.7c0,2.49,2.01,4.5,4.5,4.5h7.7c2.49,0,4.5,2.01,4.5,4.5v7.69c0,2.49,2.01,4.5,4.5,4.5h7.7c2.49,0,4.5-2.01,4.5-4.5v-7.69c0-2.49,2.01-4.5,4.5-4.5h7.7c2.49,0,4.5-2.01,4.5-4.5v-7.7c0-2.49-2.01-4.5-4.5-4.5h-7.7c-2.49,0-4.5,2.01-4.5,4.5v7.69c0,2.49-2.01,4.5-4.5,4.5Z"/><rect class="cls-1" x="1103.92" y="275.61" width="16.7" height="16.7" rx="4.5" ry="4.5"/><rect class="cls-1" x="1103.92" y="359.09" width="16.7" height="16.7" rx="4.5" ry="4.5"/><rect class="cls-1" x="1137.31" y="175.44" width="16.7" height="33.39" rx="4.5" ry="4.5"/><path class="cls-1" d="M1154.01,346.9v7.69c0,2.49-2.01,4.5-4.5,4.5h-24.39c-2.49,0-4.5-2.01-4.5-4.5v-24.39c0-2.49,2.01-4.5,4.5-4.5h7.69c2.49,0,4.5,2.01,4.5,4.5v7.7c0,2.49,2.01,4.5,4.5,4.5h7.7c2.49,0,4.5,2.01,4.5,4.5Z"/><path class="cls-1" d="M1170.7,321.2v-7.7c0-2.49-2.01-4.5-4.5-4.5h-7.7c-2.49,0-4.5-2.01-4.5-4.5v-28.89s0,0,0,0v-45.58c0-2.49-2.01-4.5-4.5-4.5h-24.39c-2.49,0-4.5,2.01-4.5,4.5v7.7c0,2.49,2.01,4.5,4.5,4.5h7.7c2.49,0,4.5,2.01,4.5,4.5v28.89s0,0,0,0v45.58c0,2.49,2.01,4.5,4.5,4.5h24.39c2.49,0,4.5-2.01,4.5-4.5Z"/><rect class="cls-2" x="1170.7" y="375.79" width="16.7" height="16.7" rx="4.5" ry="4.5"/><rect class="cls-2" x="1170.7" y="475.97" width="16.7" height="16.7" rx="4.5" ry="4.5"/><path class="cls-1" d="M1270.88,330.2v7.7c0,2.49-2.01,4.5-4.5,4.5h-24.4c-2.49,0-4.5,2.01-4.5,4.5v7.69c0,2.49,2.01,4.5,4.5,4.5h24.4c2.49,0,4.5-2.01,4.5-4.5v-7.69c0-2.49,2.01-4.5,4.5-4.5h7.69c2.49,0,4.5,2.01,4.5,4.5v41.09c0,2.49-2.01,4.5-4.5,4.5h-7.69c-2.49,0-4.5-2.01-4.5-4.5v-7.7c0-2.49-2.01-4.5-4.5-4.5h-41.09c-2.49,0-4.5-2.01-4.5-4.5v-24.39c0-2.49-2.01-4.5-4.5-4.5h-7.69c-2.49,0-4.5,2.01-4.5,4.5v24.39c0,2.49-2.01,4.5-4.5,4.5h-7.7c-2.49,0-4.5-2.01-4.5-4.5v-41.09c0-2.49,2.01-4.5,4.5-4.5h7.7c2.49,0,4.5-2.01,4.5-4.5v-7.69c0-2.49,2.01-4.5,4.5-4.5h7.69c2.49,0,4.5,2.01,4.5,4.5v7.69c0,2.49,2.01,4.5,4.5,4.5h7.69c2.49,0,4.5-2.01,4.5-4.5v-7.69c0-2.49,2.01-4.5,4.5-4.5h41.09c2.49,0,4.5,2.01,4.5,4.5v7.69c0,2.49-2.01,4.5-4.5,4.5h-7.69c-2.49,0-4.5,2.01-4.5,4.5Z"/><path class="cls-2" d="M1220.79,208.84h-12.2c-2.49,0-4.5,2.01-4.5,4.5v41.09c0,2.49,2.01,4.5,4.5,4.5h41.08c2.49,0,4.5-2.01,4.5-4.5v-41.09c0-2.49-2.01-4.5-4.5-4.5h-28.89Z"/><path class="cls-1" d="M1254.18,513.86v24.38c0,2.49-2.01,4.5-4.5,4.5h-41.08c-2.49,0-4.5,2.01-4.5,4.5v7.7c0,2.49-2.01,4.5-4.5,4.5h-24.39c-2.49,0-4.5-2.01-4.5-4.5v-7.69c0-2.49,2.01-4.5,4.5-4.5h7.69c2.49,0,4.5-2.01,4.5-4.5v-7.7c0-2.49,2.01-4.5,4.5-4.5h24.39c2.49,0,4.5-2.01,4.5-4.5v-74.48c0-2.49-2.01-4.5-4.5-4.5h-7.69c-2.49,0-4.5-2.01-4.5-4.5v-7.69c0-2.49-2.01-4.5-4.5-4.5h-7.7c-2.49,0-4.5,2.01-4.5,4.5v7.69c0,2.49-2.01,4.5-4.5,4.5h-24.39c-2.49,0-4.5-2.01-4.5-4.5v-7.69c0-2.49,2.01-4.5,4.5-4.5h7.7c2.49,0,4.5-2.01,4.5-4.5v-7.7c0-2.49-2.01-4.5-4.5-4.5h-7.7c-2.49,0-4.5-2.01-4.5-4.5v-24.39c0-2.49-2.01-4.5-4.5-4.5h-24.39c-2.49,0-4.5,2.01-4.5,4.5v7.7c0,2.49-2.01,4.5-4.5,4.5h-7.7c-2.49,0-4.5,2.01-4.5,4.5v7.69c0,2.49-2.01,4.5-4.5,4.5h-7.69c-2.49,0-4.5,2.01-4.5,4.5v7.7c0,2.49,2.01,4.5,4.5,4.5h24.39c2.49,0,4.5,2.01,4.5,4.5v7.69c0,2.49-2.01,4.5-4.5,4.5h-24.39c-2.49,0-4.5-2.01-4.5-4.5v-7.69c0-2.49-2.01-4.5-4.5-4.5h-7.7c-2.49,0-4.5,2.01-4.5,4.5v7.69c0,2.49-2.01,4.5-4.5,4.5h-7.7c-2.49,0-4.5,2.01-4.5,4.5v24.4c0,2.49,2.01,4.5,4.5,4.5h7.7c2.49,0,4.5-2.01,4.5-4.5v-7.7c0-2.49,2.01-4.5,4.5-4.5h7.7c2.49,0,4.5,2.01,4.5,4.5v7.7c0,2.49,2.01,4.5,4.5,4.5h7.69c2.49,0,4.5-2.01,4.5-4.5v-7.7c0-2.49,2.01-4.5,4.5-4.5h7.7c2.49,0,4.5,2.01,4.5,4.5v7.7c0,2.49,2.01,4.5,4.5,4.5h7.69c2.49,0,4.5,2.01,4.5,4.5v7.69c0,2.49-2.01,4.5-4.5,4.5h-7.69c-2.49,0-4.5,2.01-4.5,4.5v24.39c0,2.49-2.01,4.5-4.5,4.5h-7.7c-2.49,0-4.5-2.01-4.5-4.5v-24.39c0-2.49-2.01-4.5-4.5-4.5h-7.69c-2.49,0-4.5,2.01-4.5,4.5v24.39c0,2.49-2.01,4.5-4.5,4.5h-7.7c-2.49,0-4.5,2.01-4.5,4.5v7.69c0,2.49,2.01,4.5,4.5,4.5h7.7c2.49,0,4.5,2.01,4.5,4.5v7.7c0,2.49-2.01,4.5-4.5,4.5h-7.7c-2.49,0-4.5-2.01-4.5-4.5v-7.7c0-2.49-2.01-4.5-4.5-4.5h-7.7c-2.49,0-4.5,2.01-4.5,4.5v41.09c0,2.49,2.01,4.5,4.5,4.5h41.09c2.49,0,4.5-2.01,4.5-4.5v-41.09c0-2.49,2.01-4.5,4.5-4.5h12.2s28.89.01,28.89.01c2.49,0,4.5,2.01,4.5,4.5v7.7c0,2.49,2.01,4.5,4.5,4.5h7.7c2.49,0,4.5,2.01,4.5,4.5v7.69c0,2.49-2.01,4.5-4.5,4.5h-24.4c-2.49,0-4.5,2.01-4.5,4.5v7.69c0,2.49,2.01,4.5,4.5,4.5h41.09c2.49,0,4.5-2.01,4.5-4.5v-7.69c0-2.49,2.01-4.5,4.5-4.5h24.39c2.49,0,4.5-2.01,4.5-4.5v-7.7c0-2.49,2.01-4.5,4.5-4.5h7.69c2.49,0,4.5,2.01,4.5,4.5v7.7c0,2.49,2.01,4.5,4.5,4.5h24.4c2.49,0,4.5,2.01,4.5,4.5v7.69c0,2.49,2.01,4.5,4.5,4.5h7.69c2.49,0,4.5-2.01,4.5-4.5v-74.47c0-2.49-2.01-4.5-4.5-4.5h-24.39c-2.49,0-4.5,2.01-4.5,4.5ZM1154.01,504.86v-41.09c0-2.49,2.01-4.5,4.5-4.5h41.09c2.49,0,4.5,2.01,4.5,4.5v41.09c0,2.49-2.01,4.5-4.5,4.5h-41.09c-2.49,0-4.5-2.01-4.5-4.5Z"/><rect class="cls-2" x="1220.79" y="576.14" width="16.69" height="16.69" rx="4.5" ry="4.5"/><path class="cls-1" d="M1287.57,413.68v24.39c0,2.49-2.01,4.5-4.5,4.5h-7.69c-2.49,0-4.5-2.01-4.5-4.5v-7.69c0-2.49-2.01-4.5-4.5-4.5h-7.7c-2.49,0-4.5,2.01-4.5,4.5v7.69c0,2.49,2.01,4.5,4.5,4.5h7.7c2.49,0,4.5,2.01,4.5,4.5v24.4c0,2.49-2.01,4.5-4.5,4.5h-24.4c-2.49,0-4.5-2.01-4.5-4.5v-24.4c0-2.49-2.01-4.5-4.5-4.5h-7.69c-2.49,0-4.5-2.01-4.5-4.5v-7.69c0-2.49-2.01-4.5-4.5-4.5h-7.69c-2.49,0-4.5-2.01-4.5-4.5v-24.39c0-2.49,2.01-4.5,4.5-4.5h7.69c2.49,0,4.5,2.01,4.5,4.5v7.69c0,2.49,2.01,4.5,4.5,4.5h24.39c2.49,0,4.5-2.01,4.5-4.5v-7.69c0-2.49,2.01-4.5,4.5-4.5h7.7c2.49,0,4.5,2.01,4.5,4.5v7.69c0,2.49,2.01,4.5,4.5,4.5h7.69c2.49,0,4.5,2.01,4.5,4.5Z"/><path class="cls-1" d="M1270.87,175.44h-95.67c-2.49,0-4.5,2.01-4.5,4.5v95.67h0v12.2c0,2.49,2.01,4.5,4.5,4.5h107.87c2.49,0,4.5-2.01,4.5-4.5v-12.19h0v-95.68c0-2.49-2.01-4.5-4.5-4.5h-12.2ZM1254.18,275.61h-62.28c-2.49,0-4.5-2.01-4.5-4.5v-74.47c0-2.49,2.01-4.5,4.5-4.5h74.47c2.49,0,4.5,2.01,4.5,4.5v74.47c0,2.49-2.01,4.5-4.5,4.5h-12.2Z"/><rect class="cls-2" x="1270.87" y="475.97" width="16.7" height="16.7" rx="4.5" ry="4.5"/><path class="cls-1" d="M1973.07,863.39l-858.83.89-.17-135.68,513.09-.07c15.82,1.79,30.05-8.94,30.12-25.14l.47-122.15-.23-509.09c-.01-16.37-14.83-23.81-28.88-23.81l-1103.76.04c-14.17,0-24.94,10.32-25.02,24.12l-.49,88.83c-28.71,8.22-71.13,25.09-74.81,58.28-3.31,29.89-1.77,58.95,1.31,89.33-17.01,7.51-76.53,31.5-70.88,53.68.89,3.51,4.8,7.47,9.6,9.63,23.98,10.8,50.19,12,77.2,6.1-.33,9.04-16.22,35.51-.31,35.29-1.26,9.7-10.89,24.18-4.72,32.96,1.78,2.54,4.79,1,8.84.79l-16.05,31.9c-1.12,2.22-1.12,5.03-.03,7.22.75,1.52,3.59,1.94,6.12,3.71-5.15,8.91-32.17,33.94-13,39.82-1.07,8.38-5.17,20.63-11.35,27.27-8.41,9.03-13.91,17.89-20.54,28.03-15.82,24.19-30.21,48.21-42.37,74.71-31.61,68.17-51.59,130.63-69.19,204.7H-68.7v8.49l202.07-.64c-10.8,30.35-6.01,79.79,12.92,106.47-8.21,15.62,15.35,28.11,20.46,37.81,2.16,4.1-.14,9.74,5.23,13.87,21.04,16.16,46.28,25.66,73,29.59-1.5,9.44-4.06,16.24-3.64,23.73h11.52c1.57-12.46,4.58-24.65,9.23-37.04.72-1.93.56-4.75-.95-5.82-1.24-.89-3.55.06-6.42.27-.37-5.93,1.57-12.98,4.49-18.73,3.76-7.43,2.81-14.24,3.95-21.76,1.72-11.36,8.8-21.1,11.86-32.23l32.09,14.52c59.11,26.75,119.86,48.13,181.46,69.54,19.83-12.2,36.64-26.23,53.78-41.67,5.41,8.7,17.1,39.38,24.48,39.44-3.26,10.9-10.67,23.85-12.57,33.48h3.63c7.8-12.51,14.38-24.8,19.2-40.95,6.82,14.36,11.55,27.45,15.44,40.95h11.67l-16.36-49.48c-1.48-4.49,13.46-14.84,14.64-25.17,4.6-40.3,9.64-70.12,16.08-110.81l33.42-14.42c39.9,21.25,62.04-6.33,75.25-9.95,17.07-4.69,36.11.29,53.56-2.03,2.49,6.16,3.09,11.43,8.48,13.41,10.83,3.96,22.52-1.91,26.69-13.04l223.35-.02.16,60.72c-52.07,1.64-143.69,7.19-189.15,27.59-11.13,4.99-13.8,13.05-13.69,24.1.12,11.31,2.44,19.12,13.61,24.09,45.56,20.28,128.52,25.99,179.82,27.93,63.83,2.42,126.18.94,189.36-7.29,18.63-2.43,89.14-12.95,95.77-30.86,2.94-7.96,2.29-19.43-.04-27.65-4.27-15.09-58.01-24.37-72.75-26.8-42.75-7.04-85-9.54-128.41-11.27l.34-60.62,293.77-.35,564.72-.57c1.26-2.86,1.33-5.04.25-8.19ZM516.02,247.96c41.76-13.05,93.42-25.35,137.38-20.96l14.26,27.7c-54.85,4.5-107.8,12.85-160.05,28.64l-63.99,19.33c-9.76,2.95-7.42-13-9.72-22.57,27.3-11.68,53.65-23.23,82.12-32.14ZM911.23,661.16c13.37-9.78,31.41-27.48,21.21-41.77-2.86-4.01-9.26-6.17-15.46-5.67-20.82,1.66-48.34,29.46-61.78,33.68-17.09,5.36-31.9,1.96-42.29,37.82-12.74.2-24.93.71-37.7-.04-1.74-.11-3.63-5.64-2.93-7.27,2.76-6.4-1.1-14.69.1-20.86,2.47-12.69,5.98-23.78,3.35-36.65-5.4-26.46-28.17-44.37-55.36-43.11-1.57-17.22-8.53-28.76-10.61-45.47,7.76,3.24,14.97,4.59,21.93.36,2.65,1.86,3.56,4.58,5.32,7.15,7.34,10.65,23.76-26.83,23.25-36.37,1.68-.71,3.68,2.02,4.7,1.89,1.38-.18,2.41-2.5,2.78-4.05,3.47-14.22-1.14-27.28-5.18-40.73,7.79-15.7-15.99-25.87-23.39-30.92-3.5-2.39-3.2-11.35-13.58-10.26,8.13-5.86,11.9-10.47,14.04-18.49l8.57-32.17c1.52-5.71,6.34-9.17,4.8-15.77-4.27-18.25-21.19-10.4-34.14-14.58-3.61-4.54-3.93-12.24-9.62-16.76,21.35-6.72,40.23-16.97,55.17-32.82,4.01-4.26,5.63-9.41,4.81-15.48-2.91-21.45-72.25-19.55-89.46-18.36-12.98-25.6-24.94-50.31-39.12-74.71-12.77-21.94-29.56-47.3-57.69-32.25-23.39,12.51-19.02,13.19-49.31,11.29l-.24-76.85,1090.56.05-.12,603.28-700.38.17c.29-10.61-2.28-19.18-12.23-24.28ZM892.69,671.23c3.5.15,5.94-2.15,9.03-2.47,7.22-.74,11.97,6.58,11.37,13.38-1.32,15.2-27.78,26.76-39.14,15.86,7.4-1.29,13.58-3.22,16.91-7.36,4.7-5.83,4.64-12.9,1.83-19.41ZM887.12,665.41l-20.51-11.59c11.22-6.45,48.12-38.11,57.4-28.19,8.64,9.23-29.68,35.25-36.89,39.78ZM878.74,671.77c3.78,1.69,5.18,6.57,4.86,9.38-.42,3.77-4.15,5.82-8.16,6.4-15.3,2.19-24.45-11.77-28.85-6.71-1.96,2.24-1.31,5.36.85,7.03l7.89,6.09c1.21,13.03-10.76,19.79-9.33,24.13.58,1.78,3.28,3.27,6.11,1.96,6.73-3.14,9.03-9.64,11.88-16.45,3.3.88,5.57,3.81,8.55,5.96-.69,9.59,1.83,18.42,11.15,23.95-9.11,7.94-28.5,11.26-40.3,13.26-13.24-11.22-22.51-25.45-28.48-42.19,5.39-6.85,7.59-13.76,10.03-22.37,3.2-11.31,13.48-24.4,26.41-22.45,9.89,1.48,18.72,8.13,27.39,12.01ZM883.59,713.41c11.81-2.19,22.9-5.12,31.71-14.59,5.06,7.35,3.07,16.06-3.72,20.91-7.09,5.07-15.69,5.77-24.63,2.78-3.34-1.12-6.12-8.49-3.36-9.1ZM803.48,694.29c-3.74,3.21-8.09,8.11-12.98,9.35-6.77,1.72-13.97-3.03-13.57-9.88,8.41-.14,16.24-1.04,26.55.53ZM552.9,490.02c-1.87-.71-4.31,3.45-6.08,1.08,8.94-24.86,37.71-23.77,35.09-35.28,14.08-21.11,45.7-23.6,71.14-13.07-2.01-14.72-32.53-14.95-44.92-12.71,35.8-20.05,17.57-50.6,31.88-51.79,4.9-.41,6.8,1.64,8.26,6.58,8.66,29.31,26.77,37.23,55.62,37.08.84,1.94.29,4.82.97,5.83,1.87,2.76,8.99,1,13.77,1.76,1.41.23,1.13,4.1,2.38,5.1,10.58,2.86,20.75,6.35,30.02,13.23-2.48,2.55-5.6,1.45-8.91,3.81,12.13,8.46,17.36,28.07,16.89,39.55-2.04-2.9-2.33-5.48-4.6-6.64-5.38,12.16-1.46,24.61-10.63,38.98-1.9-3.33-2.03-7.32-5.52-10.17-4.48,4.51-8.1,8.5-13.1,9.71-5.34,1.29-11.94-1.93-16.17-5.63-2.75-2.4-2.65-11.61.94-13.36,15.47-7.57,24.56-20.87,23.54-38.42-.55-9.56-6.34-17.85-16.88-19.23-13.29-1.75-27.74.51-40.04,5.46-11.08,4.46-14.54,14.74-11.79,25.13,4.14,15.68,15.79,23.67,30.9,27.69,4.26,8.51-4.39,19.11-13.94,22.03-27.83,8.5-66.38.16-87.67-20.55l-.2-9.92c-8.75,4.13-17.16,10.57-19.08,20.05,4.13.59,5-3.06,8.48-4.55,18.58,27.42,37.39,57.92,69.85,70.34,13.6,5.2,30.33,1.3,40.79-7.44,16.21-13.55.24-26.34,3.83-46.04,4.58,2.15,1.41,5.93,2.21,9.1,3.05,12.17,6.25,23.87,8.27,36.01.74,4.48-1.09,6.8-4.79,8.69-8.62,4.39-16.63,11-21.7,18.87-1.51-.13-2.66-1.97-3.51-1.75-2.66.66-18.33,18.79-30.26,20.47-1.74-4.84-.19-14.56-4.12-16.88-5.23-3.09-12.42,7.35-18.91,10.53-3.03-5.54-7.95-23.04-14.46-21.45-3.31.81-6.75,14.17-10.09,5.47l-9.39-24.43c-.81-2.08-2.53-3.61-3.82-4.2-5.53-2.55-7.82,6.29-11.83,9.07-6.52-6.69-5.36-32.22-13.35-30.06-4.55,1.22-5.87,7.1-10.76,8.95-6.84-19.11-4.31-39.34,1.96-58.18.88-2.63,2.78-7.66-.27-8.82ZM592.35,366.88c7.76-.38,15.38,1.2,21,5.75,4.04,3.27,4.16,32.52-13.07,40.39-.37-3.25,2.85-4.74,3.85-7.52,3.76-10.41-.89-32.33-11.78-38.62ZM586.73,408.19c1.67,4.97,6.57,6.72,11.48,5.93-10.55,5.38-44.86,10.69-51.55-3.25-5.42-11.31-8.39-23.87-7.96-36.86,13.84-4.13,26.77-6.96,41.51-7.27-7.55,4.97-14.38,9.12-18.21,17.27-2.45,4.27-3.53,9.5-.55,14.29,3.91-7.72,6.93-14.71,13.17-19.87,7.9-6.54,18.2-5.76,24.74,3.45-2.83-.75-5.31-1.28-7.85.01-8.65,4.37-7.25,18.97-4.78,26.3ZM706.04,340c-16.52-1.81-30.79,1.66-45.52,8.33.1-12.62,8.42-22.15,19.15-26.73-1.02,11.56,8.82,1.19,20.93,6.35,1.15.49,2.84,1.46,3.07,2.68.18.96-2.94,1.19-4.31,2.33-.53,4.05,4.27,3.81,6.68,7.04ZM709.35,359.37c2.7-3.65,14.15-2,15.87,3.08,7.36,21.7-9.38,48.04-13.02,41.37-7.08-12.95-8.58-30.22-2.85-44.45ZM693.67,386.29c-1.49-4.17-3.11-8.03-1.51-12.72,2.87,4.67,2.31,10.05,3.42,15.71l2.94,15c-1.51,1.79-5.22,1.75-6.87,0,1.5-5.62,4.03-11.99,2.02-17.99ZM679.92,403.49c-7.74-5.57-12.91-15.68-11.08-25.37.92-4.89,5.34-7.03,9.23-6.97,4.21.05,9.04,1.05,10.85,6.78-3.63-1.81-6.52-1.69-9.34,1.93-4.24,7.64-3.26,16.24.34,23.63ZM669.88,366.31c8.43-5.82,18.39-6.15,28.62-7.9l-5.1,14.58c-7.09-8.31-14.06-8.44-23.52-6.68ZM656.76,335.53l-.13,12.98c-.04,3.44-5.41,8.44-9.53,9.21-27.85,5.19-19.29-1.03-37.33-8.2-2.06-4.02-.24-8.58-2.88-12.55-5.71-8.6-25.62-25.37-36.62-18.92-.59,1.78.9,3.25.05,4.46-11.91-.5-23.06,1.24-32.26,8.24,2.43,2.61,5.02.64,7.76,2.38-9.95,5.7-16.72,14.82-22.74,25-8.77,2.9-17.48,3.96-26.96,5.74,2.32-14.09,4.83-26.7,5.78-41.53,43.77-15.59,121.36-28.08,167.07-28.44,12.26-.09,21.1,8.97,21.8,20.1-13.27-6.67-33.95,15.52-34.01,21.53ZM554.29,336.68c2.76-2.1,2.48-6.63,8-6.42l15.97.6c2.06.08,2.17-3.55,3.34-5.36,7.59,2.47,21.74,12.9,20.88,23.01-12.45.12-24.36-.12-36.87,1.21-9.81-.26-18.24,2.61-29.5,4.36,3.1-8.78,11.48-12.3,18.18-17.4ZM667.41,546.03c2.92-1.65,8.65-3.74,12.29-1.52,4.88,2.97,7.09,13.5,1.99,17.34-13.3,10.01-30.88,6.83-43.03-3.29-8.37-6.98-17.36-12.71-21.3-23.88,14.02,6.3,27.03,10.08,41.6,11.59,3.28,3.72,4.62,8.42,8.86,12.32,4.32-2.85,1.85-7.01-.41-12.56ZM620.29,643.39c4.92,16.26,5.09,31.78,5.53,47.99.88,31.85-1.98,63.06-5.27,94.59-10.13,4.11-17.4,7.4-30.2,10.11.53-42.06-1.76-31.36,11.26-65.55,13.14-34.52,16.77-50.01,18.68-87.14ZM625.12,626.31c3.41-2.73,5.91-5.16,9.62-6.39-.2,3.35-1.51,5.38-.98,7.61,2.34,9.75,29.1.7,35.47-5.9,4.29,2.4,4.58,6.47,4.79,11.85.7,18.12,11.41,32.32,25.31,42.27,3.39,2.43,6.84,4.4,6.45,9.62l-53.56-.08c-11.25-19.37-19.73-38.66-27.1-58.98ZM636.37,680.23l42.84,82.41-46.8,18.3c4.21-34.07,4.88-65.95,3.96-100.71ZM687.84,771.29c2.63,10.72,4.45,19.9,8.85,28.91l18.1,37.09-30.88,17.92c-14.94-21.12-25.09-44.58-27.76-71.02l31.69-12.9ZM690.54,758.78l-15.53-29.56c8.15-1.17,15-.93,25-.09l-9.47,29.65ZM669.38,718.47l-13.04-24.78,56.53-.29c4.29,5.68,5.96,11.78,8.27,18.87-4.35,1.43-8.31,5.32-13.04,5.76-12.94,1.21-25.51.11-38.72.44ZM715.32,678.86l45.84-14.57c2.08-.45,3.29,7.3,1.36,8.19-12.81,5.89-26.05,9.94-40.7,14.06-4.3,1.21-6.25-4.42-6.5-7.68ZM435.44,353.34c1.54-7.95,46.06-23.95,56.46-26.78-.47,11.07-9.21,59.62-16.18,62.73-2.25,1-6.13,2-8.97.08-9.77-6.61-32.52-29.8-31.31-36.03ZM429.3,517.04c6.79-11.14,24.04-28.85,14.34-40.78,3.75-12.12,19.28-31.16,10.64-43.83-1.34-1.58-5.18.05-6.77-1.4,1.76-6.62,11.24-35.32-.64-30.71-.94-3.33.82-7.76,2.96-11.06,3.81,1.57,6.64,4.19,10.09,6.51,9.69,6.52,22.01,3.73,27.48-6.66,1.8-3.42,4.56-5.29,8.79-4.93,7.51.65,14.7-.46,22.19,1.27l8.85,26.59c10.92,32.78,53.19,23.42,79.33,18.59-10.69,4.18-22.59,9.39-28.22,20.42-2.25,4.4-3.1,6.61-8.03,8.51-16,6.15-28.57,19.36-32.58,36-.47,1.96-.59,4.29.05,5.5.54,1.01,3.05,1.49,4.1,2.89-2.07,8.51-3.3,16.52-4.52,26.19-14.19-13.01-24.06-10.56-42.86-22.63-1.16-.75-2.73.13-3.33.61-.75.6-.73,2.16.22,3.3,9.6,11.52,37.08,17.56,45.16,28.76,3.63,5.03,5.55,30.08,16.95,29.84,2.92-.07,3.6-2.87,6.45-5.83,1.3,5.4,11.16,35.42,18.6,29.13,3.07-2.6,3.11-6.43,6.66-9.92,1.5,7.18,9.18,28.28,15.29,29.03,8.99,1.11,9.01-10.58,11.93-.92-1.71,21.77-1.68,43.28-6.07,64.87-4.64,22.87-12.75,44.2-22.16,65.95-44.05-67.52-90.5-140.4-159.49-183.3,2.52-11.07,18.28-37.05,4.59-41.99ZM249.93,1018.11c-5.64,9.03-7.53,19.02-9.65,30.79-20.29-3.86-37.76-12.11-54.03-22.35,3.03-1.33,5.82.37,8.24-1.14,2.71-1.69.88-5.74-1.72-7.14-11.5-6.16-22.14-13.02-30.48-22.91,2.7-.91,5.42-.21,6.57-1.64,6.08-7.52-17.94-14.2-25.96-50.68-3.89-17.73-4.58-35.36-1.64-54.5,5.25,11.2,11.6,20.97,17.63,31.95,9.75,17.75,19.76,34.81,34.3,48.83,16.44,15.95,35.01,27.74,57.9,31.19-2.05,6.11-10.07,14.88-1.16,17.6ZM255.67,989.57c-11.33-.33-20.87-4.72-30.49-9.73-14.55-8.92-26.66-19.99-37.2-33.61-15.41-23.79-29.73-47.33-43.3-73.27l132.8-.27-16.49,72.53c-1.9,6.96-.63,13.15,6.18,18.16l-11.5,26.19ZM605.77,910.24c-6.15,33.12-10.13,65.64-14.09,99.14l-21.69,24.35c-4.41-4.92-18.87-29.78-17.99-34.21l16.63-83.57,35.79-11.5c1.18.68,1.76,3.56,1.35,5.79ZM566.31,905.26c-12.65,3.5-24.32,6.99-37.43,7.93-10.19,1.41-19.31-2.27-26.89-8.93-13.99-12.3-25.79-25.87-36.79-41.24-21.28-29.74-40.07-60.32-57.4-92.51-2.57-4.78-12.7-33.23-17.97-22.56-4.53,9.18,14.63,39.63,20.28,50.02-37.7,3.62-48.88-43.45-45.28-73.38,3.15-26.11,10.97-51.55,24.38-73.9,8.02-13.38,21.6-22.73,36.73-23.07,15.58-.36,29.02,8.07,39.56,18.71,3.33,3.37,5.74,6.86,9.42,8.84,1.05-6.5-2.19-12.16-6.08-17.49-16.47-22.6-52.33-26.71-73.74-9.94-23.53,18.42-36.25,62.43-40.3,91.2-3.09,21.94-1.07,43.99,8.68,63.43,9.83,19.58,30.1,30.15,51.45,25.97l24.27,37.21c15.59,23.9,47.2,69.14,74.81,77.6,9.28,2.85,19.63,1.19,28.86-.43,4.06-.72,7.25-2.86,11.66-1.05l-15.63,75.89c-6.21,6.84-46.03,38.47-50.98,41.22-3.53,1.97-7.1-1.21-10.6-2.57l-161.95-62.68-38.2-16.93c-4.36-1.93-5.58-5.33-4.58-9.62l24.59-105.59c13.52-58.07,33.69-112.87,57.61-167.41,13.32-30.36,33.47-66.21,52.88-92.78,3.24-4.45,5.28-9.58,10.86-12.76,25.89,17.08,48.38,37.17,68.9,60.21,10.72,12.04,20.91,23.54,30.11,36.67l24.44,34.87,20.73,31.74c23.5,35.97,14.39,17.89,14.73,67.95-6.13,2.84-10.91,3.96-18.42,4.72l-58.39-112.55c-2-3.85-4.32-6.79-8.18-5.61-1.04,3.96-1.52,7.44.04,11.18,9.39,22.6,20.38,43.54,31.72,65.18,7.73,14.76,13.94,29.29,22.88,44.12-14.59,4.61-26.9,10.86-34.94,22.73-1.36,2.01-1.87,5.33-.61,6.31,5.09,3.94,19.03-15.08,31.79-16.47-6.65,8.79-13.15,17.1-13.31,28.11-.04,2.53,1.37,4.71,3.56,4.1,1.11-.31,2.25-1.47,3.5-2.79,5.47-11.67,11.61-22.4,21.83-30.9,29.73-8.51,57.81-19.13,87.74-30.24,3.13,26.87,12.99,50.25,28.02,72.84-35.58,19-71.21,32.8-108.36,44.65ZM717.81,865.59c-13.84,10.4-34.76,21.58-51.82,12.29,21.65-11.58,48.76-17.94,61.49-36.63l5.78-8.48c2.46-1.04,33.84-5.8,23.68,2.78-12.7,10.72-25.8,20.01-39.13,30.04ZM738.28,864.35l24.44-19.82c2.25,9.73,5.85,14.86,15.76,18.86-14.21,2.1-26.25.91-40.2.96ZM746.97,820.5c-9.3.65-16.44.45-25.05,7.1-8.56-18.33-19.92-34.98-22.48-55.25.1-10.39,5.78-21.16,8.08-31.86,1.66-7.73,8.71-17.22,16.73-17.56,3.98-.16,4.82,10.54.5,12.69,15.52,7.56,44.73-11.45,57.03-20.23,3.75-2.68,9.49.82,11.68,3.12,13.75,14.42-17.8,28.91-6.43,33.2,4.09,1.54,7.79-3.53,11.33-6.17,20.13,20.81-26.61,42.34,5.43,33.85,8.9,23.96-36.72,39.71-56.82,41.11ZM800.32,710.37c-1.14-1.42,4.44-4.33,4.88-3.19,6.17,16.01,19.9,40.67,36.17,50.44-7.22,9.26-15.4,16.52-24.21,24.84l-5.69-12.72c4.5-11.29,1.95-22.77-5.87-32.55,3.1-9.82,1.16-18.8-5.28-26.82ZM813.76,864.52c-10.32-19.16,4.11-13.75.06-27.03-2.92-9.56-5.62-19.09-8.2-29.51,18.98-16.85,37.01-32.86,52.45-53.1,15.62-2.66,29.13-9.69,42.09-18.81,5.88-2.12,11.26-4.11,16.98-7.49l122.16.03.16,135.88-225.7.03ZM1268.29,1012.62c-88.27,21-220.03,19.84-310.67,11.29-10.74-1.02-125.3-13.83-110.56-35.33,14.54,6.78,28.47,10.97,43.7,14.04,91.29,18.43,218.17,20.1,310.73,9.83,32.42-3.6,75.1-9.33,105.15-23.49,9.42,12.59-30.28,21.74-38.35,23.66ZM1114.25,941.64c34.71.1,170.95,8.23,192.81,32.04,2.51,2.74-1.6,6.32-3.8,7.47-32.43,16.9-97.62,23.6-135.17,26.3-79.46,5.71-158.32,3.85-237.36-6.1-16.33-2.05-76.23-11.65-83.93-24.42-5.79-9.6,46.28-20.84,52.71-22.04,46.34-8.7,92.67-11.95,139.81-13.45l.44,28.1c.08,4.87,6.24,7.97,10.99,9.04,16.88,3.83,34.29,4.15,51.23.58,19.21-4.05,10.07-18.21,12.27-37.52ZM1047.81,728.76h57.85s.16,235.36.16,235.36c0,4.5-1.52,6.36-4.56,6.96-17.44,3.46-35.45,3.12-53.34-1.57l-.11-240.75ZM924.9,718.52l3.09-5.32c3.42-5.88-1.27-13.04-4.01-19.72l698.85-.1c5.3,0,8.93-3.41,8.93-9.55l.2-427.39-.09-175.43c0-4.01-3.08-7.19-7.66-7.19l-1090.78.03c-4.47,0-7.85,2.19-7.89,6.1l-.71,78.43c-5.34,1.17-9.61,1.61-15.07.39l.23-86.43c.02-6.83,6.06-13.76,13.53-13.76l1111.99.06c8.11,0,11.96,10.13,11.96,16.84l.06,624.8c0,10.88-6.69,18.23-17.64,18.23h-704.99Z"/><path class="cls-1" d="M455.37,1084.07h-6c-1.3-6.18-12.89-17.6-11.32-25.44,10.05,5.25,15.43,15.37,17.32,25.44Z"/><path class="cls-2" d="M492.45,686.44c-3.09-11.25-11.09-20.57-17.53-31.27,1.05-6.5-2.19-12.16-6.08-17.49-16.47-22.59-52.33-26.7-73.74-9.94-23.53,18.43-36.25,62.43-40.3,91.2-3.09,21.94-1.07,43.99,8.68,63.42s30.09,30.15,51.44,25.97l24.28,37.21c15.59,23.9,47.2,69.14,74.81,77.6,9.29,2.85,19.63,1.19,28.86-.44,4.06-.71,7.25-2.86,11.66-1.05l-15.63,75.89c-6.21,6.85-46.03,38.47-50.98,41.23-3.53,1.97-7.1-1.22-10.6-2.57l-161.95-62.68-38.2-16.93c-4.36-1.93-5.58-5.33-4.58-9.62l24.59-105.58c13.53-58.08,33.69-112.88,57.61-167.41,13.32-30.37,33.47-66.21,52.88-92.78,3.25-4.44,5.29-9.58,10.87-12.76,25.89,17.08,48.37,37.17,68.9,60.21,10.73,12.04,20.91,23.54,30.11,36.67l24.43,34.87,20.73,31.74c23.5,35.98,14.39,17.89,14.73,67.96-6.12,2.84-10.91,3.95-18.42,4.71l-58.39-112.54c-2-3.85-4.31-6.79-8.18-5.61Z"/><path class="cls-2" d="M443.62,302.67c-9.76,2.95-7.42-13-9.71-22.57,27.3-11.68,53.65-23.23,82.12-32.13,41.76-13.06,93.42-25.36,137.38-20.97l14.26,27.7c-54.85,4.5-107.8,12.85-160.05,28.63l-64,19.33Z"/><path class="cls-2" d="M569.99,1033.73c-4.41-4.93-18.87-29.79-17.99-34.21l16.63-83.57,35.8-11.51c1.17.68,1.75,3.57,1.34,5.79-6.15,33.13-10.13,65.64-14.09,99.14l-21.69,24.35Z"/><path class="cls-2" d="M590.35,796.08c.53-42.07-1.76-31.36,11.26-65.55,13.14-34.52,16.77-50.01,18.68-87.14,4.92,16.26,5.09,31.77,5.53,47.98.88,31.85-1.99,63.06-5.28,94.59-10.13,4.11-17.4,7.4-30.2,10.12Z"/><path class="cls-2" d="M667.41,546.03c2.93-1.65,8.66-3.73,12.29-1.52,4.88,2.97,7.09,13.5,1.99,17.34-13.3,10.01-30.88,6.83-43.03-3.3-8.37-6.98-17.36-12.71-21.31-23.87,14.02,6.3,27.04,10.07,41.6,11.59,3.28,3.72,4.62,8.42,8.86,12.32,4.32-2.85,1.85-7-.41-12.56Z"/><path class="cls-1" d="M490.74,494.22c1.48,2.09,1.2,4.8-.25,5.73-7.26,4.65-31.6-34.63-17.78-42.16,2.63,7.28,2.86,14.91,7.27,21.16l10.77,15.27Z"/><path class="cls-2" d="M721.82,686.54c-4.3,1.21-6.25-4.43-6.5-7.68l45.84-14.57c2.07-.45,3.29,7.3,1.36,8.19-12.81,5.89-26.05,9.94-40.7,14.06Z"/></svg>