<?xml version="1.0" encoding="UTF-8"?><svg xmlns="http://www.w3.org/2000/svg" viewBox="0 0 1920 1080"><defs><style>.cls-1{fill:none;}.cls-2{fill:#4b1d51;}.cls-3{fill:#dd531c;}</style></defs><rect class="cls-1" width="1920" height="1080"/><g id="Layer_1"><path class="cls-2" d="M352.75,371.19c0,54.81-44.46,99.25-99.31,99.25s-99.31-44.43-99.31-99.25,44.46-99.25,99.31-99.25,99.31,44.43,99.31,99.25ZM345.48,371.2c0-50.82-41.22-92.01-92.07-92.01s-92.07,41.2-92.07,92.01,41.22,92.01,92.07,92.01,92.07-41.2,92.07-92.01Z"/><path class="cls-2" d="M1723.1,356.44c0,54.91-44.54,99.41-99.47,99.41s-99.47-44.51-99.47-99.41,44.54-99.41,99.47-99.41,99.47,44.51,99.47,99.41ZM1715.92,356.35c0-50.95-41.33-92.26-92.31-92.26s-92.31,41.31-92.31,92.26,41.33,92.26,92.31,92.26,92.31-41.31,92.31-92.26Z"/><path class="cls-2" d="M1858.18,150.52c0,50.43-40.9,91.3-91.36,91.3s-91.36-40.88-91.36-91.3,40.9-91.3,91.36-91.3,91.36,40.88,91.36,91.3ZM1850.98,150.51c0-46.43-37.66-84.08-84.13-84.08s-84.13,37.64-84.13,84.08,37.66,84.08,84.13,84.08,84.13-37.64,84.13-84.08Z"/><path class="cls-2" d="M213.13,574.28c0,47.83-38.79,86.6-86.65,86.6s-86.65-38.77-86.65-86.6,38.79-86.6,86.65-86.6,86.65,38.77,86.65,86.6ZM206.15,574.28c0-43.98-35.67-79.63-79.67-79.63s-79.67,35.65-79.67,79.63,35.67,79.63,79.67,79.63,79.67-35.65,79.67-79.63Z"/><path class="cls-2" d="M1769.78,572.1c0,44.7-36.26,80.94-80.99,80.94s-80.99-36.24-80.99-80.94,36.26-80.94,80.99-80.94,80.99,36.24,80.99,80.94ZM1762.86,572c0-40.9-33.18-74.06-74.11-74.06s-74.11,33.16-74.11,74.06,33.18,74.06,74.11,74.06,74.11-33.16,74.11-74.06Z"/><path class="cls-2" d="M1563.61,203.44c0,38.62-31.33,69.93-69.97,69.93s-69.97-31.31-69.97-69.93,31.33-69.93,69.97-69.93,69.97,31.31,69.97,69.93ZM1556.48,203.36c0-34.73-28.17-62.88-62.92-62.88s-62.92,28.15-62.92,62.88,28.17,62.88,62.92,62.88,62.92-28.15,62.92-62.88Z"/><path class="cls-2" d="M1867.92,404.4c0,37.79-30.66,68.43-68.47,68.43s-68.47-30.64-68.47-68.43,30.66-68.43,68.47-68.43,68.47,30.64,68.47,68.43ZM1860.93,404.33c0-33.95-27.54-61.47-61.5-61.47s-61.5,27.52-61.5,61.47,27.54,61.47,61.5,61.47,61.5-27.52,61.5-61.47Z"/><path class="cls-2" d="M1660.43,385.11c-3.08,6.2-7.81,3.18-9.69,8.29-2.93,7.93-7.56,2.72-13.55,7.98-7.24,6.36-11.46-2.12-15.83.51-4.69,2.82-10.11,2.05-14.13-1.57-4.42-3.98-8.17.25-12.97-7.35-1.2-1.89-3.76-2.19-5.62-2.97-2.88-1.2-3.05-5.36-5.21-6.82-4.73-3.22-6.89-6.41-7.4-12.16-.3-3.46-5.57-2.63-7.79-3.26-4.61-1.3-8.16-3.97-12.11-6-2.51-1.3-3.34-3.52-2.15-6l19.76-41.16c.8-1.67,2.98-2.73,4.67-1.94,6.93,3.27,13.47,4.98,15.66,10.79l20.79-.49c5.14-.12,9.89-1.82,15.13-1.38,7.05.6,13.72,1.72,20.6,2.99,5.68,1.05,20.75-18.93,24.92-10.17l9.64,20.23,8.77,19.7c5.23,11.76-22.78,14.36-23.16,16.03-3.49,15.16-6.28,6.56-10.36,14.77ZM1689.09,357.12l-7.09-14.59c-3.43-7.06-6.77-16.43-11.79-24.09-3.64,1.31-5.59,3.73-8.4,5.99.51,4.01,2.38,7.04,4.26,10.7,4.38,8.55,8.2,18,13.27,26.37,3.27.73,8.04-1.34,9.75-4.38ZM1664.32,361.98c2.92,2.08,6.38,1.97,8.86.85l-13.46-28.22c-2.72-5.7-4.61-2.68-17.31-5.27-9.59-1.95-18.8-2.08-28.33-.34-2.08,1.91-15.06,14.44-9.22,15.6,7.54,1.49,17.85-12.27,26.1-6.39l33.35,23.77ZM1630.82,373.77c.96-.56,2.37-.35,3.72.8,17.47,14.99,22.35,7.81,20.23,6.27-5.02-3.64-21.05-13.06-18.75-16.1.56-.74,2.16-1.86,3.56-.95l16.02,10.34c2.16,1.4,4.75,2.14,7.29,1.05,1.47-.63,1.86-2.45,1.58-3.53-.22-.84-.83-2.13-2.12-3-11.31-7.63-21.97-15.28-32.86-23.57-1.68-1.27-3.71-1.76-5.61-.72-7.21,3.96-21.69,10.57-25.65,1.22-3.68-8.68,7.3-12.02,6.59-16.54-5.85-.55-9.8-.14-14.32,1.05-1.99,6.05-15.14,31.82-11.54,34.77,1.93,1.58,7.9-4.56,14.62,2.59,1.33,1.41,3.58.37,5.2-.06,5.4-1.44,10.13,1.66,10.81,7.23,12.97,1.2,5.86,9.15,12.44,15.33,1.47,1.38,8.94,11.15,11.09,6.54,1.19-2.55-13.61-10.08-11.24-13.38.75-1.05,2.38-1.59,3.69-.64l12.72,9.2c1.86,1.35,5.57,2.33,7-.22,2.54-4.53-22.31-13.06-14.47-17.66ZM1589.14,372.71c0-1.63-1.32-2.94-2.95-2.94s-2.95,1.32-2.95,2.94,1.32,2.94,2.95,2.94,2.95-1.32,2.95-2.94ZM1603.48,377.49c1.4-1.49.84-3.46-.23-4.2s-2.77-.76-3.88.27l-8.68,8.1c1.23,7.42,11.04-2.3,12.8-4.18ZM1611.65,381.62c-1.97-3.76-14.03,8.01-9.73,9.52s11.37-6.39,9.73-9.52ZM1617.89,394.67c0-1.68-1.36-3.04-3.05-3.04s-3.05,1.36-3.05,3.04,1.36,3.04,3.05,3.04,3.05-1.36,3.05-3.04Z"/><path class="cls-2" d="M1780.27,190.19c-8.95.33-17.35.51-26.26-.07-7.03-.45.21-5.55-9.35-19.05-3.94-5.57-8-10.99-10.01-17.47-4.6-14.85.47-29.53,12.94-38.35,13.3-9.41,30.18-8.78,42.55,1.97,10.87,9.45,14.54,24.01,9.26,37.56-2.08,5.34-5.28,9.98-8.65,14.67-9.69,13.48-2.2,20.43-10.48,20.73ZM1778.83,154.79c-2.76,8.97-4.42,17.83-5.27,27.62-.16,1.88,3.48,1.95,4.56,1.34,2.34-1.33,1.41-7.33,4.35-11.88l9.68-14.98c4.39-6.79,4.68-18.35,1.19-26.07-5.44-12.05-18.68-18.22-31.6-15.4-15.77,3.44-26.23,18.53-22.25,34.6,3.88,15.68,15.1,19.31,16.46,34.23,11.17,6.58-.33-28.82-1.77-35.26-.38-1.69,3.91-1.39,4.93-.8,10.25,5.96,15.13-1.48,21.17-.71.53,3.13-.71,4.93-1.45,7.33ZM1768.82,182.3c.27-9.72,2.86-17.98,4.49-27.27l-12.71-.25c1.71,9.11,4.84,16.92,4.47,26.05-.07,1.79.39,3.06,1.83,3.01.61-.02,1.09-.23,1.91-1.54Z"/><path class="cls-2" d="M1779.57,204.54c1.19,0,1.9,1.35,1.2,2.32-1.37,1.89-3.24,3.89-3.88,4.85-4.27,6.42-12.56,7.37-17.01,1.97l-5.6-6.77s0-.01-.01-.02c-.76-.94-.03-2.35,1.18-2.35h24.12Z"/><rect class="cls-2" x="1751.75" y="193.9" width="31.85" height="7.04" rx="3.52" ry="3.52"/><rect class="cls-2" x="1759.88" y="90.17" width="14.51" height="4.75" rx="2.37" ry="2.37" transform="translate(1667.6 1859.3) rotate(-89.77)"/><path class="cls-2" d="M1497.54,212.7c-16,.77-30.52,9.49-38.78,22.99-6.61,10.81-7.42-20.28,10.48-39.1,7.44-7.83,17.21-11.77,27.89-13.82,1.56-3.27-.47-13.22,2.18-14.67,1.1-.6,3.19-1.33,4.56-.23l30.27,24.63c2.55,2.08,2.36,6.27.03,8.41l-29.28,26.85c-1.09,1-2.52,1.11-3.67.92-4.16-.7-1.93-10.06-3.66-15.99ZM1501.79,208.64c1.8,1.88,1.13,5.9,1.67,8.09.2.83,2.77,1.55,3.54.83l14.95-13.77c2.6-2.39,6.41-3.48,6.51-7.76-2.83-3.65-6.27-6.3-9.72-8.86-5.38-3.99-9.6-8.57-15.2-12.07-1.02,4.38.21,7.53-.98,10.96-1.47,4.24-21-.38-35.45,22.14-2.54,3.96-5.18,7.86-4.33,12.52,3.61-.8,5.38-3,7.91-4.72,8.91-6.05,19.98-9.42,31.1-7.35Z"/><path class="cls-2" d="M1379.25,1078.52c-3.02.89-6.66.68-10.45.02,5.95-17.15,13.97-32.93,23.98-48.05,4.41-6.66,9.69-12.07,15.78-17.05,14.97-12.24,25.84-9.7,20.5-5.74-26.27,19.47-36.94,40.49-49.8,70.82Z"/><path class="cls-3" d="M1393.38,899.7c-6.43-.2-.44-12.26-2.01-20.42,20.86-1.28,43.65,1.27,62.26-8.51,11.79-6.19,20.7-20.71,22.28-33.95.56-4.7,2.11-9.17,2.15-14.05l.21-26.21c.05-6.13-.62-11.79-1.1-17.84l-1.04-13.08c-.95-12.06-2.02-23.79-4.39-35.71l-3.65-18.32-3.41-13.23c-1.98-7.67,16.63-10.54,21.87-9.26,6.01,12.81,12.17,50.31,13.27,64.21l1.23,15.71c.59,7.49,1.23,14.5,1.41,22.06l.22,9.35c.07,3.15.3,5.84.03,9-2.87,33.43-4.2,65.33-37.72,81.36-21.55,10.3-48.68,9.59-71.61,8.88ZM1479.51,696.64c-.58-2.5-2.04-2.72-3.25-2.4-2.29.6-1.72,5.48-.56,6.42,1.07.86,2.12.94,2.99.15.78-.71,1.36-1.78.81-4.17ZM1484.08,713.35c-.6-2.36-2.44-2.67-3.4-2.29-1.54.62-1.74,6.36.05,7.02,1.09.41,2.8.12,3.26-.94.34-.78.58-1.87.09-3.79ZM1487.95,733.91c-.34-3.24-2.43-4.48-4.06-3.82-3.22,1.32-2.59,8.02-.5,8.6,1.53.42,2.71.33,3.64-.48.76-.66,1.16-2.04.92-4.3ZM1489.32,750.69c-.68-.3-1.95-.64-3.12.36-2.52,2.14-2.33,8.47,1.84,9.05,3.74.52,3.43-8.45,1.28-9.41ZM1492.07,775.2c-.42-2.51-1.92-3.33-3.38-2.67-2.75,1.26-1.14,6.17-.54,6.82.77.85,2.46,1.05,3.21.43,1-.83,1.1-2.27.71-4.58ZM1491.32,795.45c-1.13-.3-2.75-.4-3.2,1.03-.78,2.47-.52,4.45.76,6.42.57.88,2.5.49,3.11-.33,2.39-3.17.62-6.78-.68-7.13ZM1493.34,818.19c-1.53-1.65-3.53-1.2-4.97-.24-1.47,2.11-2.07,6.85.93,7.44,3.6.7,4.82-3.64,4.05-7.2ZM1486.18,846.99c3.04.1,4.07-2.61,4.12-4.28s-1.09-4.19-3.75-4.03-2.9,2.86-2.92,4.17.19,4.05,2.55,4.13ZM1483.19,860.82c0-2-1.62-3.61-3.62-3.61s-3.62,1.62-3.62,3.61,1.62,3.61,3.62,3.61,3.62-1.62,3.62-3.61ZM1468.27,874.79c-1.65-2.18-4.34-.68-5.62.41-1.05.9-3.04,3.35-1.52,4.8,1.89,1.81,4.57,1.33,5.76.44s2.81-3.76,1.37-5.65ZM1448.49,888.43c2.82-.77,3.33-4.26,1.45-5.61-1.58-1.13-6.27-.5-6.94,1.9-.77,2.75,2.66,4.49,5.49,3.71ZM1406.96,886.64c-2.25-.84-4.26-.35-5.66.93s-1.08,3.11-.59,4.02c.86,1.62,2.53,1.46,4.59,1.48,2.32.02,3.4-.89,3.81-2.2.51-1.6.37-3.3-2.14-4.24ZM1430.72,888.7c-.22-3.05-3.62-3.26-5.21-2.9-1.02.23-2.97.9-3.15,3.17-.17,2.14,2.81,2.79,4.22,2.7,1.24-.08,4.33-.36,4.13-2.97Z"/><path class="cls-3" d="M1440.23,847.74c8.05-3.97,11.35,4.06,14.22.47,1.95-2.46-.21-6.01-2.13-7.62l-12.73-10.7c8.53-2.91,14.5,4.7,17.07,3.09,4.88-3.06-4.99-9.61-6.39-11.06-1.85-1.91-1.06-4.85-1.08-7.43l-.22-30.31c-.09-12.12-2.43-41.34-4.64-52.92-.48-2.5-1.88-4.45-1.33-7.17,1.61-7.94,8.38-19.73,16.62-24.33,8.53,30.19,15.46,91.07,12.85,120.77-1.81,20.58-6.35,40.33-28.84,47.72-18.26,6-33.91,4.7-52.96,4.2-1.37-4.49-4.41-13.62-3.12-15.65.39-.62,37.32-1.48,52.68-9.05Z"/><path class="cls-3" d="M1262.34,836.51c.78,3.67-8.02,7.38-9.53,6.69-7.36-20.23-3.35-58.23.17-79.16l3.57-21.25c.37-2.22.04-6.62-2.38-7.08-7.81-1.47-10.38,17.91-10.37,20.88.02,4.88-1.44,8.2-4.5,11.66l-4.62,5.21c-4.37,4.93-8.87,9.29-13.81,13.74-3.82,3.44-6.52,8.21-11.4,10.63-2.81,1.39-6.64-18.48-9.56-22.3,3.84-4.37,7.51-8.69,11.65-12.86,8.19-8.25,15-17.04,22.53-25.85l9.49-11.1c2.79-3.26,5.8-5.93,8.17-9.56,1.15-1.76,2.49-3.23,5.06-4.7,6.59,14.01,9.3,20.19,23.42,28.31l-4.06,21.03c-2.72,14.1-4.82,37.96-3.56,52.26l1.85,20.94c.24,2.66-6.37,4.21-7.37,2.09-2.62-5.51-1.94-11.47-2.97-17.26-3.73-20.85,1.45-59.06,6.44-81.54-3.78.17-4.14,3.74-4.63,6.57l-5.07,29.3c-2.42,13.98-1.38,49.98,1.49,63.36ZM1238.42,742.4l-1.63,5.31,3.79,1.16,1.63-5.31-3.79-1.16ZM1232.38,760.92c0-2.06-1.67-3.73-3.73-3.73s-3.73,1.67-3.73,3.73,1.67,3.73,3.73,3.73,3.73-1.67,3.73-3.73ZM1217.51,776.17c0-2.05-1.67-3.72-3.72-3.72s-3.72,1.67-3.72,3.72,1.67,3.72,3.72,3.72,3.72-1.67,3.72-3.72Z"/><path class="cls-3" d="M1428.54,749.46c-4.4,4.07-6.45,20.66-6.48,26.46l-.22,44.08c-.02,3.14-.68,6.08-2.98,7.05-1.71.72-6.25,1.92-7.19-.71-1.44-4.08-1.75-8.78-2-13.22l-1.16-20.96c-1.07-19.33.03-56.08,6.75-73.66.63-1.64,16.86-15.64,19.49-17.81,10.23-8.43,17.64-16.3,25.72-26.54l7.51-9.51c5.64,4.59,11.01,9.37,15.2,16.52-20.18,1.25-37.35,19.08-45.7,35.84-3.39,6.79-1.91,13.54,1.26,19.92,4.29,8.66,5.47,69.04,5.13,83.02-3.34,1.61-6.87,1.76-10.92,1.11l-.13-56.14c-.01-5.69-.44-10.7-4.28-15.44ZM1427.52,729.82c-.09-2.52-2.1-2.6-3.41-1.84-.92.54-1.49,4.84-.41,8.1,3.2-.18,3.95-2.77,3.82-6.26Z"/><path class="cls-3" d="M1344.86,832.32c-13.64,1.84-17.06-3.52-21.24,6.54-3.83-1.51-9.06-1-12.22-3.64-2.58-2.16-2.44-7.7-2.5-11.02-.29-17.16-2.73-16.86-.66-38.15l2.18-22.44,6.59-39.98c.7-4.27.84-8.22,3.48-12.7,7.32,13.71,13.73,31.37,29.49,37.43-5.15,28.44-8.62,55.57-5.12,83.97ZM1332.05,747.65c0-3.78-3.07-6.84-6.85-6.84s-6.85,3.06-6.85,6.84,3.07,6.84,6.85,6.84,6.85-3.06,6.85-6.84ZM1328.84,784.6c0-3.71-3.01-6.71-6.72-6.71s-6.72,3.01-6.72,6.71,3.01,6.71,6.72,6.71,6.72-3.01,6.72-6.71ZM1329.6,825.25c0-3.89-3.15-7.04-7.04-7.04s-7.04,3.15-7.04,7.04,3.15,7.04,7.04,7.04,7.04-3.15,7.04-7.04Z"/><path class="cls-3" d="M1442.44,914.89c-8.38.31-53.96,1.33-56.49-2.13-.68-.93.23-2.28.59-3.58.98-3.55,2.86-4.42,6.35-4.28,27.9,1.11,41.12,1.77,68.14-6.07,5.78-1.68,11.35-4.57,16.32-8,22.79-15.71,25.92-38.89,29.27-64.47,3.37-25.72-1.4-92.16-9.79-118.77-.09-2.06-1.62-4.01.29-6.33,7.05,13.87,13.19,28.18,15.94,44.02l3.42,19.71c2.65,15.27,2.24,37.55,1.62,53.66-.54,13.98-9.83,60.04-17.6,70.47-4.06,5.45-15.7,15.49-22.63,18.2-11.44,4.48-23.07,7.13-35.43,7.58Z"/><path class="cls-3" d="M1377.86,832.58c-1.85-8.63-1.88-26.85-1.23-34.6l1.18-14.03c1.23-14.68,4.27-28.58,7.84-42.68,1.91-7.52,8.28-6.94,16.35-14.11,1.72-1.53,3.83-2.89,5.86-2.77-7.36,36.15-6.09,66.95-2.48,102.59.7,6.87-22.93,5.08-27.51,5.59Z"/><path class="cls-3" d="M1279.93,834.93c-1.26-1.59-2.56-18.13-2.67-20.53-1.09-23.77.03-27.86,3.12-50.36,4.96-36.17,8.39-26.04,23.86-45.29,1.65-2.05,2.63-4.49,5.88-4.43-2.89,18.74-7.36,34.36-10.02,53.83-1.38,10.06-2.91,41.64-1.64,50.23l2.27,15.3c-8.36,1.81-12.6-.61-20.79,1.26Z"/><path class="cls-3" d="M1443.64,983.11l-18.25,3.39c-2.75.51-5.72.66-6.45-2.77-1.17-5.46-3.21-10.46-4.62-15.87l-6.58-25.18c-1.85-7.09-5.54-15.98,1.65-15.81l23.3.55c2.85.07,3.58,3.59,4.23,5.72l14.11,46.55c-.72,2.09-4.87,2.94-7.39,3.41Z"/><path class="cls-3" d="M1378.2,985.15c1.69,8.08-14.55,4.8-19.47,5.29-4.8-2.76-7.15-7.42-10.2-11.75-4.48-6.38-13.47-17.35-10.33-26.16,12.01-12.11,7.26-16.85,9.26-32.02,7.42,2.37,18.19-1.3,18.97,4.68,1.13,8.68,2.76,16.92,4.58,25.63l7.19,34.34ZM1360.34,960.62c0-2.36-1.91-4.27-4.27-4.27s-4.27,1.91-4.27,4.27,1.91,4.27,4.27,4.27,4.27-1.91,4.27-4.27Z"/><path class="cls-3" d="M1151.95,835.07c-.23-2.32,2.39-3.04,4.34-2.4,2.42.86,3.53-.63,4.36-1.56,2.5-2.79-1.43-3.69-1.97-5.49-1.25-4.11,4.84-5.71,8.33-5.01,11.05,2.22,23.16,2.87,33.06-2.24,5.16-2.66,6.31-8.46,14.65-16.77l15.81-15.75c3.16-3.15,4.54-7.3,9.67-8.71l-3.43,29.92c-.45,3.9-9.78,13-13.47,15.93l-8.36,6.62c-7.18,5.68-14.12,11.13-23.02,14.05-10.83,3.56-29.76,1.61-39.96-8.6ZM1235.01,799.65c.41-2.36-1.59-3.23-2.7-2.92-.98.28-1.81.89-2.51,2.1-.86,1.48-.88,3.36.04,4.25.71.68,2.68.36,3.59.07.73-.24,1.22-1.38,1.58-3.5ZM1223.12,809.12c-3.3-1.05-5.17.31-5.86,1.24-.86,1.16-1.23,3.56.08,4.98,1.5,1.62,4.54-.22,5.63-1.76.74-1.03,2.13-3.82.14-4.45ZM1207.39,826.65c2.02-.91,2.37-3.35,1.99-4.4-.35-.95-1.72-2.29-3.16-2.19-1,.07-2.55,1.36-3.26,2.8-.9,1.85-.91,3.59.66,4.49.7.41,2.02.08,3.77-.71ZM1193.7,833.06c0-1.91-1.55-3.45-3.45-3.45s-3.45,1.55-3.45,3.45,1.55,3.45,3.45,3.45,3.45-1.55,3.45-3.45ZM1175.74,834.21c0-2.09-1.7-3.79-3.79-3.79s-3.79,1.7-3.79,3.79,1.7,3.79,3.79,3.79,3.79-1.7,3.79-3.79Z"/><path class="cls-3" d="M1368.03,832.71c-11.29-.13-18.69,2.47-19.01-4.62-1.23-27.11.67-52.05,6.06-79.47,8.43-1.11,16.1-3.36,23.93-7.48.93,5.32-1.27,8.91-2.01,13.27l-2.95,17.43-2.28,18.72c-1.32,10.88.38,42.01-1.56,43.11-.43.24-1.11-.94-2.18-.95ZM1367.32,758.55c-.28-3-2.21-3.06-4.03-2.5-1.01.31-2.13,1.29-2.39,3.36-.25,1.94.04,3.68,1.56,4.45,1.17.59,2.78.14,3.48-.65s1.61-2.27,1.38-4.67ZM1364.44,777.12c-.51-2.48-2.17-2.98-3.67-2.56-2.09.59-2.31,6.11-.87,7.26,1.02.82,2.74,1.38,3.95-.07.69-.83,1.08-2.28.6-4.63ZM1364.34,797.97c0-2.05-1.66-3.71-3.71-3.71s-3.71,1.66-3.71,3.71,1.66,3.71,3.71,3.71,3.71-1.66,3.71-3.71ZM1362.32,815.31c-.9-2.66-3.33-1.9-4.84-.41-.9,2.51.06,4.97,2.33,6.67,2.21-.77,3.57-3.12,2.51-6.26Z"/><path class="cls-3" d="M1522.12,956.68c-1.25.82-25.64,13.1-28.62,12.4-6.1-18.75-11.64-30.12-18.21-48.27,9.53-3.45,16.57-7.94,24.29-13.23,8.15,16.11,8.99,20.45,17.29,35.08.06.11,6.85,12.97,5.25,14.02Z"/><path class="cls-3" d="M1558.52,934.04c-1.98.42-3.32-1.56-3.91-2.98-1.77-4.22-4.59-7.2-7.02-10.83-7.35-10.97-12.75-22.55-18-34.66-2.76-6.37-6.05-12.3-7.54-19-.33-1.5,4.41-25.43,5.27-27.24l15.3,34.75c4.46,10.12,9.88,19.18,15.75,28.5l9.14,14.49c1.48,2.35,2.43,4.11,2.05,6.94s-8.07,9.41-11.03,10.03Z"/><path class="cls-3" d="M1396.43,926.71c1.26,2.66,15.6,53.51,17.36,61.26-8.39,1.29-15.75,1.83-23.64,2.14-3.73.15-4.73-1.97-5.52-4.99-5.37-20.55-9.28-40.56-12.58-61.45,12.1-3.01,5.94,6.75,13.27,6.43,1.31-.06,2.41-1.18,3.27-2.88s6.95-2.39,7.84-.52ZM1392.53,943.32c-.21-3.32-2.65-4.46-4.46-4.06-1.94.43-2.48,2.36-2.38,4.65.11,2.52,1.4,4.3,3.52,4.18,1.84-.11,3.53-1.42,3.32-4.77ZM1396,960.04c-.64-3.57-2.82-4.41-5.99-3.41-1.73,2.81-1.09,7.81,3,8.64,2.36.48,3.44-2.76,3-5.23ZM1401.39,978.06c0-2.33-1.89-4.23-4.23-4.23s-4.23,1.89-4.23,4.23,1.89,4.23,4.23,4.23,4.23-1.89,4.23-4.23Z"/><path class="cls-3" d="M1165.74,863.72c-12.7-1.26-24.13-7.66-34.65-17.06,4.84-.97,12.18-7.44,15.05-6.94,3.72.64,6.01,3.8,9.29,5.29,37.91,17.16,54.39-4.39,81.46-27.9,5.66,14.75-4.35,16.7-15.08,27.46-3.67,3.68-7.53,6.16-11.89,8.78-16.37,9.83-23.52,12.41-44.19,10.36Z"/><path class="cls-3" d="M1458.33,980l-10.55-31.81c-2.11-6.38-4.54-12.47-5.42-19.28-.21-1.65,7.37-4.48,10.21-.49,1.05,1.47,2.74,1.86,4.42,1.79,1.35-.06,3.34-.99,4.06-3.56.65-2.33,6.73-5.54,8.22-2.69,6.71,12.82,13.59,33.59,18.81,47.2-2.36,1.99-4.34,2.52-6.87,3.15l-22.89,5.69ZM1466.6,943.18c0-2.5-2.03-4.53-4.54-4.53s-4.54,2.03-4.54,4.53,2.03,4.53,4.54,4.53,4.54-2.03,4.54-4.53ZM1473.41,961.33c0-2.46-2-4.46-4.46-4.46s-4.46,2-4.46,4.46,2,4.46,4.46,4.46,4.46-2,4.46-4.46Z"/><path class="cls-3" d="M1547.59,942.74c-3.09,1.97-14.19,9.39-16.11,9.49-1.53.08-2.93-.72-3.84-2.43l-5.35-10.04c-7.75-14.54-11.33-20.49-17.65-36.91,9.22-10.42,8.88-17.1,14.72-26.51,4.79,11.52,11.59,26.48,16.87,36.04l7.88,14.26,5.41,9.32c1.73,2.97.45,5.26-1.92,6.78ZM1521,900.87c-.71-1.49-1.42-2.06-2.63-1.76-2.97.74-4.05,2.99-3.75,5.51.21,1.77,1.86,4.7,4.55,3.84,3.01-.97,3.24-4.62,1.84-7.59ZM1528.2,926.19c2.89-2.84,2.29-6.8-.46-9.23-2.16-.06-3.86.53-4.47,2.09-.65,1.63.74,8.07,4.93,7.13ZM1539.13,935.79c0-2.09-1.7-3.79-3.79-3.79s-3.79,1.7-3.79,3.79,1.7,3.79,3.79,3.79,3.79-1.7,3.79-3.79Z"/><path class="cls-3" d="M1240.27,721.2c-15.08,16.86-26.05,33.63-42.01,47.31-1.97-3.3-4.8-7.44-2.69-10.95,1.55-2.59,4.03-5.23,6.23-7.29,9.01-8.46,20.17-21.38,28.16-31.16l7.41-9.08c4.92-6.03,9.08-11.91,15.98-15.45,2.56,13.46,1.49,10.33-3.93,16.39l-9.15,10.23Z"/><path class="cls-3" d="M1384.94,850.99c-2.32-1.32-4.05-5.07-4.96-7.59l23.71-1.84c13.5-1.05,30.59-8.57,33.82,1.58-17.79,6-34.83,8.01-52.57,7.85Z"/><path class="cls-3" d="M1319.52,984.22c-2.91,2.3-7.35,1.19-10.7,1.07-.88-6.84-.43-12.62-.35-19.71,2-1.12,18.42-7.18,19.17-4.71,4.34,4.02-5.58,21.35-8.12,23.35Z"/><path class="cls-3" d="M1295.03,982.51c-3.91.69-6.92-.67-10.37-2.12-1.09-2.45-.89-4.66-.78-7.58,2.97-2.94,7.09-3.74,11.02-2.03l.13,11.72Z"/><path class="cls-3" d="M1303.06,967.69c.82,2.16,1.77,15.45-.61,16.3-.9.32-3.41.32-3.5-1.51-.32-6.28-1.91-12.23,0-14.48.57-.67,3.52-1.87,4.11-.31Z"/><path class="cls-3" d="M1096.89,716.39c-12.09-1.79-15.53,1.36-16.98-.87-3.31-5.07-7.12-19.37-9.35-25.19l-5.02-13.08c-2.66-6.94-5.07-13.53-6.9-20.78-1.56-6.17,20.89-2.92,24.64-2.63,14.56,1.09,28.76,1.2,43.3,3.65,7.45,1.25,11.98,5.21,14.33,12.1l6.69,19.54,13.02,36.63,8.15,23.63,13.12,37.62c1.65,4.74,3.22,9.14,5.37,13.77,1.2,2.57.35,6.85,3.28,8.34,1.47.75,4.59-2.77,4.65-4.43.15-4.37-2.03-8.02-3.43-12.1l-11.64-34.06-18.96-53.76-7.4-21.75c-3.17-9.3-6.44-18.49-12.59-26.36s-26.43-9.11-36.39-8.98c-3.63.05-6.43-.77-9.91-.91l-14.77-.58-13.97-1.98c8.47-.88,17.06-.89,26.05-.16,2.82.23,5.44.97,8.49,1.18l27.37,1.83c11.51.77,19.15,4,21.98,14.65,1.88,7.1,4.4,13.79,6.87,20.7l5.38,15.06,6.58,18.29,3.37,10.69,11.55,33.65,6.31,17.21c3.23,8.81,7.17,17.92,7.79,27.55-1.45,5.08-9.56,7-14.44,6.95l-24.83-.27c-3.61-.04-6.42-.08-9.83-1.2,1.01.33-24.07-1.53-25.42-2.62-2.54-2.05,2.48-8.04,4.36-10.39,9.02-11.24-2.39-22.07-1.34-26.61,6.06-26.25-8.48-20.7-8.97-32-.51-11.79-9.11-20.61-20.51-22.29ZM1083.26,675.33c1.37-4.66-.75-9.12-3.31-12.26-2.24-2.75-5.31-3.69-8.32-2.43-2.25.95-3.77,3.18-4.09,6.37-.82,8.18,6.91,13.56,10.21,13.2,1.78-.19,4.63-1.88,5.51-4.88Z"/><path class="cls-2" d="M1083.26,675.33c-.88,3-3.73,4.69-5.51,4.88-3.3.36-11.04-5.02-10.21-13.2.32-3.2,1.84-5.43,4.09-6.37,3.01-1.27,6.08-.33,8.32,2.43,2.56,3.14,4.68,7.6,3.31,12.26Z"/><path class="cls-2" d="M1406.96,886.64c2.51.94,2.65,2.64,2.14,4.24-.42,1.31-1.49,2.23-3.81,2.2-2.05-.02-3.72.14-4.59-1.48-.48-.91-.77-2.79.59-4.02s3.41-1.77,5.66-.93Z"/><path class="cls-2" d="M1489.32,750.69c2.15.96,2.45,9.93-1.28,9.41-4.17-.58-4.37-6.91-1.84-9.05,1.17-1,2.44-.66,3.12-.36Z"/><path class="cls-2" d="M1487.95,733.91c.24,2.26-.16,3.64-.92,4.3-.93.81-2.11.9-3.64.48-2.09-.58-2.72-7.28.5-8.6,1.62-.66,3.72.58,4.06,3.82Z"/><path class="cls-2" d="M1468.27,874.79c1.43,1.89-.15,4.73-1.37,5.65s-3.88,1.36-5.76-.44c-1.52-1.45.47-3.9,1.52-4.8,1.28-1.09,3.97-2.59,5.62-.41Z"/><path class="cls-2" d="M1486.18,846.99c-2.36-.08-2.57-2.78-2.55-4.13s.37-4.03,2.92-4.17,3.8,2.36,3.75,4.03-1.08,4.38-4.12,4.28Z"/><path class="cls-2" d="M1493.34,818.19c.77,3.56-.44,7.9-4.05,7.2-2.99-.58-2.39-5.32-.93-7.44,1.45-.96,3.44-1.41,4.97.24Z"/><circle class="cls-2" cx="1479.57" cy="860.82" r="3.62"/><path class="cls-2" d="M1448.49,888.43c-2.84.78-6.26-.96-5.49-3.71.67-2.4,5.36-3.03,6.94-1.9,1.89,1.35,1.37,4.84-1.45,5.61Z"/><path class="cls-2" d="M1430.72,888.7c.19,2.61-2.89,2.89-4.13,2.97-1.41.09-4.39-.55-4.22-2.7.17-2.27,2.12-2.95,3.15-3.17,1.59-.36,4.98-.14,5.21,2.9Z"/><path class="cls-2" d="M1491.32,795.45c1.3.35,3.07,3.95.68,7.13-.61.81-2.54,1.2-3.11.33-1.29-1.97-1.55-3.95-.76-6.42.45-1.43,2.07-1.33,3.2-1.03Z"/><path class="cls-2" d="M1479.51,696.64c.55,2.39-.03,3.46-.81,4.17-.87.78-1.92.71-2.99-.15-1.16-.94-1.73-5.82.56-6.42,1.2-.31,2.67-.1,3.25,2.4Z"/><path class="cls-2" d="M1492.07,775.2c.39,2.31.29,3.75-.71,4.58-.74.62-2.44.42-3.21-.43-.59-.65-2.21-5.56.54-6.82,1.45-.66,2.96.16,3.38,2.67Z"/><path class="cls-2" d="M1484.08,713.35c.49,1.92.25,3-.09,3.79-.47,1.06-2.17,1.35-3.26.94-1.78-.66-1.59-6.4-.05-7.02.96-.38,2.8-.07,3.4,2.29Z"/><circle class="cls-2" cx="1228.64" cy="760.92" r="3.73"/><circle class="cls-2" cx="1213.79" cy="776.17" r="3.72"/><rect class="cls-2" x="1236.72" y="743.65" width="5.55" height="3.96" transform="translate(162.49 1711.23) rotate(-72.91)"/><path class="cls-2" d="M1427.52,729.82c.12,3.5-.62,6.08-3.82,6.26-1.08-3.26-.51-7.56.41-8.1,1.32-.77,3.32-.68,3.41,1.84Z"/><ellipse class="cls-2" cx="1322.56" cy="825.25" rx="7.04" ry="7.04"/><ellipse class="cls-2" cx="1325.2" cy="747.65" rx="6.85" ry="6.84"/><ellipse class="cls-2" cx="1322.12" cy="784.6" rx="6.72" ry="6.71"/><circle class="cls-2" cx="1356.06" cy="960.62" r="4.27"/><circle class="cls-2" cx="1171.95" cy="834.21" r="3.79"/><path class="cls-2" d="M1223.12,809.12c1.99.63.6,3.42-.14,4.45-1.1,1.54-4.13,3.38-5.63,1.76-1.32-1.42-.94-3.81-.08-4.98.69-.93,2.55-2.29,5.86-1.24Z"/><path class="cls-2" d="M1207.39,826.65c-1.75.79-3.07,1.11-3.77.71-1.57-.91-1.57-2.64-.66-4.49.7-1.45,2.26-2.73,3.26-2.8,1.44-.1,2.82,1.24,3.16,2.19.38,1.05.03,3.49-1.99,4.4Z"/><circle class="cls-2" cx="1190.24" cy="833.06" r="3.45"/><path class="cls-2" d="M1235.01,799.65c-.36,2.12-.85,3.26-1.58,3.5-.9.29-2.88.61-3.59-.07-.92-.89-.9-2.77-.04-4.25.71-1.21,1.54-1.82,2.51-2.1,1.11-.31,3.11.56,2.7,2.92Z"/><circle class="cls-2" cx="1360.63" cy="797.97" r="3.71"/><path class="cls-2" d="M1364.44,777.12c.48,2.36.1,3.8-.6,4.63-1.21,1.45-2.93.89-3.95.07-1.44-1.16-1.22-6.68.87-7.26,1.5-.42,3.16.08,3.67,2.56Z"/><path class="cls-2" d="M1367.32,758.55c.22,2.4-.67,3.88-1.38,4.67s-2.31,1.24-3.48.65c-1.53-.77-1.81-2.51-1.56-4.45.26-2.07,1.38-3.05,2.39-3.36,1.82-.56,3.75-.5,4.03,2.5Z"/><path class="cls-2" d="M1362.32,815.31c1.06,3.13-.3,5.49-2.51,6.26-2.27-1.7-3.24-4.16-2.33-6.67,1.51-1.49,3.94-2.25,4.84.41Z"/><circle class="cls-2" cx="1397.16" cy="978.06" r="4.23"/><path class="cls-2" d="M1396,960.04c.44,2.47-.63,5.71-3,5.23-4.09-.83-4.73-5.83-3-8.64,3.18-1,5.35-.15,5.99,3.41Z"/><path class="cls-2" d="M1392.53,943.32c.21,3.35-1.48,4.66-3.32,4.77-2.12.12-3.41-1.66-3.52-4.18-.1-2.29.43-4.21,2.38-4.65,1.81-.4,4.25.74,4.46,4.06Z"/><circle class="cls-2" cx="1462.06" cy="943.18" r="4.54"/><circle class="cls-2" cx="1468.95" cy="961.33" r="4.46"/><path class="cls-2" d="M1521,900.87c1.4,2.97,1.18,6.62-1.84,7.59-2.69.87-4.33-2.07-4.55-3.84-.31-2.53.78-4.77,3.75-5.51,1.21-.3,1.93.27,2.63,1.76Z"/><path class="cls-2" d="M1528.2,926.19c-4.19.93-5.58-5.5-4.93-7.13s2.32-2.15,4.47-2.09c2.74,2.42,3.35,6.38.46,9.23Z"/><circle class="cls-2" cx="1535.34" cy="935.79" r="3.79"/><path class="cls-3" d="M1481.15,454.65c1.19,3.06-4.2,22.59-5.45,25.26-1.64.1-3.41-.93-4.51-2.72-3.36-5.47-7.89-9.17-12.81-13.13-2.4-1.93,3.28-7.02.07-11.76-2.6-3.84-12.07-1.04-13.76-3.5-2.4-2.21,6.67-12.99,2.7-15.03-6.95-3.56-15.88,3.37-23.16,1.65l8-16.68c.9-1.87,2.88-3.12,3.42-5.17.94-3.55,3.41-5.73,5.27-8.66,5.15-8.12,10.08-16.04,16.3-23.42l11.36-13.48c1.5-1.78,3.5-2.89,5.83-4.21,3.54,10.93,5.96,20.75,7.96,31.54-6.72,2.24-12.28,4.94-12.64,11.38-.85,14.97,14.79,13.18,12.5,16.98-.93,1.54-11.19,3.07-10.72,14.69.39,9.59,6.61,10.65,9.64,16.24Z"/><path class="cls-3" d="M1233.21,465.95c-1.21.44-2.46-1.92-2.77-2.91-13.04-51.79-5.12-32.11,2.44-45.27,2.49-4.34,1.84-10.77-2.18-14.05-1.89-1.54-4.72-.45-7.2-1.57-1.12-9.99,2.81-24.03,4.73-34.79,8.9,6.14,18.2,18.64,23.11,26.84l7.64,12.76c5.42,9.05,9.71,18.18,12.92,28.57-13.2,8.03-28.12,18.42-38.68,30.42Z"/><path class="cls-3" d="M1302.74,575.74c-1.96,2.56-2.21,16.33-7.26,12.2-5.96-4.87-2.05-11.87-8.26-13.63-1.74-.5-3.05-1.44-3.11-2.95-.04-1.01.74-3.23,2.71-3.25,6.98-.1,25.7-1.81,26.05,3.22.36,5.08-8.29,2.01-10.13,4.41Z"/><path class="cls-3" d="M1327.18,617.88c-6.11,9.51-23.68,15.42-32.99,7.56,2.19-3.55,5.07-5.8,9.39-7.82,1.55,1.14.37,3.11,1.61,5.41,8.33-6.33,10.58-10.99,21.99-5.15Z"/><path class="cls-3" d="M1493.37,398.57c1.23.07,2.65-.22,3.05-1.53,3.35.18,5.2,3.72,5.56,6.43.46,3.52-.89,6.98-4.14,9.16-4.97,3.34-11.92,2.69-17.12.14-2.12-1.04-2.66-3.6-2.59-5.24.05-1.38,1.86-3.86,3.72-2.82,3.49,1.96,7.72,3.53,10.88.02,1.49-1.65.38-4.48.63-6.14Z"/><path class="cls-3" d="M1496.28,435.84c1.46.03,2.92-.09,4.37-.29,2.94,2.14,2.84,5.59,1.16,8.32-4.22,6.86-13.78,4.56-17.73,2.51-4.18-2.16-5.54-6.99-3.1-10.98,5.02-.25,10.05,6.06,13.96,3.97,1.04-.56,1.4-2.21,1.33-3.53Z"/><path class="cls-3" d="M1224.64,411.2c.76,3.66-1.42,6.28-4.54,7.69-4.19,1.96-8.87,2.52-12.87-.09-3.66-1.68-5.42-5.2-4.14-9.05,2.7-.65,5.16.16,7.72,1.31,4.3,1.71,8.33,1.34,13.82.14Z"/><path class="cls-2" d="M1412.53,510.96c7.87-.02-6.67,11.3-9.17,12.42-4.11,9.62-8.3,19.06-17.71,24.87-15.47,9.54-40.04,6.35-52.24-4.24-2.88-10.67,2.85-23.67,8.91-32.05,8.86-12.23,23.45-16.56,37.52-12.47,4.38,1.27,8.16,2.81,12.25,4.64,6.8,3.04,15.16-7.47,13.19.33-.66,2.61-1.87,4.6-1.81,6.38,3.71,1.39,6.22,2.03,9.05.11ZM1355.67,547.48c16.73,3.48,31.06-3.11,37.92-17.28,1.15-2.37,3.69-6.06,2.05-8.95-9.06-16.01-32.27-21.27-44.77-7.63,10.9,2.75,10.74,18.59,7.92,27.38-.75,2.34-2.92,3.55-3.12,6.49ZM1342.63,543.46c-4.71-12.72,4.88-9.55,1.37-19.73-2.24,4.81-8.75,21.42-1.37,19.73Z"/><path class="cls-2" d="M1459.1,616.98c-23.73-13.73-48.58-21.57-75.76-26.15-14.44-2.43-28.27-2.04-42.89.23-1.36.21-1.87-2.86-1.24-3.13s1.36-1.49,2.86-1.73c39.74-6.24,84.83,7.36,119.16,26.53,1.24.69,1.83,2.03,1.75,2.79-.15,1.35-2.07,2.5-3.88,1.45Z"/><path class="cls-2" d="M1459.5,584.72c-36.33-10.26-85.58-13.97-120.18-1.62-1.49.53-2.99-.92-3.02-2.03-.07-2.64,16.37-6.68,19.55-7.26,25.17-4.58,50.32-3.96,75.62-.02,10.28,1.6,19.59,3.98,29.43,6.24,1.43.33,2.25,1.94,2.31,2.8.05.8-1.08,2.62-3.7,1.88Z"/><path class="cls-2" d="M1386.87,482.95c-12.81-5.83-13.05-9.13-32.55-5.9-1.54.26-3.39-.24-3.91-.94-.88-1.2-.7-3.54.83-4.8,11.8-9.69,42.53,5.05,38.81,11.3-.41.69-1.87.94-3.18.35Z"/><path class="cls-2" d="M1323.85,643.7c2.79,1.16,1.79,3.81.06,5.47-17.97,13.69-41.65-5.97-39.77-11.33,2.39-6.81,14.15,20.78,39.71,5.86Z"/><path class="cls-3" d="M1689.09,357.12c-1.71,3.04-6.49,5.11-9.75,4.38-5.07-8.36-8.89-17.81-13.27-26.37-1.88-3.66-3.75-6.69-4.26-10.7,2.81-2.27,4.76-4.68,8.4-5.99,5.02,7.66,8.36,17.03,11.79,24.09l7.09,14.59Z"/><path class="cls-3" d="M1778.83,154.79c.74-2.4,1.98-4.2,1.45-7.33-6.04-.77-10.92,6.67-21.17.71-1.02-.59-5.3-.89-4.93.8,1.44,6.44,12.94,41.84,1.77,35.26-1.36-14.92-12.58-18.55-16.46-34.23-3.98-16.07,6.48-31.16,22.25-34.6,12.92-2.82,26.17,3.35,31.6,15.4,3.49,7.72,3.2,19.28-1.19,26.07l-9.68,14.98c-2.94,4.56-2.01,10.55-4.35,11.88-1.08.61-4.72.54-4.56-1.34.85-9.79,2.51-18.65,5.27-27.62Z"/><path class="cls-3" d="M1768.82,182.3c-.82,1.31-1.3,1.52-1.91,1.54-1.45.05-1.91-1.23-1.83-3.01.37-9.12-2.75-16.94-4.47-26.05l12.71.25c-1.64,9.28-4.22,17.55-4.49,27.27Z"/><path class="cls-3" d="M1501.79,208.64c-11.13-2.07-22.19,1.3-31.1,7.35-2.53,1.72-4.3,3.92-7.91,4.72-.85-4.66,1.79-8.56,4.33-12.52,14.45-22.52,33.98-17.9,35.45-22.14,1.19-3.43-.04-6.57.98-10.96,5.6,3.5,9.82,8.08,15.2,12.07,3.45,2.56,6.89,5.21,9.72,8.86-.09,4.28-3.91,5.37-6.51,7.76l-14.95,13.77c-.77.71-3.34,0-3.54-.83-.54-2.19.14-6.21-1.67-8.09Z"/><path class="cls-2" d="M978.57,1080.33h-7.87c-.2-1.53-.36-3.27-.38-5.51l-.03-78.28-54.15-.4.08,77.28c0,2.72-.27,4.92-.54,6.92h-8.4c-.36-2.46-.38-5.12-.38-8.32l.09-73.1c0-2.32-.94-3.01-3.35-3.09l-117.09-4.2-8.73-.56c-37.86-2.42-74.74-5.52-112.62-10.27-19.57-2.45-37.65-5.66-56.86-9.09-1.91-.34-1.94.73-2.1,2.49l-3.07,33.13c-.49,5.31-8.33,14.92-11.84,18.65-2.45,2.6-3.1,5.2-1.84,8.74l15.14,42.72c.49,1.39-1.68,2.06-3.02,1.48-2.28-.37-6.98,1.25-8.04-1.16-5.44-12.43-7.85-25-15.01-37.35-4.94,14.15-9.73,26.19-18.31,37.07-.69.87-1.03,1.71-2.61,1.59s-1.55-1.35-.95-2.75l4.53-10.65c2.53-5.95,5.11-12.39,7.32-18.81-1.5-1.32-4.4-1.31-5.53-3.44l-17.13-32.36c-.63-1.18-1.41-1.83-2.08-1.51-1.01.5-1.72,1.11-2.58,1.92-13.72,12.95-28.28,24.17-43.92,34.75-3.16,2.14-5.42,2.96-9.25,1.51l-133.71-50.61-39.31-16.07-27.52-12.6c-1.15-.52-2.27-.75-2.78-.32-1.08.92-11,25.94-12.32,31.22-.94,3.75,1.29,7.97-.3,11.9-3.23,7.98-6.11,15.7-7.71,24.1-1.02,5.37,6.95-.72,7.44,5.07.19,2.28-6.8,24.56-8.33,35.73-.22,1.58-.05,2.84-2.22,2.82l-2.7-.02c-2.45-.02-4.3.17-6.8-.25.02-7.5,2.16-14.07,3.49-22.39-22.32-2.02-52.38-13.83-69.34-27.4-10.84-8.68-4.03-13.99-6.13-15.76-33.79-28.69-18.96-32.24-21.25-36.19-4.48-7.73-8.4-15.03-11.13-23.56-6.86-21.48-9.61-58.74-.75-78.64,1.02-2.28,3.27-3.64,5.11-3.69s4.64.76,5.72,2.98c5.98,12.25,12.68,23.53,19.75,35.22,16.68,27.58,26.38,47.9,55.03,66.62,9.54,6.23,19.72,10.08,30.92,11.83,2.47.39,3.13-1.52,3.97-3.55,2.63-6.33,5.08-12.14,7.97-18.21,4.09-8.56-8.62-3.72-4.11-23.58l14.03-61.76c9.97-43.88,24.66-99.5,40.55-141.07,21.35-55.89,38.57-96.86,72.31-146.55,4.81-7.08,8.21-14.28,14.37-20.43,3.17-3.17,6.29-6.74,8.39-10.76,1.84-3.5,8.92-19.51,7.36-21.88-.37-.56-1.32-.84-2.72-1.26-14.92-4.55,15.18-33.43,14.37-37.35-.26-1.27-3.9-.84-4.97-3.28-1.42-3.23-.68-6.5.98-9.56l12.01-22.08c.54-1,3.52-7.82,1.82-7.33-3.13,1.82-6.49,1.81-8.19-.84-4.17-6.5,2-19.33,4.48-28.34,1.74-6.33-5.06-1.43-6.01-7-1.99-11.71,11.66-31.31,4.82-30.1l-2.27.4-2.08.42c-3.78.76-7.05,1.19-10.94,1.57l-2.66.26c-17.3,1.72-47.89-1.95-61.12-13.07-3.38-2.84-4.41-7.07-3.28-11.43,3.86-14.88,36.44-31.61,50.05-37.61l18.84-8.32c-2.19-19.19-3.31-37.91-2.73-57.42.27-9.14-.26-17.83.82-26.75,3.79-31.25,34-46.21,61.02-55.59,3.19-1.11,4.62-2.1,4.62-5.88l.07-81.25c0-2.55-2.83-2.35-4.64-2.68-12.54-2.27-20.11-12.25-18.68-25.1,1.01-9.1,7.6-19.3,18.78-19.31l904.83-.07c12.33,0,19.95,10.22,20.37,20.91.51,12.91-8.31,23.13-21.53,23.75-1.71.08-2.61.55-2.61,2.3l.03,29.43.03,291.01c0,2.39,4.02,1.02,4.84.04,14.5-17.41,30.15-32.94,47.77-47.1,4.24-3.4,22.48-15.19,27.41-16.99,11.85-4.32,16.84,22.13,18.81,30.3.31,1.28,1.84,1.8,3.08,1.95,11.13,1.27,18.9,11.46,16.06,22.27-1.85,7.04-7.34,11.34-14.8,12.06,9.63,4.28,18.73,9.58,16.03,21.94-2.81,12.88-15.8,10.71-16.87,15.72l-3.36,15.7c-1.28,5.96-1.3,11.73.23,17.63,4.97,19.22,14.23,36.44,27.4,51.1,6.99,7.78,14.02,6.24,14.91,13.3.29,2.31-.46,4.65-2.38,6.37-3.72,3.35,3.89,1.7.92,8.88-11.13,26.91-41.85,54.71-67.3,69.22.23,5.57,3.28,9.47,7.11,12.69,6.3,5.3,11.68,11.06,17.37,16.94,31.04,32.07,40.97,85.46,40.77,128.97-.09,18.69,16.72,56.94,25.61,74.34,6.86,13.4,13.67,26.19,22.45,38.36,3.71,5.15,3.36,10.98,2.5,16.54,21.76,41.03,30.18,83.06,32.42,128.73.07,1.43,2.27,2.03,3.52,1.09,14.29-10.85,25.23-24.58,32.46-41.08,15.18-34.68,5.5-67.62-3.84-102.8-8.56-32.21-12.63-50.82-9.21-84.95,3.28-32.78,15.83-55.7,37.31-79.87,11.79-13.28,25.78-23.78,42.39-30.03,26.66-10.03,57.82-9.11,80.46,9.19,13.85,11.2,21.21,29.42,15.69,46.9-4.72,14.95-16.65,25.67-30.78,31.86-22.04,9.65-41.91,15.57-49.26,42.31-8.28,30.1,8.17,63.99,13.12,96.76,7.17,47.44-7.47,99.12-42.4,132.38-5.07-.8-9.05,1.03-13.49-1.02,31.63-26.47,48.15-68.59,48.04-107.9-.05-17.35-3.3-33.46-8.12-49.89-6.45-21.94-12.51-45.52-8.09-68.15,3.84-19.65,16.18-35.39,34.05-44.03,19.58-9.46,37.9-12.84,46.07-32.62,8.73-21.14-6.45-39.43-24.13-46.88-28.19-11.87-60.08-3.81-83.1,15.46-14.81,12.4-26.74,27.16-35.72,44.32-6.94,13.26-10.1,27.38-11.91,42.13-8.79,71.76,36.49,117.92,15.55,182.24-7.95,24.4-25.96,45.85-47.53,59.61l-2.05,6.21c-3.57.78-6.71.24-11,.36-.9-2.59.61-5.26.76-8.28,1.97-39.43-9.01-96.97-29.01-133.61-35.85,33.36-95.07,53.64-141.68,59.85-24.21,3.22-47.69,4.99-72.28,3.58-2.79-.16-5.68-.06-7.59-2.08-6.03-6.37-10.08-13.65-15.64-20.7l-9.16,16.64c-1.28,2.33-3.19,3.71-6.11,3.27l-29.65-4.52c5.02,27.53,16.18,48.24,24.08,75.54-14.15-10.25-22.93-34.54-28.78-50.82-16.53,17.9-27.18,38.24-33.55,60.89-3.63.44-6.61.53-10.45-.11,6.09-25.68,19.13-48.84,37.74-67.79,1.59-1.62,3.26-3.62,2.41-6.27-1.62-5.04-1.46-11.06-4.28-15.32-2.6-3.93-5.77-6.72-4.67-12.44.18-.95-.11-2.33-.67-2.48-.68-.19-2.15-.52-3.33-.3-28.74,5.23-56.14,8.64-85.4,11.5-68.05,6.64-135.09,9.92-204.19,10.46l-.02,77.46c0,2.76-.17,4.94-.53,6.93ZM740.59,549.53c-1.46,1.5-3.87,2.03-5.48.7-1.81-1.5-2.65-3.55-3.79-5.5-3.19-5.47-7.53,5.33-23.3-2.75.08,12.02,6.07,22.31,8.85,36.13l467.93.02c-.79-5.69-3.5-8.24-4.37-12.54-1.18-5.79-32.36.2-38.37,1.41-1.82.36-3.05-1.32-2.87-2.39.79-4.97,37.95-5.82,38.47-7.14.31-.77-2.49-11.73-1.45-14.68,4.56-2.97,9.68-4.59,13.91-8.14,10.57-8.86,18.62-19.46,24.66-32.18,3.31-6.98,9.67-15.85,8.4-24.05-2.67-17.2-8.82-33.01-10.02-50.26-6.92-.51-11.4-2.73-15.05-7.1-4.44-5.32-4.26-12.45-.45-18.13,3.58-5.35,9.22-7.75,15.87-8.79,1.76-11.69,3.65-22.36,6.71-33.47,1-3.61,4.18-7.24,8.11-6.52s7.11,3.55,10.73,5.55c25.72,14.19,52.67,34.61,71.36,58.62,13.79-4.66,52.08-5.98,64.55-3,1.27.3,2.53-.43,2.68-1.72l-.13-111.72-.07-206.16-869.45.02v83.67s28.96-.16,28.96-.16c24.42-.91,21.02,3.38,41.33-8.24,11.43-6.54,23.56-11.25,35.83-3.76,10.79,6.59,23.79,26.67,29.6,37.88l34.71,66.91c15.69-1.05,99.14-4.85,86.16,26.53-6.39,15.45-40.56,33.84-57.92,38.41,10.18,8.52,5.87,17.76,12.3,17.41,12.28-.67,29.63-.71,30.64,13.71.39,5.51-1.01,9.93-4.67,13.93-3.13,3.41-3.75,39.43-20.7,48.55,4.05,5.74,10.16-.13,11.42,13.04,10.44,2.29,18.3,8.79,23.79,17.18,3.02,4.6-.69,8.15-.06,11.74,1.48,8.54,9.91,28.02,4.03,41.12-.43.95-.84,1.66-1.36,1.75-1.87.3-4.03-1.98-5.14-1.18-2.07,1.47-.85,19.38-16.32,35.3ZM444.75,320.29l24.17-7.74,43.6-12.87c48.57-14.34,97.82-22.33,148.38-26.74,9.61-.84.16-9.78-5.16-23.28-1.18-2.99-3.96-4.9-7.28-5.06-8.29-.4-16.32-.85-24.65-.1l-11.03.99c-40.52,3.64-91.37,17.18-128.69,32.51l-30.22,12.42c-3.61,1.48-6.71,3.7-10.65,4.7-3.03.77-4.55,3.45-3.62,6.41,1.49,4.77.18,15.55,5.15,18.77ZM610.33,363.45l13.16,9.01c1.94,1.33,4.79,1.8,7.14,1.69l13.7-.65c3.4-.16,5.28-2.58,7.74-4.52,10.11-7.96-3.44-14.35,9.82-27.56,6.84-6.81,17.77-17.08,27.99-10.32-2.57-14.74-11.3-21.47-26.24-20.87-47.02,1.89-113.26,12.24-158.19,27.72-1.41,13.13-2.98,25.64-5.67,38.18-2.12.63-1.93,2.95-.49,2.77l21.1-4.29c2.43-.49,5.07-.96,6.35-3.16,5.41-9.31,12.21-17.1,20.83-23.18-2.63-.93-5.24.68-7.12-2.44,10.17-6.19,20.7-8.63,31.79-7.84.22-1.35-.99-3.11-.22-3.64,4.34-2.98,9.43-2.18,13.93.12,28.58,14.66,21.78,27.19,24.37,28.96ZM702.93,354.78l-5.98-4.89c.8-2.26,3.33-2.39,5.43-4.47-8.77-7.11-23.74.37-24.42-4.07-.12-.76,1.02-2.02.28-3.78-9.17,2.11-21.2,17.8-17.58,26.16,11.72-7.64,27.65-9.33,42.27-8.95ZM538.19,368.87l15.87-2.95c16.45-3.05,32.8-2.26,49.55-2.19.04-11.23-14.47-20.72-21.05-22.64-.07,10.79-12.54.99-23.38,6.32-1.19.69-.93,3.73-1.99,4.87-7.91,3.86-14.77,8.56-19,16.59ZM470.58,403.22c5.54,2.42,11.04.58,12.77-4.78,5.89-18.31,10.55-36.6,11.95-56.2-12.58,3.52-23.79,8.41-35.46,13.42-6.62,2.84-12.88,6.01-18.34,10.8-2.1,2.39-.77,4.72.77,6.89,7.96,11.24,16.74,21.5,28.32,29.87ZM1475.7,479.91c-.91,1.95,1.11,5.3-.94,7.54-.81.55-2.67-.78-3.64-1.82-6.17-6.53-12.82-11.74-20.27-16.76-1.81-1.22-3.45-3-2.84-5.45.61-2.47,2.91-3.4,4.27-6.22-4.97-.91-18.3.47-16.72-9.09.33-1.97,1.54-3.44,1.35-5.89-3.5-.81-20.37,6.95-21.48,1.22-2.17-11.24,27.56-56.59,36.65-66.86-3.51,1.7-6.38,4.13-9.34,6.79-15.57,13.98-37.51,36.04-48.31,53.64-.95,1.55-2.36,2.23-3.6,1.98-4.81-.96.34-10.12-2.9-10.92-28.76-7.03-58.66-5.88-87.14,2.08-3.81,1.06-9.92,5.15-13.42,1.55-3.74-3.84,9.98-8.61,12.75-10.16.51-1.5-1.03-3.65-2.26-4.98-13.4-14.52-28.07-27.16-44.56-38.08-2.37-1.57-4.5-3.55-7.66-3.18,6.47,7.72,41.1,59.23,30.55,65-15.35,8.4-29.18,19.54-38.3,36.04,10.3-5.58,18.68-10.96,29.51-7.4,2.15.71,5.51,2.15,4.36,5.42-.87,2.45-4.57,2.4-6.74,1.95-20.88-4.33-24.05,13.79-26.81-1.2-2.63,2.66-12.21,24.75-11.06,26.04.57.64,2.62,1.67,2.95.55.69-2.32-1.85-3.8-.52-7.33,3.57.63,3.85,3.38,6.34,4.61,5.87-2.99,11.93-5.87,18.72-4.59,20.83,3.91,25.28,27.52,23.62,45.81-.2,2.19-2.02,3.73-4,4.17-15.04,3.33-29.92,4.95-38.96-8.96-8.33-12.82-4.46-20.83-12.7-29.13-8.19,17.47-20.21,31.15-36.05,41.95-2.19,1.49-1.24,8.62,1.16,9.68,24.11,1.34,55.2,3.39,76.48,14.94,1.29.7,2.23,1.83,2.22,2.71-.02,1.81-2.38,2.86-4.23,1.75-18.25-10.87-52.52-14.91-73.4-13.87,1.82,5.1,3.58,15.25,8.45,14.52,19.11-2.87,45.72-3.82,63.48,2.57,1.25.45,1.94,1.21,2.01,1.88.12,1.09-.74,2.59-2.2,2.25l-5.63-1.32c-1.54-.36-1.25,3.41-.72,4.55,1.08,2.33,6.32.47,7.68,3.01.41.77,0,2.52-1.48,2.73-.95.13-4.87-.02-4.23,1.65,3.18,8.3,11.46,11.63,19.41,10.9,8.49-.78,21.3-9.58,15.75-13.82-5.95-4.54-1.82-10.78-8.25-13.96-3.45-1.71-5.23-4.67-4.79-8.4,1.16-9.85,17.03-7.31,29.21-7.01,4.18.1,8.2,1.88,10.44,5.32,1.41,2.15,1.23,5.44.08,7.64-.92,1.75-3.49,3.5-6.62,3.67-9.49.53-3.17,7.41-9.48,13-.9.79-1.47,1.48-1.62,2.3-1.36,7.5,36.24,28.2,55.4,8.08-3.46-3.8-16.18-1.29-17.02-5.5-.17-.88.47-2.26,1.97-2.27,11.49-.1,18.03,5.9,19.77-.82.4-1.55,1.57-2.15,2.75-1.83,2.84.78.15,6.72,3.12,7.76,23.06,8.05,44.25,19.24,63.34,34.25,3.43,2.7,5.97,5.56,8.65,9.13,29.5-13.18,64.23-39.63,80.4-67.73-3.45-2.22-14.48-1.81-15.71-5.96-1.64-5.51,11.38-8.64,16.03-12.94-15.93-9.54-29.2-38.39-35.32-55.24.43-1.73-.83-1.68-1.57-.12.57,1.2-1.67,3.48-2.18,2.65-6.5-6.58,4.33-47.7,3.91-48.59-.39-.84-1.56-1.13-2.65-1.1-3.03-5.58-9.25-6.64-9.64-16.24-.47-11.61,9.8-13.14,10.72-14.69,2.29-3.81-13.35-2.01-12.5-16.98.37-6.44,5.92-9.15,12.64-11.38-2-10.79-4.42-20.61-7.96-31.54-2.33,1.32-4.33,2.43-5.83,4.21l-11.36,13.48c-6.22,7.38-11.15,15.3-16.3,23.42-1.86,2.93-4.33,5.11-5.27,8.66-.54,2.05-2.53,3.3-3.42,5.17l-8,16.68c7.28,1.72,16.2-5.21,23.16-1.65,3.97,2.03-5.1,12.82-2.7,15.03,1.69,2.46,11.15-.34,13.76,3.5,3.21,4.74-2.46,9.83-.07,11.76,4.92,3.96,9.45,7.66,12.81,13.13,1.1,1.79,2.87,2.82,4.51,2.72ZM1233.21,465.95c10.56-12,25.49-22.39,38.68-30.42-3.21-10.38-7.5-19.51-12.92-28.57l-7.64-12.76c-4.91-8.2-14.21-20.7-23.11-26.84-1.92,10.76-5.85,24.8-4.73,34.79,2.48,1.12,5.31.02,7.2,1.57,4.02,3.28,4.67,9.72,2.18,14.05-7.55,13.16-15.48-6.52-2.44,45.27.31.99,1.57,3.35,2.77,2.91ZM719.93,374.27c-3.7-2.01-7.7-2.04-12.08-1.8-4.83,11.16-5.4,23.08-1.78,34.85,1.18,3.83,1.41,7.79,4.5,10.96,12.43-2.16,18.68-38.95,9.36-44.01ZM691.72,386.8l5.05-13.34c-11.46.81-24.46,3.41-33.07,10.41.8,1.4,2.08.99,3.31,0,8.03-6.5,17.6-4.29,24.71,2.94ZM597.36,395.37c.44,1.3,2.81,3.02,3.79,2.08.03-2.19-1.88-2.81-2.67-3.24-3.84-5.57-11.4-7.64-18.07-4.23s-11.51,9.69-14.62,16.73c-.72,1.64-1.06,3.32-3.02,4.39-5.3-9.73,7.85-25.91,19.19-28.78,3.18-.81,7.92-.9,11.04-.04,6.56,1.81,8.72,8.76,10.5,14.51,2.7,8.74,4,17.14-.04,25.67-.94,1.99-4,2.37-4.23,5.07,11.39-5.65,17.35-17.63,16.29-30.52-.24-2.97.67-7.49-1.42-9.51-12.97-12.51-53.3-4.61-70.25.01-6.87,1.88.98,28.03,3.47,33.91s6.78,9.6,12.91,10.48c12.99,1.87,25.68.66,37.58-3.92-4.68-.67-8.03-1.79-9.83-6.01-2.04-6.42-2.66-13.63-.51-20.25,1.4-4.3,5.26-6.72,9.92-6.35ZM677.64,395.29c1.87-4.05,5.61-4.77,9.49-3.94-1.46-4.9-6.29-5.54-11.09-5.52s-8.66,4.04-8.69,9.08c-.05,8.56,3.87,16.99,11.17,22.77-2.49-6.89-4.46-14.64-.89-22.38ZM576.4,586.65c5.74-4.11,6.34-9.55,10.82-8.93,7.28,1.01,10.6,26.91,15.82,30.55,4.45.85,4.53-8.08,9.01-7.56,5.96.69,10.29,15.45,12.79,21.01l14.73-10.77c2.81-2.05,6.1,1.98,6.43,4.85l1.4,12.33c14.66-4.62,18.35-12.14,30.28-20.83,1.82,3.33,1.21,6.41,3.48,9.2l12.66-17.66c2.89,1.41,1.99,3.76,3.74,6.35,13.31-20.89,6.75-31.21,1-52.68-.83-3.11-.15-6.43-1.96-9.43.76-1.82,0-3.5-1.22-2.03-1.76,16.26,10.05,26.83.74,38.62-11.42,14.48-36.13,17.92-53.01,7.17-8.64-5.5-17.04-10.75-24.02-18.45-7.72-8.52-15.05-16.96-21.56-26.43l-13.19-19.19c-3.02,1.11-3.86,4.16-6.37,4.28-7.07-1.64,12.95-21.52,17.16-18.36,2.11,1.58-3.03,5.95,1.84,10.25,5.36,4.74,11.12,8.53,17.71,11.51,20.52,9.27,55.03,15.91,74.37,1.76,3.56-2.61,8.13-12.6,4.55-15.78-4.47-3.98-11.6-3.89-16.33-7.66-12.52-9.95-21.62-30.88-6.86-41.63,10.45-7.61,31.52-10.09,43.44-8.46,10.43,1.43,16.76,9.46,17.07,19.58.46,14.88-6.65,27.88-19.85,34.7-6,3.1-6.61,5.35-5.18,14.42,1.55,2.22,5.16,3.59,7.51,4.78,12,6.09,19.35-6.85,21.48-7.45.82-.23,1.97.33,2.46,1.41l3.51,7.71c8.63-14.23,4.99-24.42,9.96-37.85,3.31,1.52,2.62,4.92,4.94,7.18.42-11.45-4.07-25.22-10.43-33.25-1.85-2.33-4.24-3.76-5.31-6.28,2.1-1.78,10.25-1.05,8.44-3.26-8.91-6.38-19.25-10.1-30.02-13.21-.84-1.6-.85-4.07-2.21-4.71-4.69-.33-9.39.95-13.14-1.8-1.16-1.35-.47-4.04-1.49-5.94-28.65.68-45.62-8.24-54-36.48-1.15-3.88-2.96-5.9-7.28-5.76-10.56.34-4.71,12.93-11.32,29.3-10.22,25.28-40.6,26.35-64.4,26.26-17.87-.07-29.56-7.44-35.05-24.27l-6.75-20.68c-1-3.08-2.92-4.85-6.45-4.73-15.94.56-21.14-2.53-25.31,4.96-5.05,9.07-15.32,12.35-24.48,7.44-4.39-2.35-7.74-5.53-11.76-8.09-2.22,3.66-3.53,7.01-3.5,10.67,2.05.38,4.11,0,5.11.82,1.57,5.27.94,10.83-.46,16.21l-4.24,16.33c1.85-1.01,2.79-2.14,4.66-2.12,5.56.05,6.01,10.39,3.58,17.52-2.59,7.59-6.23,14.7-10.01,21.61-4.42,8.08,7.51,6.85-3.01,25.8-4.21,7.57-11.03,13.71-11.91,19.01,4.47,1.31,6.07,4.77,5.15,9.09-1.84,8.63-4.55,16.55-7.8,24.72-.6,1.51-3.33,4.93-1.24,6.46,10.06,7.35,20.2,13.55,29.67,21.51,32.3,27.16,64.27,65.78,87.63,101l36.69,55.33c9.44-18.24,22.48-58.66,24.03-76.7l2.02-23.47c.39-4.48,3.09-30.39-.46-30.46-1.85-.03-3.11,4.77-8.29,4.48-8.64-.47-13.13-22.04-16.92-27.5-2.45,2.69-2.81,6.16-5.42,8.51-7.83,7.02-17.45-24.92-18.71-28.36-2.08,2.42-2.28,5.51-5.13,5.92-10.37,1.49-14.2-21.16-16.2-28.21-1.56-5.51-26.26-16.31-31.89-19.24-5.04-2.62-9.89-5.16-13.49-9.74-1.07-1.36-.33-2.95.51-3.15.75-.18,1.99-.78,3.08-.16,15.26,8.59,20.52,8.88,34.76,16.22,3.3,1.7,4.21,4.4,6.7,7.38,1.26-9.82,1.99-17.82,4.76-26.76-1.11-1.8-4.28-2.02-4.57-3.89.11-10.13,5.36-18.39,11.61-25.7s13.94-11.92,22.94-15.41c2.46-.95,6.14-2.98,8.19-.56,4.23,5-12.34,7.68-22.69,17.31-4.84,4.5-9.48,9.21-10.5,15.94,2.75.27,4.23-2.71,6.42-1.67,1.41.67.75,3.97.22,5.79-5.61,18.97-10.96,40.04-2.32,59.12,3.64-2.31,8.04-9.3,11.31-8.76,6.12,1.02,6.17,23.31,11.38,29.06ZM697.07,417.6c-2.19-6.57-2.75-10.82-3.21-16.13-.95-2.13-.69-4.28-1.92-5.9-1.89,8.82,3.75,9.67-2.48,22.3,2.2,1.23,5.69,2.28,7.61-.27ZM1493.37,398.57c-.25,1.66.85,4.49-.63,6.14-3.16,3.51-7.39,1.94-10.88-.02-1.86-1.04-3.67,1.45-3.72,2.82-.06,1.65.47,4.2,2.59,5.24,5.19,2.55,12.15,3.2,17.12-.14,3.25-2.18,4.6-5.63,4.14-9.16-.36-2.71-2.2-6.24-5.56-6.43-.27-.84-1.16-1.69-3.19-1.39-1.4.21-1.69,1.86.14,2.92ZM1212.17,404.4c-2.48-1.23-5.37,1.01-6.36,2.78,1.84.8,3.24.62,5.28.69,1.35.05,2.55-2.75,1.08-3.48ZM1224.64,411.2c-5.49,1.2-9.53,1.56-13.82-.14-2.57-1.15-5.03-1.96-7.72-1.31-1.28,3.85.47,7.37,4.14,9.05,4,2.61,8.68,2.06,12.87.09,3.12-1.41,5.3-4.04,4.54-7.69ZM1496.28,435.84c.06,1.32-.29,2.97-1.33,3.53-3.92,2.09-8.95-4.22-13.96-3.97-2.44,4-1.08,8.82,3.1,10.98,3.96,2.05,13.52,4.34,17.73-2.51,1.68-2.73,1.77-6.17-1.16-8.32-.23-3.46-.82-1.46-4.21-4-.38,1.54-.12,2.35-.16,4.29ZM1272.56,538.59c1.03-11.61-4-30.99-15.24-35.93-4.94-2.17-10.36-.31-14.71,1.06,11.68,4.04,10.74,27.03,3.12,33.11,7.69,6.26,17.08,3.08,26.84,1.75ZM1235.97,516.76c1.14-2.54,1.71-4.44.85-6.81-2.94,1.26-2.56,3.91-2.44,7.39-.13,3.01,1.57,2.64,1.59-.59ZM678.91,553.82c-5.42.7-8.51-.23-11.92.92-1.65,2.61,3.74,8.77.22,13.22-5.77-4.76-5.82-12.21-12.52-12.93-12.56-1.35-24.09-4.47-36.08-9.71-.58,3.7,1.78,5.58,3.42,7.81l12.64,11.94c8.22,7.77,21.6,14.58,33.89,11.49,5.17-1.3,11.94-3.18,13.85-8.77,1.61-4.69-.99-10.31-3.51-13.97ZM1302.74,575.74c1.84-2.4,10.49.67,10.13-4.41-.36-5.04-19.07-3.32-26.05-3.22-1.97.03-2.76,2.25-2.71,3.25.06,1.51,1.37,2.45,3.11,2.95,6.22,1.77,2.3,8.76,8.26,13.63,5.05,4.13,5.29-9.64,7.26-12.2ZM478.75,661.33c-1.58-.88-3.41-2.28-5-4.12-7.03-8.09-15.11-14.81-25.16-19.01-24.93-10.44-47.24,4.8-57.99,27.55-7.18,15.19-12.59,30.59-16.09,47.12-5.6,26.44-5.24,61.92,16.49,81.05,6.87,6.05,15.58,9.21,24.96,6.67-7.48-12.79-13.92-25.09-19.4-38.57-1.72-4.24-2.18-11,2.06-12.01,1.61-.38,4.32,1.06,5.24,3.2,13.34,31.1,37.89,71.34,57.55,99.38,9.41,13.43,23.17,34.37,35.84,44.28,8.71,6.81,18.5,10.83,29.55,11.98,15.12,1.56,54.88-.23,70.84-2.08l56.42-6.55c8.79-1.02,17.16-1.84,25.46-4.07,2.07-.56,1-3.87.62-5.34-6.57-25.79-9.23-45.04-8.25-72.52l-38.41,2.52-16.58.33-53.83.32c-9.4,6.08-16.13,14.85-20.48,25.18-1.72,4.09-5.96,7.86-8.37,5.79-6.79-5.79,10.29-27.27,16.82-32.02-12.67-6.32-29.54,22.31-33.28,12.2-1.84-4.96,6.63-10.11,11.22-13.68,5.92-4.61,12.36-7.42,20.25-8.87-2.53-6.38-6.03-11.82-9.1-17.98l-11.98-24.04c-7.64-15.34-15.74-29.88-22.87-45.6-3.64-8.04-14.7-25.65-8.17-30.5,4.2.02,13.18,18.24,15.66,23.03l20.02,38.8,9.43,18.18,4.1,8.16,15.59,30.12c5.71.64,10.73.6,16.33-.11.05-7.97.44-15.23,1.08-23.15s.28-15.5.5-23.49c.08-2.94-1.36-5.7-3.04-7.79-2.45-3.06-3.73-6.38-5.86-9.65l-25.59-39.19c-1.68-2.57-3.31-4.72-5.04-7.18l-14.8-21.09-6.26-8.85c-1.79-2.53-3.87-4.45-5.7-6.93-9.81-13.25-21.47-26.65-33.35-38.1-6.07-5.85-6.91-7.86-13.01-13.27-13.74-12.21-27.24-24.24-43.26-33.81-1.62-.97-4.5,3.07-5.25,4.35-3.39,5.79-8.36,12.08-12.25,17.59-1.94,2.74-2.78,5.53-5.12,7.9-3.02,3.06-4.15,7.34-6.46,11.07-12.48,20.12-23.73,40.28-33,62.11l-10.68,25.17c-4.5,10.6-8.42,20.85-12.46,31.66l-4.91,13.11-6.74,19.18-6.21,20.09-9.28,31.74-2.31,8.92-6.98,27.55-7.28,31.1-4.31,19.12-5.52,23.65c-1.48,6.33-3.06,12.44-3.89,18.99-.29,2.27,4.4,4.53,6.22,5.33l38.06,16.89,33.61,13.62,30.32,12.16,30.19,11.48,28.65,10.83,12.41,4.48,28.16,10.19c2.32.84,5.12-1.2,6.71-2.44l7.73-6.02c2.22-1.73,4.27-3.07,6.4-4.83l11.09-9.16c3.37-2.78,19.28-15.54,20.35-18.07.96-2.26,9.22-37.11,8.05-41.72-15.31-10.75-6.19-30.9-9.46-32.28-1.01-.42-26.79-1.12-42.27-11.02-10.47-6.7-18.65-15.09-25.89-25.05-6.45-8.87-13.07-17.24-19.11-26.43l-10.92-16.6c-5.37-8.16-9.98-16.2-15.82-24.11-1.69-2.29-3.14-6.62-5.97-7.57-14.66,3.14-28.47-.69-38.86-11.01-29.77-29.55-20.51-93.75-5.25-125.49l9.34-19.41c1.86-3.88,4.77-6.54,7.19-9.79,4.99-6.69,10.68-11.62,18.54-14.77,3.28-1.31,6.27-3.08,9.89-3.75,13.2-2.44,25.94,0,37.77,5.92,8.51,4.26,22.6,19.3,20.37,29.05ZM1213.85,597.67c11.41-4.11,22.39-6.17,33.5-8.85,1.42-.71,1.51-5.48.27-7.1-16.31-2.54-33.88-2.33-50.56,1.14,2.71,5.5,6.1,9.71,9.33,14.49,1.62,2.39,4.7,1.31,7.46.32ZM1052.37,858.97c.61,2.11,4.58,1.31,5.6,1.36l70.59,3.51c1.34.12,2.47-.18,1.6-1.37l-17.4-14.55c-5.41-4.53-11.34-7.46-15.89-13.11-14.19-17.6-5.22-20.64-15.16-27.57-11-7.66-18.5-17.88-22.9-30.47-5.71-16.34.26-15.43-2.79-28.89-2.55-11.27,1.82-22.2,11.24-28.79,2.33-1.63,1.88-3.33,1.05-5.75l-17.57-51.18c-1.48-4.32-2.26-9.67-.13-13.92,4.13-8.24,13.16-13.16,22.53-12.83,17.3.61,33.83,1.68,51.02,3.18,13.95,1.21,27.23,4.14,32.45,17.82l8.33,21.84,24.84,69.1c10.85-11.23,21-21.21,30.08-32.97,9.87-12.79,20.35-24.24,33.95-33.21.49-7.01,7.99-19.75,7.16-21.66-.3-.7-1.01-1.41-2.07-2.02-7.28-4.18-13.49-9.01-20.12-14.14-12.98-10.06-24.64-20.95-34.52-34.1-1.33-1.77-3.23-2.04-5.16-1.27-13.4,5.4-25.01,12.94-36.65,21.19-1.13.8-2.85.29-3.08-.46-.18-.58-.48-2.17.15-2.68,11.62-9.45,24.43-16.73,38.36-23.04,2.38-1.08-4.03-9.46-5.27-11.75-10.83.69-21.47-.86-32.08.56-8.45,1.13-22.6,9.61-24.42,6.36-1.46-2.59,2.69-3.5,4.9-5.1,2.12-.09,3.37-1.39.76-1.73l-193.17.09c-.99,5.01-.48,8.95-.3,13.76,7.95,2.76,12.76,9.06,12.24,17.14-.44,6.88-5.2,13.64-12.94,15.19-9.23,1.84-17.18-4.4-19.13-12.56s2.54-16.07,10.59-19.7c-.19-5.27.83-9.68-.65-13.9l-223.9.05c-3.19,13.51-9.61,24.63-20.49,32.88-1.69-.88-1.09-2.78-2.1-3.84-4.16,3.92-14.55,16.3-20.07,12.52-.91-.63-2.45-3.82-3.79-2.99-8.55,5.29-17.35,9.68-27.73,9.35-3.28-.1-6.76-1.63-6.93-5.27-.12-2.58,2.2-3.96,1.25-7.11-3.9,4.16-10.38,4.94-8.45,9.87,4.46,11.37,8.27,22.27,13.81,33.03l29.02,56.45,22.77,45.79,33.01-21.85c14.49-9.59,28.07-19.44,41.93-29.84,9.1-6.83,17.49-13.67,27.15-19.54,2.92-1.77,4.53-4.27,5.55-7.47l7.61-24.04c4.67-14.75,15.8-20.11,30.11-23.09,21.62-4.5,42.88-7.85,65.02-9.74,8.26-.7,16.37,3.18,19.96,10.38,2.21,4.44,1.97,9.83.53,14.58l-12.89,42.24-11.46,35.48-16.25,50.95-7.86,23.88c-6.28,19.06-22.56,20.32-24.62,25.18-3.57,8.41-8.68,14.96-14.59,21.99l45.51-1.84,11.43-46,12.89-51.75c.76-3.07,3.85-5.92,7.01-5.56l45.52,5.24,64.76,7.94c3.5.43,5.31,2.48,6.23,5.7l11.63,40.84,12.43,43.2ZM1433.4,644.97c-4.52-5.64-8.92-8.34-13.65-11.8-14.09-10.33-39.41-24.5-57.7-28.73-7.18,7.73-16.13,12.38-26.81,12.91l-8.28,8.42c-9.19,9.35-23.99,12.14-35.3,4.61-9.46-6.3-10.45-19.36-15.86-18.85-11.22,1.07-21.57-4.65-25.6-15.13-.5-1.3-1.75-2.76-3.34-2.45-12.12,2.39-23.5,4.77-35.57,9.67,18.06,22.22,37.42,36.71,60.29,50.91,12.11,7.52,3.72,10.27,15.9,21.53,9.05,8.37,18.84,15.4,29.3,21.84,9.07-3.99,17.18-6.43,26.04-9.32,24.31-7.95,47.37-17.32,69.47-29.28-2.81-1.46-5.42-.57-7.13-3.09,9.65-7.36,18.36-7.11,28.25-11.23ZM951.88,621.09c0-4.19-3.4-7.59-7.59-7.59s-7.59,3.4-7.59,7.59,3.4,7.59,7.59,7.59,7.59-3.4,7.59-7.59ZM1327.18,617.88c-11.41-5.84-13.66-1.18-21.99,5.15-1.24-2.3-.06-4.27-1.61-5.41-4.33,2.02-7.2,4.27-9.39,7.82,9.31,7.86,26.88,1.94,32.99-7.56ZM790.56,762.3l5.88-19.02,18.26-55.94c9.64-29.54,14.09-29.33,44.45-34.44l8.29-1.4c2.99-.5,5.57-.67,8.55-1.18l11-1.89c6.15-1.06,11.53-2.67,17.97-1.98-.31-1.54-1.42-2.47-2.12-2.71,1.58.55-30.62,4.45-34.02,5.01l-8.25,1.36-9.34,1.61c-3.05.52-5.76.33-8.75,1.33-17.45,5.84-21.79,1.41-28.59,22.12l-10.83,32.98-14.15,45.32-7.72,23.98c-1.18,3.65-1.67,7.24-.42,10.51,2.37-.6,8.43-21.23,9.79-25.65ZM1096.89,716.39c11.39,1.69,20,10.51,20.51,22.29.49,11.3,15.03,5.75,8.97,32-1.05,4.54,10.36,15.38,1.34,26.61-1.88,2.34-6.9,8.34-4.36,10.39,1.34,1.09,26.43,2.95,25.42,2.62,3.41,1.12,6.22,1.16,9.83,1.2l24.83.27c4.88.05,12.99-1.87,14.44-6.95-.61-9.62-4.55-18.74-7.79-27.55l-6.31-17.21-11.55-33.65-3.37-10.69-6.58-18.29-5.38-15.06c-2.47-6.91-4.98-13.6-6.87-20.7-2.83-10.66-10.46-13.89-21.98-14.65l-27.37-1.83c-3.05-.2-5.68-.95-8.49-1.18-8.99-.73-17.57-.72-26.05.16l13.97,1.98,14.77.58c3.47.14,6.28.95,9.91.91,9.96-.13,30.17,1,36.39,8.98s9.42,17.06,12.59,26.36l7.4,21.75,18.96,53.76,11.64,34.06c1.39,4.08,3.58,7.73,3.43,12.1-.06,1.66-3.18,5.17-4.65,4.43-2.93-1.49-2.08-5.77-3.28-8.34-2.16-4.63-3.72-9.03-5.37-13.77l-13.12-37.62-8.15-23.63-13.02-36.63-6.69-19.54c-2.36-6.89-6.89-10.84-14.33-12.1-14.54-2.45-28.74-2.55-43.3-3.65-3.75-.28-26.2-3.53-24.64,2.63,1.83,7.25,4.24,13.83,6.9,20.78l5.02,13.08c2.23,5.82,6.04,20.12,9.35,25.19,1.45,2.22,4.89-.92,16.98.87ZM590.07,803.86c-.14,1.84-1.39,5.77.96,6.01,8.89.9,17.65.1,26.52.13,2.16-3.95,1.85-7.82,2.28-12.12l4.6-46.25,1.44-29.99c.69-14.44.63-57.82-5.84-71.28.75,11.18-3,41.3-6.44,52.31l-5.83,18.62-5.88,16.53c-.93,2.62-9.56,23.46-9.55,23.06l-.6,21.95-1.65,21.02ZM857.52,801.59c4.16,12.15-3.63,15.94-3.23,24.21,11.61-10.72,11.35-17.7,16.07-32.21l10.05-30.84,3.82-13.28,26.79-83.18c1.06-3.29,4.06-7.81,1.67-10.72s-7.49-1.81-10.72-1.3l-23.78,3.78c-9.36,1.49-40.8,5.13-46.03,10.63-4.7,4.95-5.96,11.69-8.37,17.84-4.89,12.46-8.62,24.57-12.7,37.36l-18.61,58.33c-.42,1.31-.84,3.15-.29,3.78,3.92,4.46,26.61-8.27,32.95-11.59,6.18-3.24,12.97-5.85,20.18-4.68,5.44.88,10.29,5.74,12.26,10.75,2.99,7.64-2.54,13.87-.06,21.11ZM1428.54,749.46c3.83,4.74,4.26,9.75,4.28,15.44l.13,56.14c4.05.65,7.58.5,10.92-1.11.34-13.98-.84-74.36-5.13-83.02-3.17-6.38-4.64-13.13-1.26-19.92,8.35-16.75,25.52-34.58,45.7-35.84-4.19-7.15-9.55-11.93-15.2-16.52l-7.51,9.51c-8.08,10.24-15.49,18.1-25.72,26.54-2.63,2.17-18.86,16.16-19.49,17.81-6.72,17.58-7.83,54.32-6.75,73.66l1.16,20.96c.25,4.44.56,9.15,2,13.22.93,2.64,5.47,1.44,7.19.71,2.3-.97,2.97-3.91,2.98-7.05l.22-44.08c.03-5.79,2.08-22.39,6.48-26.46ZM764.01,735.22c-14.06,10.04-25.83,18.85-39.11,27.26l-35.59,22.55c-9.29,5.88-13.23,11.91-16.85,8.92-1.28-1.06-1.74-3.14-.91-5.18,3.58-8.83,13.62-6.25,9.8-13.8l-20.47-40.48-11.69-22.3-12.9-23.81c-1.64,11.22-.54,20.68-.51,31.06.05,16.72-.74,32.79-2.03,49.5l-3.21,41.35c13.48-.03,25.66-1.37,38.64-2.49l48.27-4.17c5.15-.44,9.83.01,14.25.83l15.89-24.61c10.2-15.79,28.55-10.43,27.68-15.99-5.34-8.9-7.62-18.06-11.26-28.66ZM1393.38,899.7c22.93.71,50.06,1.43,71.61-8.88,33.52-16.03,34.85-47.93,37.72-81.36.27-3.16.04-5.85-.03-9l-.22-9.35c-.18-7.56-.82-14.56-1.41-22.06l-1.23-15.71c-1.09-13.91-7.26-51.41-13.27-64.21-5.24-1.28-23.85,1.59-21.87,9.26l3.41,13.23,3.65,18.32c2.37,11.92,3.44,23.65,4.39,35.71l1.04,13.08c.48,6.05,1.15,11.7,1.1,17.84l-.21,26.21c-.04,4.88-1.59,9.34-2.15,14.05-1.58,13.24-10.48,27.76-22.28,33.95-18.61,9.77-41.39,7.22-62.26,8.51,1.57,8.16-4.42,20.22,2.01,20.42ZM1240.27,721.2l9.15-10.23c5.42-6.06,6.49-2.93,3.93-16.39-6.9,3.54-11.05,9.42-15.98,15.45l-7.41,9.08c-7.99,9.78-19.15,22.7-28.16,31.16-2.19,2.06-4.68,4.7-6.23,7.29-2.1,3.51.72,7.65,2.69,10.95,15.96-13.68,26.93-30.46,42.01-47.31ZM1440.23,847.74c-15.37,7.57-52.29,8.43-52.68,9.05-1.29,2.03,1.75,11.17,3.12,15.65,19.04.5,34.69,1.81,52.96-4.2,22.49-7.39,27.03-27.14,28.84-47.72,2.62-29.69-4.32-90.58-12.85-120.77-8.24,4.6-15,16.4-16.62,24.33-.55,2.72.85,4.67,1.33,7.17,2.21,11.58,4.55,40.8,4.64,52.92l.22,30.31c.02,2.58-.77,5.51,1.08,7.43,1.4,1.45,11.28,8,6.39,11.06-2.58,1.61-8.54-5.99-17.07-3.09l12.73,10.7c1.93,1.62,4.09,5.17,2.13,7.62-2.86,3.6-6.17-4.43-14.22-.47ZM1442.44,914.89c12.36-.46,23.99-3.1,35.43-7.58,6.93-2.71,18.57-12.75,22.63-18.2,7.78-10.43,17.06-56.49,17.6-70.47.62-16.11,1.03-38.39-1.62-53.66l-3.42-19.71c-2.74-15.84-8.89-30.15-15.94-44.02-1.91,2.32-.38,4.27-.29,6.33,8.39,26.61,13.16,93.05,9.79,118.77-3.35,25.58-6.48,48.76-29.27,64.47-4.97,3.43-10.54,6.32-16.32,8-27.02,7.84-40.24,7.18-68.14,6.07-3.49-.14-5.37.73-6.35,4.28-.36,1.3-1.26,2.66-.59,3.58,2.53,3.46,48.11,2.44,56.49,2.13ZM1262.34,836.51c-2.86-13.39-3.91-49.39-1.49-63.36l5.07-29.3c.49-2.83.84-6.4,4.63-6.57-4.98,22.49-10.16,60.69-6.44,81.54,1.03,5.79.35,11.75,2.97,17.26,1,2.11,7.61.57,7.37-2.09l-1.85-20.94c-1.26-14.3.84-38.16,3.56-52.26l4.06-21.03c-14.12-8.13-16.83-14.3-23.42-28.31-2.57,1.46-3.91,2.93-5.06,4.7-2.37,3.63-5.39,6.3-8.17,9.56l-9.49,11.1c-7.53,8.81-14.34,17.61-22.53,25.85-4.14,4.17-7.81,8.49-11.65,12.86,2.93,3.83,6.75,23.7,9.56,22.3,4.88-2.42,7.58-7.19,11.4-10.63,4.94-4.45,9.44-8.81,13.81-13.74l4.62-5.21c3.06-3.46,4.52-6.78,4.5-11.66-.01-2.97,2.56-22.35,10.37-20.88,2.42.46,2.75,4.85,2.38,7.08l-3.57,21.25c-3.52,20.93-7.53,58.93-.17,79.16,1.51.69,10.32-3.02,9.53-6.69ZM1344.86,832.32c-3.5-28.4-.03-55.53,5.12-83.97-15.76-6.06-22.17-23.73-29.49-37.43-2.64,4.48-2.77,8.43-3.48,12.7l-6.59,39.98-2.18,22.44c-2.07,21.29.37,20.99.66,38.15.06,3.32-.08,8.85,2.5,11.02,3.15,2.64,8.39,2.13,12.22,3.64,4.18-10.06,7.59-4.7,21.24-6.54ZM1279.93,834.93c8.19-1.87,12.42.55,20.79-1.26l-2.27-15.3c-1.27-8.58.27-40.17,1.64-50.23,2.66-19.47,7.13-35.09,10.02-53.83-3.25-.06-4.23,2.38-5.88,4.43-15.47,19.25-18.9,9.12-23.86,45.29-3.08,22.5-4.21,26.59-3.12,50.36.11,2.4,1.41,18.94,2.67,20.53ZM782.89,742.47l8.8-26.94c-2.62-.77-3.97.79-5.74,2.18-13.37,10.55-13.02,15.2-6.34,33.08,2.11-2.16,2.18-4.94,3.28-8.32ZM1377.86,832.58c4.58-.51,28.2,1.28,27.51-5.59-3.61-35.64-4.87-66.44,2.48-102.59-2.03-.13-4.14,1.24-5.86,2.77-8.08,7.17-14.45,6.59-16.35,14.11-3.57,14.1-6.61,28-7.84,42.68l-1.18,14.03c-.65,7.75-.62,25.98,1.23,34.6ZM1095.08,783.87c-1.87-.88-1.48-3.48-.82-4.13,2.56-2.57,9.19.12,16.63-4.47s8.96-13.31,3.53-19.97c-2.17-2.66-5.46-3.73-8.72-1.88-13.29,7.52-25.76,4-23.78-.08,1.3-2.68,13.5-.52,22.5-7.23,5.73-4.27,4.59-12.77-1.09-16.97-10.57-7.8-19.51-1.26-33.12-2.68-6.62,4.09-6.71,15.26-4.69,22.15,3.47,11.86-3.3,13.47,2.6,26.77,3.43,7.73,8.22,14.3,14.5,19.91,9.48,8.46,23.48,9.38,33.75,1.77,5.09-3.77,6.55-11.36,2.92-16.26-3.02-4.07-11.67,8.96-24.19,3.07ZM1368.03,832.71c1.07.01,1.75,1.2,2.18.95,1.94-1.1.24-32.23,1.56-43.11l2.28-18.72,2.95-17.43c.74-4.36,2.94-7.94,2.01-13.27-7.83,4.12-15.5,6.37-23.93,7.48-5.39,27.42-7.28,52.36-6.06,79.47.32,7.09,7.71,4.49,19.01,4.62ZM979.72,939.19l7.41-31.69,21.04-87.44,10.82-43.79-41.57-5.2-66.45-7.81-18.53,77.3-17.93,74.44c-.45,2.3.91,3.6,3.03,4.03l53.81,10.88,48.37,9.28ZM847.63,805.03c-5.52,4.21-33.84,26.43-37.52,18.26-.57-1.27.67-3.02,2.04-3.85,8.62-5.2,17.04-9.91,25.29-15.8,6.83-4.88,17.76-15.62,10.84-22.86-11.37-11.88-40.74,24.66-76.96,17.22-2.39-.49-4.09-1.73-4.85-2.93-3.45-5.45,4.83-12.2,4.91-18.96-9.64.7-17.45,9.4-21.49,17.18s-9.24,15-15.39,21.89c-1.49,1.67-4.02,3.86-4.24,6.31-1.05,11.61.59,40.07,5.3,52.82,33.71-9.94,31.37,1.17,67.37-8.69,7.36-2.02,13.8-4.74,19.69-9.44s11.99-9.26,14.83-16.82c-4.45,1.17-22.46,13.3-22.52,6.16,0-.91,1-2.31,2.29-3.07,7.52-4.45,15.02-8.3,21.89-13.89,13.06-10.63,12.45-26.52,8.52-23.52ZM1151.95,835.07c10.2,10.21,29.14,12.16,39.96,8.6,8.9-2.93,15.84-8.37,23.02-14.05l8.36-6.62c3.7-2.93,13.03-12.02,13.47-15.93l3.43-29.92c-5.12,1.42-6.51,5.57-9.67,8.71l-15.81,15.75c-8.35,8.31-9.49,14.11-14.65,16.77-9.91,5.11-22.01,4.45-33.06,2.24-3.49-.7-9.58.9-8.33,5.01.55,1.8,4.48,2.69,1.97,5.49-.83.92-1.93,2.41-4.36,1.56-1.95-.64-4.57.08-4.34,2.4ZM1107.55,812.57c-6.71-.54-11.6-3.46-12.29-1.64-1.1,2.91,12.22,2.54,12.29,1.64ZM723.05,886.47c2.21-.49,4.1-1.85,3.29-4.54-4.18-13.98-6.21-27.77-6.66-42.14l-.8-25.23-35.67,2.66c-1.01,27.95-.19,50.15,8.96,76.08l30.88-6.83ZM1165.74,863.72c20.66,2.05,27.82-.53,44.19-10.36,4.37-2.62,8.22-5.1,11.89-8.78,10.73-10.76,20.73-12.71,15.08-27.46-27.07,23.51-43.55,45.05-81.46,27.9-3.28-1.48-5.57-4.65-9.29-5.29-2.88-.5-10.21,5.97-15.05,6.94,10.53,9.4,21.95,15.79,34.65,17.06ZM1384.94,850.99c17.74.16,34.78-1.85,52.57-7.85-3.23-10.15-20.31-2.63-33.82-1.58l-23.71,1.84c.91,2.52,2.64,6.27,4.96,7.59ZM1558.52,934.04c2.97-.63,10.63-7.08,11.03-10.03s-.57-4.59-2.05-6.94l-9.14-14.49c-5.88-9.32-11.3-18.38-15.75-28.5l-15.3-34.75c-.86,1.81-5.6,25.74-5.27,27.24,1.49,6.69,4.78,12.63,7.54,19,5.25,12.11,10.65,23.69,18,34.66,2.44,3.64,5.26,6.61,7.02,10.83.59,1.42,1.93,3.4,3.91,2.98ZM1240.3,842.77c-15.19,12.72-19.37,17.16-35.81,26.11,9.75,2.37,17.69,2.77,26.36,3.71,3.54-17.99,16.81-16.58,9.45-29.82ZM1283.87,879.82l-7,7.63c-3.7,4.04-7.19,10.63-5.36,16.65s9.66,7.68,15.23,7.12c23.3-2.35,29.68-16.64,47.33-8.05,5.42-15.34,5.17-34.23-1.28-49.24-1.14-2.65-3.43-4.11-6.21-4.93-15.89-4.67-32.19-5.93-48.63-3.5-19.3,2.86-40.12,18.38-37.41,37.91,10.71-22.81,29.45-22.91,22.83-16.34-5.83,5.79-18.81,18.88-14.52,28.19,2.18,4.72,6.67,7.35,12.38,8.7.93-27.93,30.19-32.36,22.64-24.12ZM1264.33,914.23c-5.74-.5-11.43-1.15-16.15-4.99-8.53-6.96-14.54-16.34-18.22-27.37-17.33-3.62-34.32-4.76-52.11-5.91l-12.4-.8-41.3-3.44-42.68-2.37c-8.91-.49-17.28-1.29-26.41-.84l14.69,53.52c.63,2.3-.43,4.52-1.43,5.44-1.18,1.09-2.87,1.87-4.92,1.45l-42.6-8.67c-8.08-1.64-15.66-3.04-23.66-5.03-1.27-.32-3.78-.57-4.17,1.02l-6.9,27.59c-.77,3.09-3.19,4.18-6.2,3.58l-69.85-14.03-39.42-7.62c-3.16-.61-5.11-3.45-4.34-6.67l11.53-48.17c.32-1.33.07-3.14-1.58-3.07l-54.6,2.29c-15.02,6.32-30.84,10.77-47.53,10.15-11.51-.43-22.08-.29-33.26,2.95-8.61,2.49-.3,9.4-11.72,12.82-7.74,2.32-15.43,3.57-23.36,5.47-46.71,11.21-101.64,14.91-149.76,18.35,5.09,4.61,11.13,6.44,17.38,8.41,48.08,15.2,133.45,23.16,185.58,26.61,134.07,8.89,283.77,8.66,417.41-3.67,41.87-3.86,93.64-10.22,133-21.88,3.07-.91,28.33-9.31,24.15-14.06-4.63-5.26-11.91-6.05-17.79-3.2l-11.18,5.4c-24.14,11.66-38.67-3.16-40.17-3.29ZM1547.59,942.74c2.38-1.52,3.65-3.8,1.92-6.78l-5.41-9.32-7.88-14.26c-5.28-9.56-12.08-24.52-16.87-36.04-5.84,9.41-5.5,16.09-14.72,26.51,6.32,16.42,9.9,22.37,17.65,36.91l5.35,10.04c.91,1.71,2.32,2.52,3.84,2.43,1.92-.1,13.02-7.52,16.11-9.49ZM250.49,1045.23c1.44-11.58,4.73-21.03,9.22-30.39-1.92-.78-3.22-1.07-3.63-1.81-.63-1.14-.4-2.51.2-3.82l4.88-10.65c-12.05-2.7-23.84-6.26-34.53-13.16-19.36-12.5-34.74-28.85-46.03-48.78l-14.56-25.7c-4.31-7.61-7.89-14.61-12.15-22.63-3.87,29.97-1.41,63.48,17.18,86.53,4.56,5.65,12.81,10.45,10.15,16.27-.65,1.41-2.8,1.85-5.51,3.11,7.33,8.87,17.12,14.67,27.24,20.65,2.05,1.21,5.06,3.26,4.16,5.95-1.08,3.21-4.95,2.09-8.11,3.44,14.96,9.22,33.44,18.35,51.49,21.02ZM1522.12,956.68c1.59-1.05-5.19-13.91-5.25-14.02-8.3-14.63-9.14-18.98-17.29-35.08-7.71,5.29-14.76,9.78-24.29,13.23,6.56,18.15,12.11,29.52,18.21,48.27,2.98.7,27.37-11.58,28.62-12.4ZM1378.2,985.15l-7.19-34.34c-1.82-8.71-3.45-16.95-4.58-25.63-.78-5.98-11.55-2.31-18.97-4.68-2,15.17,2.75,19.92-9.26,32.02-3.14,8.81,5.85,19.78,10.33,26.16,3.04,4.33,5.39,8.99,10.2,11.75,4.92-.49,21.16,2.79,19.47-5.29ZM1396.43,926.71c-.88-1.87-6.99-1.17-7.84.52s-1.96,2.82-3.27,2.88c-7.34.32-1.18-9.44-13.27-6.43,3.3,20.89,7.2,40.9,12.58,61.45.79,3.02,1.78,5.14,5.52,4.99,7.9-.31,15.25-.85,23.64-2.14-1.76-7.75-16.1-58.6-17.36-61.26ZM1458.33,980l22.89-5.69c2.53-.63,4.51-1.16,6.87-3.15-5.22-13.6-12.1-34.37-18.81-47.2-1.49-2.85-7.57.35-8.22,2.69-.72,2.56-2.71,3.5-4.06,3.56-1.68.07-3.37-.32-4.42-1.79-2.83-3.98-10.42-1.15-10.21.49.87,6.81,3.3,12.9,5.42,19.28l10.55,31.81ZM554.1,946.14c21.72,15.39,107.22,26.43,137.19,29.53,109.5,11.31,223.49,14.3,333.64,11.27,72.7-2,236.9-9.83,300.01-36.61,11.97-5.08,14.82-12.72,12.57-25.42-3.67.95-5.89,3.5-9.32,5.05-22.23,10.02-57,16.67-81.64,20.29-81.05,11.91-161.15,15.73-242.75,17.65l-13.44.32-111.63-.53c-68.65-.33-173.34-7.77-241.29-18.08-25.91-3.93-65.48-10.65-88.54-24.18-1.56,7.86-1.7,15.83,5.2,20.72ZM1443.64,983.11c2.51-.47,6.66-1.32,7.39-3.41l-14.11-46.55c-.65-2.13-1.38-5.66-4.23-5.72l-23.3-.55c-7.19-.17-3.51,8.72-1.65,15.81l6.58,25.18c1.41,5.4,3.45,10.41,4.62,15.87.73,3.42,3.71,3.28,6.45,2.77l18.25-3.39ZM569.04,1028.2c1.82,2.24,3.66,1.01,4.97-.42l19.05-20.77,3.9-37.15-35.22-9.8c-1.76.21-1.64,4.23-1.88,5.64l-5.65,32.2c-.75,4.26,7.9,18.52,10.34,21.92,1.81,2.51,2.3,5.68,4.48,8.38ZM1319.52,984.22c2.53-2,12.46-19.33,8.12-23.35-.75-2.47-17.17,3.6-19.17,4.71-.07,7.09-.52,12.87.35,19.71,3.35.12,7.79,1.23,10.7-1.07ZM1303.06,967.69c-.59-1.55-3.54-.35-4.11.31-1.91,2.24-.33,8.19,0,14.48.09,1.83,2.6,1.83,3.5,1.51,2.38-.85,1.43-14.14.61-16.3ZM1295.03,982.51l-.13-11.72c-3.93-1.72-8.05-.91-11.02,2.03-.11,2.91-.3,5.13.78,7.58,3.45,1.45,6.46,2.81,10.37,2.12Z"/><path class="cls-2" d="M596.68,455.82l-15.7,11.55c-7.38,5.43-1.41-15.27,25.48-23.09,13.19-3.84,37.26-4.47,46.95,9.62-5.1,1.65-8.95-1.51-13.61-2.74-14.22-3.76-30.8-4.4-43.12,4.66Z"/><path class="cls-2" d="M459.07,1080.33h-3.42c-31.39-45.4,5.48-17.5,3.42,0Z"/><path class="cls-3" d="M497.09,691.92c-5.61-10.21-11.55-21.14-18.34-30.59,2.23-9.74-11.86-24.79-20.37-29.05-11.83-5.92-24.57-8.36-37.77-5.92-3.62.67-6.61,2.44-9.89,3.75-7.86,3.14-13.55,8.08-18.54,14.77-2.43,3.25-5.33,5.92-7.19,9.79l-9.34,19.41c-15.26,31.74-24.53,95.94,5.25,125.49,10.4,10.32,24.2,14.15,38.86,11.01,2.83.95,4.28,5.28,5.97,7.57,5.84,7.91,10.45,15.94,15.82,24.11l10.92,16.6c6.04,9.19,12.67,17.56,19.11,26.43,7.23,9.96,15.42,18.35,25.89,25.05,15.48,9.9,41.26,10.59,42.27,11.02,3.27,1.38-5.85,21.53,9.46,32.28,1.17,4.61-7.1,39.46-8.05,41.72-1.07,2.53-16.98,15.29-20.35,18.07l-11.09,9.16c-2.13,1.76-4.17,3.1-6.4,4.83l-7.73,6.02c-1.59,1.23-4.39,3.28-6.71,2.44l-28.16-10.19-12.41-4.48-28.65-10.83-30.19-11.48-30.32-12.16-33.61-13.62-38.06-16.89c-1.82-.81-6.51-3.06-6.22-5.33.83-6.55,2.42-12.65,3.89-18.99l5.52-23.65,4.31-19.12,7.28-31.1,6.98-27.55,2.31-8.92,9.28-31.74,6.21-20.09,6.74-19.18,4.91-13.11c4.04-10.81,7.96-21.06,12.46-31.66l10.68-25.17c9.27-21.83,20.51-41.99,33-62.11,2.31-3.72,3.44-8.01,6.46-11.07,2.34-2.37,3.18-5.16,5.12-7.9,3.89-5.51,8.85-11.79,12.25-17.59.75-1.29,3.63-5.32,5.25-4.35,16.03,9.57,29.52,21.6,43.26,33.81,6.09,5.41,6.94,7.42,13.01,13.27,11.88,11.45,23.54,24.85,33.35,38.1,1.84,2.48,3.92,4.4,5.7,6.93l6.26,8.85,14.8,21.09c1.72,2.46,3.35,4.6,5.04,7.18l25.59,39.19c2.13,3.27,3.41,6.59,5.86,9.65,1.68,2.09,3.12,4.85,3.04,7.79-.22,7.99.14,15.58-.5,23.49s-1.03,15.18-1.08,23.15c-5.6.72-10.62.75-16.33.11l-15.59-30.12-4.1-8.16-9.43-18.18-20.02-38.8c-2.47-4.79-11.46-23.01-15.66-23.03Z"/><path class="cls-3" d="M590.07,803.86l1.65-21.02.6-21.95c-.01.4,8.62-20.44,9.55-23.06l5.88-16.53,5.83-18.62c3.45-11.01,7.2-41.13,6.44-52.31,6.47,13.46,6.53,56.84,5.84,71.28l-1.44,29.99-4.6,46.25c-.43,4.3-.13,8.16-2.28,12.12-8.87-.04-17.63.77-26.52-.13-2.35-.24-1.1-4.17-.96-6.01Z"/><path class="cls-3" d="M569.04,1028.2c-2.18-2.69-2.68-5.87-4.48-8.38-2.44-3.39-11.09-17.65-10.34-21.92l5.65-32.2c.25-1.41.13-5.43,1.88-5.64l35.22,9.8-3.9,37.15-19.05,20.77c-1.31,1.43-3.16,2.66-4.97.42Z"/><path class="cls-3" d="M857.52,801.59c-2.48-7.24,3.05-13.47.06-21.11-1.96-5.01-6.81-9.87-12.26-10.75-7.21-1.17-14,1.44-20.18,4.68-6.34,3.32-29.03,16.06-32.95,11.59-.55-.63-.13-2.48.29-3.78l18.61-58.33c4.08-12.79,7.82-24.9,12.7-37.36,2.41-6.15,3.67-12.89,8.37-17.84,5.23-5.51,36.67-9.15,46.03-10.63l23.78-3.78c3.23-.51,8.34-1.59,10.72,1.3s-.61,7.42-1.67,10.72l-26.79,83.18-3.82,13.28-10.05,30.84c-4.73,14.5-4.46,21.49-16.07,32.21-.4-8.28,7.39-12.07,3.23-24.21ZM843.71,686.55c3.76-5.24,4.22-10.8.92-15.67-4.13-2.7-8.83-1.48-11.86,2.63-3.28,4.44-4.16,11.71.19,15.88,3.38,3.24,8.28.6,10.76-2.84Z"/><path class="cls-3" d="M790.56,762.3c-1.36,4.41-7.43,25.05-9.79,25.65-1.25-3.27-.76-6.85.42-10.51l7.72-23.98,14.15-45.32,10.83-32.98c6.8-20.7,11.14-16.27,28.59-22.12,2.99-1,5.7-.8,8.75-1.33l9.34-1.61,8.25-1.36c3.4-.56,35.6-4.46,34.02-5.01.7.25,1.81,1.17,2.12,2.71-6.44-.69-11.82.92-17.97,1.98l-11,1.89c-2.98.51-5.57.68-8.55,1.18l-8.29,1.4c-30.36,5.11-34.81,4.9-44.45,34.44l-18.26,55.94-5.88,19.02Z"/><path class="cls-2" d="M843.71,686.55c-2.47,3.45-7.38,6.08-10.76,2.84-4.35-4.17-3.46-11.44-.19-15.88,3.03-4.11,7.73-5.33,11.86-2.63,3.3,4.87,2.84,10.43-.92,15.67Z"/><path class="cls-3" d="M444.75,320.29c-4.96-3.21-3.65-14-5.15-18.77-.93-2.96.59-5.64,3.62-6.41,3.94-1,7.04-3.22,10.65-4.7l30.22-12.42c37.32-15.34,88.17-28.88,128.69-32.51l11.03-.99c8.32-.75,16.35-.3,24.65.1,3.31.16,6.1,2.07,7.28,5.06,5.32,13.5,14.77,22.45,5.16,23.28-50.56,4.41-99.81,12.4-148.38,26.74l-43.6,12.87-24.17,7.74Z"/><path class="cls-3" d="M678.91,553.82c2.51,3.66,5.12,9.28,3.51,13.97-1.92,5.59-8.69,7.47-13.85,8.77-12.29,3.09-25.66-3.72-33.89-11.49l-12.64-11.94c-1.64-2.22-4-4.11-3.42-7.81,11.99,5.24,23.52,8.36,36.08,9.71,6.7.72,6.75,8.17,12.52,12.93,3.52-4.44-1.87-10.61-.22-13.22,3.41-1.15,6.5-.23,11.92-.92Z"/><path class="cls-2" d="M597.36,395.37l1.12-1.16c.79.44,2.7,1.05,2.67,3.24-.98.93-3.35-.79-3.79-2.08Z"/><path class="cls-2" d="M489.36,498.21c1.89,2.27,8.93,11.54,3.98,12.75-7.03,1.71-29.1-31.93-16.98-40.86,5.11,12.39,3.4,16.58,13,28.12Z"/><path class="cls-2" d="M977.18,924.29c-1.06,4.45-4.75,7.19-8.99,6.31l-80.9-16.72c-3.29-.68-5.82-3.69-4.98-7.19l10.76-44.85,20.75-86.19c.96-3.99,5.7-5.45,9.05-5.02l80.12,10.39c2.08.27,3.67,1.16,4.57,1.96,1.64,1.46,1.77,4.35,1.2,6.8l-19.83,85.2-11.73,49.32ZM980.01,882.96l21.82-91.81c.51-2.15-1.13-3.34-2.91-3.56l-78.1-9.81-31.09,128.89,74.41,15.39c1.39.29,6.2,1.34,6.64-.51l9.23-38.6Z"/><path class="cls-2" d="M932.04,867.83c3.13,4.94,8.99,5.38,13.28,2.88,3.66-2.13,6.23-7.56,4.05-12.21-2.75-5.87-13.97-3.59-13.93-6.84.06-4.25,1.39-8.26,2.87-12.2,1.25-3.33,10.96,3.65,15.95-3.94,2.08-3.16,3.23-8.05.13-11.21-3.43-3.5-9.47-2.48-12.21,1.29-3.85,5.3-9.19,2.03-17.89.91,1.61-7.51,7.3-13.93,14.97-16.31,10.41-3.23,27.72-1.72,32.66,10.23,4.57,11.03-.6,22.21-11.47,27.72,4.58,5.32,5.79,10.1,5.71,15.93-.16,11.56-7.61,20.92-19.05,22.94-7.17,1.27-14.48.26-21.1-2.8-9.17-4.25-13.93-13.83-11.3-23.57,21.33-.05,14.8,3.17,17.34,7.19Z"/><rect class="cls-2" x="1724.33" y="105.32" width="14.51" height="4.75" rx="2.37" ry="2.37" transform="translate(2874.69 1412.8) rotate(-134.77)"/><rect class="cls-2" x="1795.78" y="105.32" width="14.51" height="4.75" rx="2.37" ry="2.37" transform="translate(3149.36 -1096.44) rotate(134.77)"/><rect class="cls-2" x="1724.33" y="175.24" width="14.51" height="4.75" rx="2.37" ry="2.37" transform="translate(385.94 1281.78) rotate(-45.23)"/><rect class="cls-2" x="1795.78" y="175.24" width="14.51" height="4.75" rx="2.37" ry="2.37" transform="translate(659.25 -1227.46) rotate(45.23)"/><rect class="cls-2" x="1810.82" y="140" width="14.51" height="4.75" rx="2.37" ry="2.37" transform="translate(.58 -7.21) rotate(.23)"/><rect class="cls-2" x="1709.25" y="140" width="14.51" height="4.75" rx="2.37" ry="2.37" transform="translate(.58 -6.8) rotate(.23)"/><path class="cls-2" d="M1832.96,445.09l-22.72-14.35h-13.96c-7.48,0-13.57-6.09-13.57-13.57v-16.79c0-7.48,6.09-13.57,13.57-13.57h33.78c7.48,0,13.57,6.09,13.57,13.57v16.79c0,6.51-4.53,11.93-10.67,13.25v14.67ZM1796.28,391.81c-4.73,0-8.57,3.85-8.57,8.57v16.79c0,4.73,3.85,8.57,8.57,8.57h15.41l16.27,10.28v-10.21l2.41-.09c4.63-.17,8.26-3.92,8.26-8.56v-16.79c0-4.73-3.85-8.57-8.57-8.57h-33.78Z"/><path class="cls-3" d="M1805.53,373.66h-33.78c-6.12,0-11.07,4.96-11.07,11.07v16.79c0,5.98,4.75,10.84,10.67,11.05v12.33l19.5-12.31h14.68c6.12,0,11.07-4.96,11.07-11.07v-16.79c0-6.12-4.96-11.07-11.07-11.07Z"/><path class="cls-2" d="M1768.85,429.44v-14.67c-6.15-1.32-10.67-6.74-10.67-13.25v-16.79c0-7.48,6.09-13.57,13.57-13.57h33.78c7.48,0,13.57,6.09,13.57,13.57v16.79c0,7.48-6.09,13.57-13.57,13.57h-13.96l-22.72,14.35ZM1771.75,376.16c-4.73,0-8.57,3.85-8.57,8.57v16.79c0,4.63,3.63,8.39,8.26,8.55l2.41.09v10.21l16.27-10.28h15.41c4.73,0,8.57-3.85,8.57-8.57v-16.79c0-4.73-3.85-8.57-8.57-8.57h-33.78Z"/><circle class="cls-2" cx="1775.93" cy="392.83" r="3.86"/><circle class="cls-2" cx="1788.67" cy="393.12" r="3.9"/><circle class="cls-2" cx="1801.48" cy="392.9" r="3.73"/><path class="cls-2" d="M226.73,141.44c0,50.43-40.9,91.3-91.36,91.3s-91.36-40.88-91.36-91.3,40.9-91.3,91.36-91.3,91.36,40.88,91.36,91.3ZM219.53,141.42c0-46.43-37.66-84.08-84.13-84.08s-84.13,37.64-84.13,84.08,37.66,84.08,84.13,84.08,84.13-37.64,84.13-84.08Z"/><path class="cls-2" d="M148.82,181.1c-8.95.33-17.35.51-26.26-.07-7.03-.45.21-5.55-9.35-19.05-3.94-5.57-8-10.99-10.01-17.47-4.6-14.85.47-29.53,12.94-38.35,13.3-9.41,30.18-8.78,42.55,1.97,10.87,9.45,14.54,24.01,9.26,37.56-2.08,5.34-5.28,9.98-8.65,14.67-9.69,13.48-2.2,20.43-10.48,20.73ZM147.38,145.71c-2.76,8.97-4.42,17.83-5.27,27.62-.16,1.88,3.48,1.95,4.56,1.34,2.34-1.33,1.41-7.33,4.35-11.88l9.68-14.98c4.39-6.79,4.68-18.35,1.19-26.07-5.44-12.05-18.68-18.22-31.6-15.4-15.77,3.44-26.23,18.53-22.25,34.6,3.88,15.68,15.1,19.31,16.46,34.23,11.17,6.58-.33-28.82-1.77-35.26-.38-1.69,3.91-1.39,4.93-.8,10.25,5.96,15.13-1.48,21.17-.71.53,3.13-.71,4.93-1.45,7.33ZM137.38,173.22c.27-9.72,2.86-17.98,4.49-27.27l-12.71-.25c1.71,9.11,4.84,16.92,4.47,26.05-.07,1.79.39,3.06,1.83,3.01.61-.02,1.09-.23,1.91-1.54Z"/><path class="cls-2" d="M148.12,195.45c1.19,0,1.9,1.35,1.2,2.32-1.37,1.89-3.24,3.89-3.88,4.85-4.27,6.42-12.56,7.37-17.01,1.97l-5.6-6.77s0-.01-.01-.02c-.76-.94-.03-2.35,1.18-2.35h24.12Z"/><rect class="cls-2" x="120.3" y="184.81" width="31.85" height="7.04" rx="3.52" ry="3.52"/><rect class="cls-2" x="128.44" y="81.08" width="14.51" height="4.75" rx="2.37" ry="2.37" transform="translate(51.7 218.81) rotate(-89.77)"/><path class="cls-3" d="M147.38,145.71c.74-2.4,1.98-4.2,1.45-7.33-6.04-.77-10.92,6.67-21.17.71-1.02-.59-5.3-.89-4.93.8,1.44,6.44,12.94,41.84,1.77,35.26-1.36-14.92-12.58-18.55-16.46-34.23-3.98-16.07,6.48-31.16,22.25-34.6,12.92-2.82,26.17,3.35,31.6,15.4,3.49,7.72,3.2,19.28-1.19,26.07l-9.68,14.98c-2.94,4.56-2.01,10.55-4.35,11.88-1.08.61-4.72.54-4.56-1.34.85-9.79,2.51-18.65,5.27-27.62Z"/><path class="cls-3" d="M137.38,173.22c-.82,1.31-1.3,1.52-1.91,1.54-1.45.05-1.91-1.23-1.83-3.01.37-9.12-2.75-16.94-4.47-26.05l12.71.25c-1.64,9.28-4.22,17.55-4.49,27.27Z"/><rect class="cls-2" x="92.88" y="96.23" width="14.51" height="4.75" rx="2.37" ry="2.37" transform="translate(100.66 239.14) rotate(-134.77)"/><rect class="cls-2" x="164.33" y="96.23" width="14.51" height="4.75" rx="2.37" ry="2.37" transform="translate(362.44 46.24) rotate(134.77)"/><rect class="cls-2" x="92.88" y="166.16" width="14.51" height="4.75" rx="2.37" ry="2.37" transform="translate(-90.03 120.92) rotate(-45.23)"/><rect class="cls-2" x="164.33" y="166.16" width="14.51" height="4.75" rx="2.37" ry="2.37" transform="translate(170.38 -71.98) rotate(45.23)"/><rect class="cls-2" x="179.37" y="130.91" width="14.51" height="4.75" rx="2.37" ry="2.37" transform="translate(.53 -.74) rotate(.23)"/><rect class="cls-2" x="77.8" y="130.91" width="14.51" height="4.75" rx="2.37" ry="2.37" transform="translate(.53 -.34) rotate(.23)"/><path class="cls-2" d="M405.17,160.23c0,37.79-30.66,68.43-68.47,68.43s-68.47-30.64-68.47-68.43,30.66-68.43,68.47-68.43,68.47,30.64,68.47,68.43ZM398.18,160.16c0-33.95-27.54-61.47-61.5-61.47s-61.5,27.52-61.5,61.47,27.54,61.47,61.5,61.47,61.5-27.52,61.5-61.47Z"/><path class="cls-2" d="M370.21,200.91l-22.72-14.35h-13.96c-7.48,0-13.57-6.09-13.57-13.57v-16.79c0-7.48,6.09-13.57,13.57-13.57h33.78c7.48,0,13.57,6.09,13.57,13.57v16.79c0,6.51-4.53,11.93-10.67,13.25v14.67ZM333.53,147.63c-4.73,0-8.57,3.85-8.57,8.57v16.79c0,4.73,3.85,8.57,8.57,8.57h15.41l16.27,10.28v-10.21l2.41-.09c4.63-.17,8.26-3.92,8.26-8.56v-16.79c0-4.73-3.85-8.57-8.57-8.57h-33.78Z"/><path class="cls-3" d="M342.77,129.48h-33.78c-6.12,0-11.07,4.96-11.07,11.07v16.79c0,5.98,4.75,10.84,10.67,11.05v12.33l19.5-12.31h14.68c6.12,0,11.07-4.96,11.07-11.07v-16.79c0-6.12-4.96-11.07-11.07-11.07Z"/><path class="cls-2" d="M306.1,185.26v-14.67c-6.15-1.32-10.67-6.74-10.67-13.25v-16.79c0-7.48,6.09-13.57,13.57-13.57h33.78c7.48,0,13.57,6.09,13.57,13.57v16.79c0,7.48-6.09,13.57-13.57,13.57h-13.96l-22.72,14.35ZM309,131.98c-4.73,0-8.57,3.85-8.57,8.57v16.79c0,4.63,3.63,8.39,8.26,8.55l2.41.09v10.21l16.27-10.28h15.41c4.73,0,8.57-3.85,8.57-8.57v-16.79c0-4.73-3.85-8.57-8.57-8.57h-33.78Z"/><circle class="cls-2" cx="313.18" cy="148.65" r="3.86"/><circle class="cls-2" cx="325.91" cy="148.95" r="3.9"/><circle class="cls-2" cx="338.73" cy="148.73" r="3.73"/><path class="cls-2" d="M197.04,577.08l-8.77-19.7-9.64-20.23c-4.18-8.77-19.25,11.21-24.93,10.17-6.88-1.27-13.55-2.39-20.6-2.99-5.24-.45-9.99,1.25-15.13,1.37l-20.79.5c-2.2-5.81-8.73-7.52-15.66-10.79-1.69-.8-3.87.27-4.67,1.93l-19.77,41.17c-1.19,2.48-.36,4.7,2.15,6,3.95,2.03,7.5,4.7,12.11,6,2.23.62,7.49-.2,7.79,3.26.51,5.75,2.67,8.94,7.4,12.16,2.15,1.47,2.33,5.62,5.21,6.82,1.86.78,4.42,1.08,5.61,2.97,4.8,7.61,8.56,3.37,12.97,7.36,4.02,3.62,9.44,4.38,14.13,1.57,4.37-2.63,8.59,5.85,15.83-.51,5.99-5.26,10.63-.05,13.55-7.98,1.89-5.1,6.61-2.09,9.7-8.29,4.07-8.2,6.86.4,10.35-14.76.39-1.67,28.4-4.27,23.16-16.03ZM89.29,598.42c-1.63,0-2.95-1.32-2.95-2.95s1.32-2.94,2.95-2.94,2.95,1.32,2.95,2.94-1.32,2.95-2.95,2.95ZM93.77,604.43l8.69-8.1c1.11-1.04,2.86-.97,3.88-.27,1.07.73,1.63,2.7.23,4.19-1.76,1.88-11.57,11.6-12.8,4.18ZM105.01,613.9c-4.29-1.51,7.77-13.28,9.73-9.52,1.65,3.14-5.45,11.03-9.73,9.52ZM117.94,620.48c-1.69,0-3.05-1.37-3.05-3.05s1.36-3.04,3.05-3.04,3.04,1.36,3.04,3.04-1.36,3.05-3.04,3.05ZM165.98,597.93c-2.54,1.09-5.12.34-7.29-1.05l-16.02-10.34c-1.4-.9-3,.21-3.56.95-2.31,3.05,13.73,12.46,18.75,16.11,2.12,1.54-2.76,8.72-20.23-6.27-1.35-1.15-2.76-1.37-3.72-.8-7.85,4.6,17,13.13,14.47,17.66-1.43,2.54-5.14,1.56-7,.22l-12.72-9.21c-1.32-.95-2.94-.41-3.69.64-2.38,3.3,12.42,10.84,11.23,13.38-2.14,4.61-9.62-5.16-11.09-6.54-6.58-6.18.53-14.12-12.44-15.32-.68-5.57-5.41-8.67-10.81-7.23-1.62.43-3.87,1.47-5.2.06-6.71-7.15-12.69-1.02-14.62-2.59-3.6-2.95,9.55-28.72,11.54-34.77,4.53-1.19,8.48-1.59,14.32-1.05.72,4.52-10.26,7.86-6.58,16.54,3.95,9.36,18.44,2.75,25.64-1.21,1.9-1.05,3.94-.56,5.62.71,10.89,8.29,21.55,15.95,32.86,23.57,1.29.88,1.91,2.17,2.12,3.01.28,1.08-.11,2.9-1.58,3.53ZM167.41,584.74l-33.35-23.77c-8.25-5.88-18.56,7.88-26.11,6.39-5.84-1.16,7.15-13.69,9.22-15.6,9.53-1.73,18.74-1.61,28.33.34,12.7,2.59,14.59-.43,17.31,5.27l13.46,28.22c-2.48,1.11-5.94,1.23-8.86-.85ZM182.43,584.27c-5.07-8.36-8.89-17.82-13.27-26.37-1.88-3.66-3.75-6.69-4.26-10.7,2.81-2.27,4.76-4.68,8.41-5.99,5.02,7.66,8.36,17.03,11.79,24.09l7.09,14.58c-1.72,3.04-6.49,5.11-9.76,4.39Z"/><path class="cls-3" d="M192.19,579.88c-1.72,3.04-6.49,5.11-9.76,4.39-5.07-8.36-8.89-17.82-13.27-26.37-1.88-3.66-3.75-6.69-4.26-10.7,2.81-2.27,4.76-4.68,8.41-5.99,5.02,7.66,8.36,17.03,11.79,24.09l7.09,14.58Z"/><path class="cls-2" d="M1701.5,558.51l-.11-9.84c-.16-14.04-38.86-17.57-53.11-6.79-1.5,1.13-3.69,3.4-3.69,5.48l-.03,44.77c0,1.89,1.67,4.05,3,5.19,9.4,8.03,29.73,8.09,41.18,4.91,2.29,2.67,4.91,4.42,8.11,5.64,11.62,4.5,28.51,4.42,40.05-.68,3.4-1.5,5.85-3.89,7.56-6.92v-32.65c-6.35-11.96-31.17-12.01-42.96-9.12ZM1702.3,563.42c9.66-2.37,19.76-2.37,29.27.53,2.55.77,7.93,3.12,8.04,5.81.03.72-.67,2.15-1.32,2.64-9,6.81-25.67,6.63-36.29,3.9-2.91-.74-9.74-3.54-9.53-6.52.21-2.95,6.86-5.63,9.83-6.36ZM1658.04,542.42c9.53-2.64,19.56-2.73,29.12-.17,2.85.77,9.82,3.54,9.32,6.63-.1.6-.77,1.76-1.33,2.19-12.96,9.88-44.17,5.4-45.76-2.17-.6-2.86,5.89-5.72,8.64-6.48ZM1649.69,592.38c-.63-2.2-.31-5.47-.25-7.8,10.88,6,25.95,6.32,38.13,3.59l.08,9.27c-9.45,3.1-31.7,3.02-37.96-5.06ZM1657.74,582.83c-2.94-.9-6.6-2.17-7.97-5.02-.92-1.93-.29-5-.34-7.27,11.37,5.88,25.65,6.32,38.12,3.51l.12,9.03c-10.02,2.53-20.16,2.71-29.93-.25ZM1687.49,569.05c-9.93,2.35-19.99,2.65-29.72-.33-2.92-.9-6.5-2.15-7.98-4.89-1.02-1.89-.27-5.08-.37-7.41,12.85,6.76,33.66,7.1,47.02-.03l-.04,3.96c-4.4,1.8-7.67,4.26-8.92,8.7ZM1739.39,598.69c-.44,2.24-3.48,3.8-5.59,4.58-10.94,4.03-23.06,4.03-34.18.5-2.49-.79-5.76-2.26-6.74-4.66-.89-2.17-.29-5.23-.26-7.33,12.58,7.12,34.68,6.92,46.99,0,.05,2.18.27,4.51-.21,6.92ZM1739.36,584.67c-.57,2.35-3.83,3.92-6.08,4.69-11.29,3.9-23.78,3.83-34.98-.21-2.03-.72-4.7-2.3-5.43-4.22-.82-2.18-.32-5.08-.27-7.26,12.81,7.14,34.44,6.84,47.02.04.03,2.17.32,4.61-.26,6.95Z"/><path class="cls-3" d="M1696.49,548.88c-.1.6-.77,1.76-1.33,2.19-12.96,9.88-44.17,5.4-45.76-2.17-.6-2.86,5.89-5.72,8.64-6.48,9.53-2.64,19.56-2.73,29.12-.17,2.85.77,9.82,3.54,9.32,6.63Z"/><path class="cls-3" d="M1696.45,556.39l-.04,3.96c-4.4,1.8-7.67,4.26-8.92,8.7-9.93,2.35-19.99,2.65-29.72-.33-2.92-.9-6.5-2.15-7.98-4.89-1.02-1.89-.27-5.08-.37-7.41,12.85,6.76,33.66,7.1,47.02-.03Z"/><path class="cls-3" d="M1687.65,597.44c-9.45,3.1-31.7,3.02-37.96-5.06-.63-2.2-.31-5.47-.25-7.8,10.88,6,25.95,6.32,38.13,3.59l.08,9.27Z"/><path class="cls-3" d="M1687.66,583.08c-10.02,2.53-20.16,2.71-29.93-.25-2.94-.9-6.6-2.17-7.97-5.02-.92-1.93-.29-5-.34-7.27,11.37,5.88,25.65,6.32,38.12,3.51l.12,9.03Z"/><path class="cls-2" d="M265.92,356.61l-.12-10.95c-.18-15.64-43.26-19.57-59.13-7.57-1.67,1.26-4.11,3.79-4.11,6.11l-.04,49.85c0,2.11,1.86,4.51,3.34,5.78,10.47,8.94,33.1,9.01,45.85,5.47,2.55,2.98,5.47,4.92,9.02,6.28,12.94,5.01,31.74,4.92,44.59-.75,3.79-1.67,6.52-4.33,8.41-7.71v-36.35c-7.07-13.32-34.71-13.38-47.83-10.15ZM266.82,362.07c10.75-2.64,22-2.64,32.59.59,2.84.86,8.82,3.47,8.95,6.47.04.8-.74,2.39-1.47,2.94-10.02,7.58-28.58,7.38-40.4,4.34-3.24-.82-10.85-3.94-10.61-7.26.24-3.28,7.64-6.27,10.94-7.08ZM217.55,338.69c10.61-2.94,21.78-3.04,32.43-.19,3.18.86,10.93,3.94,10.38,7.38-.11.67-.86,1.96-1.48,2.44-14.42,11-49.18,6.01-50.94-2.41-.67-3.19,6.55-6.37,9.62-7.21ZM208.25,394.32c-.71-2.45-.34-6.09-.28-8.68,12.12,6.68,28.9,7.04,42.45,4l.09,10.32c-10.52,3.45-35.3,3.36-42.26-5.64ZM217.2,383.68c-3.27-1-7.35-2.41-8.87-5.59-1.02-2.15-.32-5.57-.38-8.09,12.66,6.54,28.55,7.04,42.44,3.91l.13,10.06c-11.15,2.81-22.45,3.01-33.32-.28ZM250.34,368.34c-11.06,2.61-22.26,2.95-33.08-.36-3.25-1-7.24-2.39-8.88-5.45-1.14-2.11-.31-5.66-.41-8.25,14.31,7.53,37.47,7.91,52.36-.04l-.05,4.41c-4.89,2-8.54,4.74-9.93,9.68ZM308.12,401.34c-.49,2.49-3.87,4.24-6.22,5.09-12.18,4.48-25.67,4.48-38.06.55-2.78-.88-6.41-2.52-7.51-5.19-.99-2.41-.32-5.82-.29-8.17,14,7.93,38.61,7.71,52.32,0,.06,2.42.31,5.02-.24,7.71ZM308.08,385.73c-.64,2.61-4.26,4.36-6.77,5.22-12.57,4.34-26.47,4.26-38.94-.24-2.26-.8-5.24-2.56-6.05-4.69-.92-2.42-.35-5.66-.31-8.08,14.26,7.95,38.34,7.61,52.36.05.04,2.41.35,5.13-.29,7.74Z"/><path class="cls-3" d="M260.35,345.88c-.11.67-.86,1.96-1.48,2.44-14.42,11-49.18,6.01-50.94-2.41-.67-3.19,6.55-6.37,9.62-7.21,10.61-2.94,21.78-3.04,32.43-.19,3.18.86,10.93,3.94,10.38,7.38Z"/><path class="cls-3" d="M260.31,354.25l-.05,4.41c-4.89,2-8.54,4.74-9.93,9.68-11.06,2.61-22.26,2.95-33.08-.36-3.25-1-7.24-2.39-8.88-5.45-1.14-2.11-.31-5.66-.41-8.25,14.31,7.53,37.47,7.91,52.36-.04Z"/><path class="cls-3" d="M250.51,399.96c-10.52,3.45-35.3,3.36-42.26-5.64-.71-2.45-.34-6.09-.28-8.68,12.12,6.68,28.9,7.04,42.45,4l.09,10.32Z"/><path class="cls-3" d="M250.52,383.97c-11.15,2.81-22.45,3.01-33.32-.28-3.27-1-7.35-2.41-8.87-5.59-1.02-2.15-.32-5.57-.38-8.09,12.66,6.54,28.55,7.04,42.44,3.91l.13,10.06Z"/><rect class="cls-3" x="794.66" y="277.35" width="12.11" height="12.11" rx="4" ry="4"/><rect class="cls-2" x="794.66" y="301.56" width="12.11" height="12.11" rx="4" ry="4"/><path class="cls-2" d="M818.87,265.25h56.52c2.21,0,4-1.79,4-4v-8.1h0v-68.63c0-2.21-1.79-4-4-4h-76.74c-2.21,0-4,1.79-4,4v68.63h0v8.11c0,2.21,1.79,4,4,4h20.21ZM806.77,196.62c0-2.21,1.79-4,4-4h52.52c2.21,0,4,1.79,4,4v52.52c0,2.21-1.79,4-4,4h-52.52c-2.21,0-4-1.79-4-4v-52.52Z"/><rect class="cls-3" x="806.77" y="289.46" width="12.11" height="12.11" rx="4" ry="4"/><rect class="cls-3" x="818.87" y="374.2" width="12.11" height="12.11" rx="4" ry="4"/><path class="cls-3" d="M843.09,241.04h8.11c2.21,0,4-1.79,4-4v-28.32c0-2.21-1.79-4-4-4h-28.32c-2.21,0-4,1.79-4,4v28.32c0,2.21,1.79,4,4,4h20.21Z"/><path class="cls-3" d="M843.09,458.94h8.11c2.21,0,4-1.79,4-4v-28.32c0-2.21-1.79-4-4-4h-28.32c-2.21,0-4,1.79-4,4v28.32c0,2.21,1.79,4,4,4h20.21Z"/><path class="cls-2" d="M855.19,313.67h20.21c2.21,0,4-1.79,4-4v-4.11c0-2.21-1.79-4-4-4h-8.11s-12.1,0-12.1,0h-20.21c-2.21,0-4,1.79-4,4v4.11c0,2.21,1.79,4,4,4h8.11s12.1,0,12.1,0Z"/><path class="cls-2" d="M794.66,402.41v76.73c0,2.21,1.79,4,4,4h76.74c2.21,0,4-1.79,4-4v-76.73c0-2.21-1.79-4-4-4h-76.74c-2.21,0-4,1.79-4,4ZM863.29,471.04h-52.52c-2.21,0-4-1.79-4-4v-52.53c0-2.21,1.79-4,4-4h52.52c2.21,0,4,1.79,4,4v52.53c0,2.21-1.79,4-4,4Z"/><path class="cls-2" d="M879.4,358.09v-4.11c0-2.21-1.79-4-4-4h-8.11s-8.1,0-8.1,0c-2.21,0-4-1.79-4-4v-4.11c0-2.21,1.79-4,4-4h8.1s8.11,0,8.11,0c2.21,0,4-1.79,4-4v-4.11c0-2.21-1.79-4-4-4h-8.11s-8.11,0-8.11,0c-2.21,0-4,1.79-4,4v4.11c0,2.21-1.79,4-4,4h-4.1c-2.21,0-4-1.79-4-4v-4.11c0-2.21-1.79-4-4-4h-4.11c-2.21,0-4-1.79-4-4v-4.11c0-2.21-1.79-4-4-4h-8.11s-8.11,0-8.11,0c-2.21,0-4,1.79-4,4v4.11c0,2.21-1.79,4-4,4h-4.11c-2.21,0-4,1.79-4,4v52.53c0,2.21,1.79,4,4,4h4.11c2.21,0,4-1.79,4-4v-16.21c0-2.21,1.79-4,4-4h16.21c2.21,0,4,1.79,4,4v4.11c0,2.21,1.79,4,4,4h4.11c2.21,0,4,1.79,4,4v4.11c0,2.21,1.79,4,4,4h4.11c2.21,0,4-1.79,4-4v-4.11c0-2.21,1.79-4,4-4h4.1c2.21,0,4-1.79,4-4v-4.11c0-2.21,1.79-4,4-4h4.11c2.21,0,4-1.79,4-4ZM826.98,349.99h-4.11c-2.21,0-4-1.79-4-4v-4.11c0-2.21,1.79-4,4-4h4.11c2.21,0,4,1.79,4,4v4.11c0,2.21-1.79,4-4,4ZM847.09,349.99h4.1c2.21,0,4,1.79,4,4v4.11c0,2.21-1.79,4-4,4h-4.1c-2.21,0-4-1.79-4-4v-4.11c0-2.21,1.79-4,4-4Z"/><path class="cls-2" d="M907.61,204.72h4.11c2.21,0,4-1.79,4-4v-4.11c0-2.21,1.79-4,4-4h8.11s8.11,0,8.11,0c2.21,0,4-1.79,4-4v-4.11c0-2.21-1.79-4-4-4h-8.11s-12.11,0-12.11,0h-20.21c-2.21,0-4,1.79-4,4v28.32c0,2.21,1.79,4,4,4h4.11c2.21,0,4-1.79,4-4v-4.11c0-2.21,1.79-4,4-4Z"/><path class="cls-3" d="M891.5,475.04v4.11c0,2.21,1.79,4,4,4h8.11s8.11,0,8.11,0c2.21,0,4-1.79,4-4v-4.11c0-2.21-1.79-4-4-4h-8.11s-8.11,0-8.11,0c-2.21,0-4,1.79-4,4Z"/><path class="cls-2" d="M915.72,249.14v-16.21c0-2.21-1.79-4-4-4h-16.21c-2.21,0-4,1.79-4,4v4.11c0,2.21,1.79,4,4,4h4.11c2.21,0,4,1.79,4,4v4.1c0,2.21-1.79,4-4,4h-4.11c-2.21,0-4,1.79-4,4v4.11c0,2.21,1.79,4,4,4h4.11c2.21,0,4-1.79,4-4v-4.1c0-2.21,1.79-4,4-4h4.11c2.21,0,4,1.79,4,4v16.21c0,2.21-1.79,4-4,4h-76.74c-2.21,0-4,1.79-4,4v4.11c0,2.21,1.79,4,4,4h8.11s12.1,0,12.1,0h32.32c2.21,0,4,1.79,4,4v4.11c0,2.21,1.79,4,4,4h8.11s8.11,0,8.11,0c2.21,0,4-1.79,4-4v-4.11c0-2.21,1.79-4,4-4h4.11c2.21,0,4-1.79,4-4v-28.32c0-2.21-1.79-4-4-4h-4.11c-2.21,0-4-1.79-4-4Z"/><path class="cls-2" d="M927.82,402.41v4.1c0,2.21-1.79,4-4,4h-16.21c-2.21,0-4,1.79-4,4v16.21c0,2.21,1.79,4,4,4h4.11c2.21,0,4,1.79,4,4v4.1c0,2.21-1.79,4-4,4h-8.11s-8.1,0-8.1,0c-2.21,0-4-1.79-4-4v-52.53c0-2.21-1.79-4-4-4h-16.22c-2.21,0-4-1.79-4-4v-4.11c0-2.21,1.79-4,4-4h4.11c2.21,0,4-1.79,4-4v-4.1c0-2.21,1.79-4,4-4h4.11c2.21,0,4,1.79,4,4v4.1c0,2.21,1.79,4,4,4h16.21c2.21,0,4,1.79,4,4v16.22c0,2.21,1.79,4,4,4h4.1c2.21,0,4,1.79,4,4Z"/><rect class="cls-3" x="927.82" y="204.72" width="12.11" height="12.11" rx="4" ry="4"/><rect class="cls-2" x="939.93" y="253.14" width="12.11" height="12.11" rx="4" ry="4"/><rect class="cls-2" x="939.93" y="337.88" width="12.11" height="12.11" rx="4" ry="4"/><rect class="cls-3" x="939.93" y="398.41" width="12.11" height="12.11" rx="4" ry="4"/><rect class="cls-3" x="952.03" y="204.72" width="12.11" height="24.21" rx="4" ry="4"/><rect class="cls-3" x="952.03" y="265.25" width="12.11" height="12.11" rx="4" ry="4"/><path class="cls-2" d="M976.25,281.36v16.21c0,2.21-1.79,4-4,4h-4.11c-2.21,0-4,1.79-4,4v4.1c0,2.21-1.79,4-4,4h-16.21c-2.21,0-4,1.79-4,4v4.11c0,2.21-1.79,4-4,4h-16.21c-2.21,0-4,1.79-4,4v4.11c0,2.21,1.79,4,4,4h4.1c2.21,0,4,1.79,4,4v28.31c0,2.21-1.79,4-4,4h-4.1c-2.21,0-4-1.79-4-4v-4.1c0-2.21-1.79-4-4-4h-16.21c-2.21,0-4-1.79-4-4v-40.43c0-2.21,1.79-4,4-4h28.31c2.21,0,4-1.79,4-4v-16.21c0-2.21,1.79-4,4-4h4.11c2.21,0,4,1.79,4,4v4.11c0,2.21,1.79,4,4,4h4.11c2.21,0,4-1.79,4-4v-4.11c0-2.21,1.79-4,4-4h4.1c2.21,0,4-1.79,4-4v-4.1c0-2.21,1.79-4,4-4h4.11c2.21,0,4,1.79,4,4Z"/><path class="cls-2" d="M935.93,434.72h-16.21c-2.21,0-4-1.79-4-4v-4.1c0-2.21,1.79-4,4-4h4.1c2.21,0,4-1.79,4-4v-4.11c0-2.21,1.79-4,4-4h4.11c2.21,0,4,1.79,4,4v16.21c0,2.21-1.79,4-4,4Z"/><rect class="cls-3" x="964.14" y="180.51" width="12.11" height="12.11" rx="4" ry="4"/><path class="cls-2" d="M960.14,241.04h-4.11c-2.21,0-4-1.79-4-4v-4.1c0-2.21-1.79-4-4-4h-4.11c-2.21,0-4,1.79-4,4v4.11c0,2.21,1.79,4,4,4h4.11c2.21,0,4,1.79,4,4v4.1c0,2.21,1.79,4,4,4h4.11c2.21,0,4-1.79,4-4v-4.1c0-2.21,1.79-4,4-4h4.11c2.21,0,4-1.79,4-4v-4.11c0-2.21-1.79-4-4-4h-4.11c-2.21,0-4,1.79-4,4v4.1c0,2.21-1.79,4-4,4Z"/><rect class="cls-2" x="964.14" y="253.14" width="12.11" height="12.11" rx="4" ry="4"/><rect class="cls-2" x="964.14" y="313.67" width="12.11" height="12.11" rx="4" ry="4"/><rect class="cls-2" x="988.35" y="180.51" width="12.11" height="24.21" rx="4" ry="4"/><path class="cls-2" d="M1000.46,305.57v4.1c0,2.21-1.79,4-4,4h-16.21c-2.21,0-4-1.79-4-4v-16.21c0-2.21,1.79-4,4-4h4.1c2.21,0,4,1.79,4,4v4.11c0,2.21,1.79,4,4,4h4.11c2.21,0,4,1.79,4,4Z"/><path class="cls-2" d="M1012.56,285.46v-4.11c0-2.21-1.79-4-4-4h-4.11c-2.21,0-4-1.79-4-4v-20.21s0,0,0,0v-32.31c0-2.21-1.79-4-4-4h-16.21c-2.21,0-4,1.79-4,4v4.11c0,2.21,1.79,4,4,4h4.11c2.21,0,4,1.79,4,4v20.21s0,0,0,0v32.31c0,2.21,1.79,4,4,4h16.21c2.21,0,4-1.79,4-4Z"/><rect class="cls-3" x="1012.56" y="325.78" width="12.11" height="12.11" rx="4" ry="4"/><rect class="cls-3" x="1012.56" y="398.41" width="12.11" height="12.11" rx="4" ry="4"/><path class="cls-2" d="M1085.19,293.46v4.11c0,2.21-1.79,4-4,4h-16.22c-2.21,0-4,1.79-4,4v4.1c0,2.21,1.79,4,4,4h16.22c2.21,0,4-1.79,4-4v-4.1c0-2.21,1.79-4,4-4h4.1c2.21,0,4,1.79,4,4v28.32c0,2.21-1.79,4-4,4h-4.1c-2.21,0-4-1.79-4-4v-4.11c0-2.21-1.79-4-4-4h-28.32c-2.21,0-4-1.79-4-4v-16.21c0-2.21-1.79-4-4-4h-4.1c-2.21,0-4,1.79-4,4v16.21c0,2.21-1.79,4-4,4h-4.11c-2.21,0-4-1.79-4-4v-28.32c0-2.21,1.79-4,4-4h4.11c2.21,0,4-1.79,4-4v-4.1c0-2.21,1.79-4,4-4h4.1c2.21,0,4,1.79,4,4v4.1c0,2.21,1.79,4,4,4h4.1c2.21,0,4-1.79,4-4v-4.1c0-2.21,1.79-4,4-4h28.32c2.21,0,4,1.79,4,4v4.1c0,2.21-1.79,4-4,4h-4.1c-2.21,0-4,1.79-4,4Z"/><path class="cls-3" d="M1048.88,204.72h-8.11c-2.21,0-4,1.79-4,4v28.32c0,2.21,1.79,4,4,4h28.31c2.21,0,4-1.79,4-4v-28.32c0-2.21-1.79-4-4-4h-20.21Z"/><path class="cls-2" d="M1073.09,426.62v16.2c0,2.21-1.79,4-4,4h-28.31c-2.21,0-4,1.79-4,4v4.11c0,2.21-1.79,4-4,4h-16.21c-2.21,0-4-1.79-4-4v-4.1c0-2.21,1.79-4,4-4h4.1c2.21,0,4-1.79,4-4v-4.11c0-2.21,1.79-4,4-4h16.21c2.21,0,4-1.79,4-4v-52.53c0-2.21-1.79-4-4-4h-4.1c-2.21,0-4-1.79-4-4v-4.1c0-2.21-1.79-4-4-4h-4.11c-2.21,0-4,1.79-4,4v4.1c0,2.21-1.79,4-4,4h-16.21c-2.21,0-4-1.79-4-4v-4.1c0-2.21,1.79-4,4-4h4.11c2.21,0,4-1.79,4-4v-4.11c0-2.21-1.79-4-4-4h-4.11c-2.21,0-4-1.79-4-4v-16.21c0-2.21-1.79-4-4-4h-16.21c-2.21,0-4,1.79-4,4v4.11c0,2.21-1.79,4-4,4h-4.11c-2.21,0-4,1.79-4,4v4.1c0,2.21-1.79,4-4,4h-4.1c-2.21,0-4,1.79-4,4v4.11c0,2.21,1.79,4,4,4h16.21c2.21,0,4,1.79,4,4v4.1c0,2.21-1.79,4-4,4h-16.21c-2.21,0-4-1.79-4-4v-4.1c0-2.21-1.79-4-4-4h-4.11c-2.21,0-4,1.79-4,4v4.1c0,2.21-1.79,4-4,4h-4.11c-2.21,0-4,1.79-4,4v16.22c0,2.21,1.79,4,4,4h4.11c2.21,0,4-1.79,4-4v-4.11c0-2.21,1.79-4,4-4h4.11c2.21,0,4,1.79,4,4v4.11c0,2.21,1.79,4,4,4h4.1c2.21,0,4-1.79,4-4v-4.11c0-2.21,1.79-4,4-4h4.11c2.21,0,4,1.79,4,4v4.11c0,2.21,1.79,4,4,4h4.1c2.21,0,4,1.79,4,4v4.1c0,2.21-1.79,4-4,4h-4.1c-2.21,0-4,1.79-4,4v16.21c0,2.21-1.79,4-4,4h-4.11c-2.21,0-4-1.79-4-4v-16.21c0-2.21-1.79-4-4-4h-4.1c-2.21,0-4,1.79-4,4v16.21c0,2.21-1.79,4-4,4h-4.11c-2.21,0-4,1.79-4,4v4.1c0,2.21,1.79,4,4,4h4.11c2.21,0,4,1.79,4,4v4.11c0,2.21-1.79,4-4,4h-4.11c-2.21,0-4-1.79-4-4v-4.11c0-2.21-1.79-4-4-4h-4.11c-2.21,0-4,1.79-4,4v28.32c0,2.21,1.79,4,4,4h28.32c2.21,0,4-1.79,4-4v-28.32c0-2.21,1.79-4,4-4h8.11s20.21,0,20.21,0c2.21,0,4,1.79,4,4v4.11c0,2.21,1.79,4,4,4h4.11c2.21,0,4,1.79,4,4v4.1c0,2.21-1.79,4-4,4h-16.22c-2.21,0-4,1.79-4,4v4.1c0,2.21,1.79,4,4,4h28.32c2.21,0,4-1.79,4-4v-4.1c0-2.21,1.79-4,4-4h16.21c2.21,0,4-1.79,4-4v-4.11c0-2.21,1.79-4,4-4h4.1c2.21,0,4,1.79,4,4v4.11c0,2.21,1.79,4,4,4h16.22c2.21,0,4,1.79,4,4v4.1c0,2.21,1.79,4,4,4h4.1c2.21,0,4-1.79,4-4v-52.52c0-2.21-1.79-4-4-4h-16.21c-2.21,0-4,1.79-4,4ZM1000.46,418.62v-28.32c0-2.21,1.79-4,4-4h28.32c2.21,0,4,1.79,4,4v28.32c0,2.21-1.79,4-4,4h-28.32c-2.21,0-4-1.79-4-4Z"/><rect class="cls-3" x="1048.88" y="471.04" width="12.1" height="12.1" rx="4" ry="4"/><path class="cls-2" d="M1097.3,353.98v16.21c0,2.21-1.79,4-4,4h-4.1c-2.21,0-4-1.79-4-4v-4.1c0-2.21-1.79-4-4-4h-4.11c-2.21,0-4,1.79-4,4v4.1c0,2.21,1.79,4,4,4h4.11c2.21,0,4,1.79,4,4v16.22c0,2.21-1.79,4-4,4h-16.22c-2.21,0-4-1.79-4-4v-16.22c0-2.21-1.79-4-4-4h-4.1c-2.21,0-4-1.79-4-4v-4.1c0-2.21-1.79-4-4-4h-4.1c-2.21,0-4-1.79-4-4v-16.21c0-2.21,1.79-4,4-4h4.1c2.21,0,4,1.79,4,4v4.1c0,2.21,1.79,4,4,4h16.21c2.21,0,4-1.79,4-4v-4.1c0-2.21,1.79-4,4-4h4.11c2.21,0,4,1.79,4,4v4.1c0,2.21,1.79,4,4,4h4.1c2.21,0,4,1.79,4,4Z"/><path class="cls-2" d="M1085.19,180.51h-68.63c-2.21,0-4,1.79-4,4v68.63h0v8.11c0,2.21,1.79,4,4,4h76.74c2.21,0,4-1.79,4-4v-8.1h0v-68.63c0-2.21-1.79-4-4-4h-8.11ZM1073.08,253.14h-44.42c-2.21,0-4-1.79-4-4v-52.52c0-2.21,1.79-4,4-4h52.52c2.21,0,4,1.79,4,4v52.52c0,2.21-1.79,4-4,4h-8.11Z"/><rect class="cls-3" x="1085.19" y="398.41" width="12.11" height="12.11" rx="4" ry="4"/></g></svg>