<?xml version="1.0" encoding="UTF-8"?>
<svg id="Vrstva_1" data-name="Vrstva 1" xmlns="http://www.w3.org/2000/svg" width="500" height="120" viewBox="0 0 500 120">
  <defs>
    <style>
      .cls-1 {
        fill: #0b1c4c;
      }

      .cls-2 {
        fill: #d0ba5c;
      }

      .cls-3 {
        fill: #878787;
      }
    </style>
  </defs>
  <g>
    <path class="cls-1" d="M129.6,48.1819v14.8931h39.7728c7.8177,0,10.9035-2.5769,10.9035-7.5776,0-5.5686-4.0797-7.3264-11.8976-7.3264h-38.7787v.0109ZM129.6,24.8814v13.3098h34.4504c8.0766,0,12.0632-1.4194,12.0632-6.5839s-3.4067-6.7369-11.152-6.7369h-35.3616v.0109ZM118.8622,73.1529V14.9017h46.0994c12.8087,0,21.2169,3.9089,21.2169,14.8058,0,6.573-3.1685,10.2416-7.9939,12.5673,7.1551,1.998,12.1461,6.2455,12.1461,14.7292,0,9.5758-5.9953,16.1488-20.9683,16.1488h-50.5106.0104Z"/>
    <path class="cls-1" d="M199.3189,73.1529V14.9017h10.7278v48.1733h49.9309v10.0779h-60.6587Z"/>
    <path class="cls-1" d="M290.2541,48.1819l-1.5833,2.5003h29.9553l-1.5021-2.5003-13.4817-23.8791-13.3984,23.8791h.0101ZM344.2541,73.1529h-12.4045l-7.4878-12.48h-41.439l-7.4045,12.48h-12.3943l34.3679-58.2513h12.311l34.4512,58.2513Z"/>
    <path class="cls-1" d="M407.7297,14.9017h10.7378v58.2513h-10.7378l-48.2541-44.6902.248,8.7349v35.9553h-10.7378V14.9017h10.7378l48.1708,44.7666-.1647-8.986V14.9017Z"/>
    <path class="cls-1" d="M500,69.7342c-3.748,1.2448-14.1443,4.6625-29.626,4.6625-30.2866,0-42.9309-13.0698-42.9309-30.3758s12.6443-30.3759,42.9309-30.3759c15.4817,0,25.8781,3.4176,29.626,4.6623l-2.4959,9.6521c-7.6524-2.2492-16.5569-4.3238-27.1301-4.3238-23.1321,0-32.0366,8.484-32.0366,20.3853s8.9045,20.2978,32.0366,20.2978c10.5732,0,19.4777-1.9983,27.1301-4.2474l2.4959,9.6522v.0107Z"/>
  </g>
  <g>
    <path class="cls-3" d="M128.761,108.5734l6.4614-10.9515,6.4614,10.9515.9008,1.3975h-14.7555l.9319-1.3975ZM133.0065,94.2152l-15.2939,25.1349h4.4835l3.5516-5.7432h18.9181l3.5931,5.7432h4.4527l-15.263-25.1349h-4.4524.0104Z"/>
    <path class="cls-3" d="M187.473,117.8749c-1.6152.5351-6.1093,2.009-12.7776,2.009-13.0677,0-18.5248-5.634-18.5248-13.1024s5.4571-13.1024,18.5248-13.1024c6.6787,0,11.1624,1.4741,12.7776,2.0092l-.9008,3.4831c-3.0132-.8954-6.9687-1.8672-11.8872-1.8672-10.4894,0-14.5795,3.9854-14.5795,9.4774s4.0901,9.4776,14.5795,9.4776c4.9185,0,8.8636-.9718,11.8872-1.8672l.9008,3.4831Z"/>
    <path class="cls-3" d="M203.3476,108.5734l6.4614-10.9515,6.4614,10.9515.8903,1.3975h-14.7559l.9327-1.3975h.0102ZM207.5915,94.2152l-15.2931,25.1349h4.4837l3.5516-5.7432h18.9183l3.5935,5.7432h4.4512l-15.2622-25.1349h-4.4533.0102Z"/>
    <path class="cls-3" d="M237.1443,97.8402v17.8848h8.439c10.4492,0,14.5386-3.4502,14.5386-8.9423s-4.0894-8.9425-14.5386-8.9425h-8.439ZM233.2622,119.35v-25.1349h12.311c13.0671,0,18.5244,5.0991,18.5244,12.5675s-5.4573,12.5673-18.5244,12.5673h-12.311Z"/>
    <path class="cls-3" d="M271.8333,94.2152v25.1349h27.9675v-3.6358h-24.0955v-7.5012h21.2276v-3.625h-21.2276v-6.7478h23.3821v-3.625h-27.2541Z"/>
    <path class="cls-3" d="M339.8435,94.2152l-14.2175,16.8041-14.2581-16.8041h-3.8435v25.1349h3.8841v-16.2687l-.1138-3.7014,13.1097,15.4389h2.4025l13.1077-15.4389-.0711,3.7014v16.2687h3.8821v-25.1349h-3.8821Z"/>
    <path class="cls-3" d="M379.9573,94.2152l-5.5711,6.2783-7.1036,8.0799-7.1138-8.0799-5.6016-6.2783h-4.9492l15.7175,17.4809v7.6539h3.8842v-7.6539l15.687-17.4809h-4.9492Z"/>
  </g>
  <path class="cls-2" d="M0-.2204l9.7956,60.3912,8.3356-11.1261L11.7734,9.792h58.4008l-8.5945,52.9776-20.6059-27.4606-28.9519,38.5758,2.2263,13.7249,26.7256-35.6169,26.7256,35.6169L81.9476-.2204H0Z"/>
</svg>