<?xml version="1.0" encoding="utf-8"?>
<svg xmlns="http://www.w3.org/2000/svg" style="enable-background:new 0 0 1253.14404 432.83728;" version="1.1" viewBox="0 0 1253.14404 432.83728" x="0px" y="0px">
<style type="text/css">
	.st0{fill:#1064A0;}
</style>
<g id="Layer_1">
</g>
<g id="Layer_2">
	<g>
		<g>
			<path class="st0" d="M192.81711,168.32098c5.10492-5.74268,7.66046-14.04492,7.66046-24.90137&#xD;&#xA;				c0-10.06787-2.55554-17.9375-7.66046-23.60205c-5.10748-5.66455-13.99933-8.49658-26.67206-8.49658h-36.91644v65.61426h36.36279&#xD;&#xA;				C178.63333,176.93524,187.70963,174.0661,192.81711,168.32098z"/>
			<path class="st0" d="M202.32339,303.08954c5.90674-6.52759,8.85986-15.30005,8.85986-26.31592&#xD;&#xA;				c0-10.22656-2.92438-18.44678-8.76782-24.66528c-5.84595-6.21411-16.09033-9.32324-30.73291-9.32324h-42.45392v70.09937h42.63873&#xD;&#xA;				C186.26468,312.88446,196.41672,309.62152,202.32339,303.08954z"/>
			<path class="st0" d="M225.88651,44.10907c14.49933,3.70752,26.37622,10.98975,35.59564,21.89551&#xD;&#xA;				c13.96478,16.521,20.95007,36.97852,20.95007,61.36572c0,20.45605-4.98376,37.99951-14.95135,52.63379&#xD;&#xA;				c-6.64484,9.75781-16.36719,17.46436-29.16394,23.12915c19.44153,5.98267,33.74689,16.24927,42.91559,30.80151&#xD;&#xA;				c9.16547,14.55664,13.75122,32.84814,13.75122,54.87573c0,17.93774-3.26196,34.06909-9.78278,48.3855&#xD;&#xA;				c-6.52399,14.31934-15.44464,25.64893-26.7644,33.98706c-7.0144,5.19165-17.59894,8.96802-31.74823,11.32935&#xD;&#xA;				c-18.82745,3.14941-31.31854,4.71997-37.47046,4.71997h213.0979V44.10907H225.88651z"/>
		</g>
		<g>
			<g>
				<path d="M423.77103,45.60637h64.02493c10.67047,0,18.86234,2.64182,24.57562,7.92834&#xD;&#xA;					c5.71222,5.28364,8.5694,11.8285,8.5694,19.63029c0,6.54343-2.03857,12.15495-6.1156,16.83603&#xD;&#xA;					c-2.71808,3.12215-6.69479,5.58708-11.9292,7.39911c7.95245,1.91413,13.80377,5.19735,17.55402,9.85253&#xD;&#xA;					c3.74921,4.65662,5.62482,10.50832,5.62482,17.55508c0,5.73809-1.33417,10.89805-4.00153,15.47701&#xD;&#xA;					c-2.66846,4.5804-6.31732,8.20445-10.94766,10.87216c-2.86905,1.66103-7.19849,2.86903-12.98621,3.62405&#xD;&#xA;					c-7.70111,1.00812-12.81036,1.51003-15.32672,1.51003h-59.04187V45.60637z M458.27502,89.01878h14.87372&#xD;&#xA;					c5.33472,0,9.04721-0.91752,11.13641-2.75543c2.08817-1.83647,3.1333-4.49268,3.1333-7.96429&#xD;&#xA;					c0-3.22138-1.04514-5.73808-3.1333-7.55011c-2.0892-1.81203-5.7262-2.71804-10.90988-2.71804h-15.10025V89.01878z&#xD;&#xA;					 M458.27502,132.50743h17.44077c5.8891,0,10.04166-1.04263,12.4577-3.13222c2.41602-2.08815,3.62402-4.89536,3.62402-8.41874&#xD;&#xA;					c0-3.27171-1.19614-5.90059-3.58627-7.8895c-2.39124-1.98748-6.58154-2.98266-12.57095-2.98266h-17.36526V132.50743z"/>
				<path d="M531.7207,45.60637h34.27753V156.291H531.7207V45.60637z"/>
				<path d="M632.5733,116.19919V93.17207h52.85077v47.18748c-10.11713,6.8972-19.06403,11.58978-26.84064,14.08203&#xD;&#xA;					c-7.77661,2.49081-17.00067,3.73624-27.67114,3.73624c-13.13721,0-23.8465-2.23772-32.12573-6.71889&#xD;&#xA;					c-8.28033-4.47974-14.69794-11.14828-19.25281-20.00708c-4.55591-8.8588-6.83282-19.02628-6.83282-30.50244&#xD;&#xA;					c0-12.08018,2.49152-22.58706,7.47461-31.52208c4.98309-8.93357,12.28082-15.71573,21.89532-20.34791&#xD;&#xA;					c7.49939-3.57372,17.59174-5.3613,30.27594-5.3613c12.2312,0,21.37866,1.10879,27.44464,3.32205&#xD;&#xA;					c6.06494,2.21614,11.09869,5.65179,15.10022,10.30698c4.00159,4.65662,7.00867,10.55865,9.0224,17.70465l-32.99396,5.88909&#xD;&#xA;					c-1.35907-4.17773-3.6618-7.37322-6.90839-9.58792c-3.24652-2.2147-7.38721-3.32205-12.41992-3.32205&#xD;&#xA;					c-7.50049,0-13.47693,2.60443-17.93152,7.81329c-4.45459,5.2103-6.68182,13.45214-6.68182,24.72697&#xD;&#xA;					c0,11.97951,2.25208,20.5363,6.75732,25.67038c4.50421,5.13407,10.78369,7.70112,18.83752,7.70112&#xD;&#xA;					c3.82465,0,7.47461-0.55368,10.94769-1.66103c3.47302-1.10591,7.44867-2.99417,11.92914-5.66187v-10.42059H632.5733z"/>
			</g>
			<g>
				<path d="M423.77103,161.07704h28.10477l36.6752,61.23643v-61.23643h28.37045v110.68465h-28.37045l-36.47604-60.77338v60.77338&#xD;&#xA;					h-28.30392V161.07704z"/>
				<path d="M530.32214,161.07704h80.6593v23.63257h-50.49518v17.59105h46.84088v22.57555h-46.84088v21.81911h51.95703v25.06638&#xD;&#xA;					h-82.12115V161.07704z"/>
				<path d="M612.09094,161.07704h28.58722l10.29224,61.96413l15.06354-61.96413h28.48444l15.10059,61.88072l10.30377-61.88072&#xD;&#xA;					h28.43872l-21.4707,110.68465h-29.51447l-17.08374-69.68826l-17.01727,69.68826h-29.5141L612.09094,161.07704z"/>
				<path d="M746.41461,235.14435l28.63611-2.03925c0.61951,5.28508,1.88214,9.31325,3.78693,12.08018&#xD;&#xA;					c3.09985,4.48117,7.5296,6.71887,13.28821,6.71887c4.29602,0,7.6076-1.1433,9.93304-3.43422&#xD;&#xA;					c2.32544-2.28947,3.48816-4.94568,3.48816-7.96573c0-2.86903-1.10767-5.43608-3.32202-7.70111&#xD;&#xA;					c-2.21545-2.26503-7.35309-4.4035-15.41449-6.41687c-13.19971-3.37239-22.61255-7.85211-28.23737-13.44064&#xD;&#xA;					c-5.67017-5.58565-8.50433-12.70863-8.50433-21.36609c0-5.68776,1.45038-11.06056,4.35175-16.11984&#xD;&#xA;					c2.9007-5.05786,7.26392-9.03426,13.08905-11.92918c5.82397-2.89349,13.80804-4.34167,23.95178-4.34167&#xD;&#xA;					c12.44617,0,21.93597,2.63176,28.47003,7.89095c6.53302,5.26064,10.41986,13.62759,11.66028,25.10376l-28.37012,1.88824&#xD;&#xA;					c-0.75391-4.98451-2.33691-8.60857-4.75043-10.87216c-2.41498-2.26646-5.74744-3.39827-9.99957-3.39827&#xD;&#xA;					c-3.49969,0-6.13538,0.84418-7.90643,2.52965c-1.77209,1.68692-2.65765,3.73624-2.65765,6.15227&#xD;&#xA;					c0,1.76314,0.73096,3.34938,2.19244,4.75729c1.41724,1.46112,4.78387,2.82014,10.09918,4.07706&#xD;&#xA;					c13.15515,3.22137,22.57843,6.48158,28.27045,9.77776c5.69135,3.29759,9.8335,7.3876,12.42462,12.26857&#xD;&#xA;					c2.59113,4.8824,3.8869,10.34438,3.8869,16.38446c0,7.09566-1.72754,13.64053-5.18262,19.63028&#xD;&#xA;					c-3.45471,5.98976-8.2832,10.53133-14.48401,13.62761c-6.2019,3.09482-14.0191,4.64224-23.45349,4.64224&#xD;&#xA;					c-16.56677,0-28.03827-3.62405-34.41669-10.87216C750.86591,255.52821,747.25555,246.31853,746.41461,235.14435z"/>
			</g>
			<g>
				<path d="M423.77103,276.54773h26.50772l34.59137,61.23642v-61.23642h26.75833v110.68463h-26.75833l-34.40332-60.77338v60.77338&#xD;&#xA;					h-26.69577V276.54773z"/>
				<path d="M526.70673,276.54773h76.07635v23.63257h-47.6261v17.59103h44.17932v22.57556h-44.17932v21.81909h49.00488v25.06638&#xD;&#xA;					h-77.45514V276.54773z"/>
				<path d="M609.27545,276.54773h86.29095v27.33139h-28.95142v83.35324h-28.38776v-83.35324h-28.95178V276.54773z"/>
				<path d="M695.22882,276.54773h26.96289l9.70728,61.96411l14.20752-61.96411h26.86615l14.24274,61.88071l9.71808-61.88071&#xD;&#xA;					h26.82306l-20.25085,110.68463H775.6684l-16.11298-69.68826l-16.05048,69.68826h-27.83728L695.22882,276.54773z"/>
				<path d="M823.54401,331.96555c0-18.06995,4.177-32.1376,12.5332-42.20584c8.3551-10.06537,19.99054-15.10022,34.90491-15.10022&#xD;&#xA;					c15.29041,0,27.07178,4.94568,35.34351,14.83704c8.27203,9.88992,12.40802,23.74475,12.40802,41.56302&#xD;&#xA;					c0,12.93729-1.80768,23.54483-5.42059,31.82407c-3.61432,8.28067-8.83612,14.72198-15.6665,19.32828&#xD;&#xA;					c-6.83069,4.60486-15.34363,6.90729-25.53662,6.90729c-10.36127,0-18.93567-1.98749-25.7243-5.96387&#xD;&#xA;					c-6.78937-3.97498-12.2934-10.26816-16.51245-18.87527C825.65302,355.67288,823.54401,344.90283,823.54401,331.96555z&#xD;&#xA;					 M851.9317,332.11655c0,11.17416,1.72327,19.20316,5.17004,24.08414c3.44647,4.88385,8.1358,7.32431,14.06836,7.32431&#xD;&#xA;					c6.09906,0,10.8197-2.39014,14.1626-7.17188c3.3418-4.78174,5.01324-13.36441,5.01324-25.74658&#xD;&#xA;					c0-10.41916-1.74475-18.03113-5.23254-22.83875c-3.48889-4.80618-8.22028-7.21072-14.19385-7.21072&#xD;&#xA;					c-5.72443,0-10.31958,2.44193-13.7865,7.32291C853.66467,312.76382,851.9317,320.84171,851.9317,332.11655z"/>
				<path d="M930.67828,387.23236V276.54773h47.31262c8.77319,0,15.47845,0.90601,20.11603,2.71805&#xD;&#xA;					c4.63721,1.81201,8.37555,5.17145,11.21692,10.07974c2.84064,4.90686,4.26147,10.8851,4.26147,17.93045&#xD;&#xA;					c0,6.14218-1.08685,11.43878-3.26056,15.89404c-2.17371,4.45386-5.16321,8.06641-8.96631,10.83478&#xD;&#xA;					c-2.42426,1.76169-5.74738,3.22137-9.96973,4.37762c3.38104,1.36191,5.84454,2.72235,7.38977,4.08139&#xD;&#xA;					c1.0437,0.90744,2.55664,2.84601,4.54016,5.82004c1.98279,2.9726,3.30872,5.26495,3.97638,6.87564l13.74731,32.07288h-32.07611&#xD;&#xA;					l-15.17395-33.82449c-1.922-4.37906-3.63446-7.22223-5.13837-8.53091c-2.04755-1.71136-4.36615-2.56848-6.95618-2.56848&#xD;&#xA;					h-2.50665v44.92389H930.67828z M959.1911,321.39539h11.96948c1.29431,0,3.8009-0.50189,7.5199-1.51001&#xD;&#xA;					c1.87994-0.453,3.41516-1.61069,4.6059-3.47305c1.19043-1.86093,1.78583-4.00229,1.78583-6.41833&#xD;&#xA;					c0-3.57227-0.93982-6.31476-2.81982-8.22888c-1.87994-1.91269-5.41089-2.86905-10.59064-2.86905H959.1911V321.39539z"/>
				<path d="M1026.53271,276.54773h28.3877v41.82761l29.73596-41.82761h37.75525l-33.52429,41.77872l35.0282,68.90591h-34.95886&#xD;&#xA;					l-19.36963-45.51926l-14.66663,18.50998v27.00928h-28.3877V276.54773z"/>
			</g>
		</g>
	</g>
</g>
</svg>