<svg width="175" height="23" viewBox="0 0 175 23" fill="none" xmlns="http://www.w3.org/2000/svg">
<path d="M10.0629 22.0858C4.51168 22.0858 0 17.5447 0 11.9572V0.914185H4.54495V11.9572C4.54495 15.2239 7.01286 17.7079 10.0629 17.7079C13.113 17.7079 15.5809 15.2239 15.5809 11.9572V5.48877C15.5809 2.97338 17.6267 0.914185 20.1258 0.914185V11.9572C20.1258 17.5447 15.6142 22.0858 10.0629 22.0858Z" fill="#000000"/>
<path d="M42.7843 8.72195C42.7843 13.0998 39.3101 16.3351 34.0208 16.3351H28.8916V21.6923H24.3467V0.914185H34.0208C39.3122 0.914185 42.7843 4.41104 42.7843 8.72195ZM38.2393 8.72195C38.2393 6.76112 36.7777 5.29206 34.0187 5.29206H28.8895V11.9572H34.0187C36.7777 11.9572 38.2393 10.553 38.2393 8.72195Z" fill="#000000"/>
<path d="M58.3977 5.29206H55.6054V21.6944H51.0605V5.29206H44.5674V0.914185H62.7451C62.7451 3.36471 60.8302 5.29206 58.3956 5.29206H58.3977Z" fill="#000000"/>
<path d="M81.8692 17.3166V21.6944H65.833V0.914185H81.7382V5.29206H70.378V9.18025H79.7922V13.4284H70.378V17.3166H81.8692Z" fill="#000000"/>
<path d="M95.0795 15.6823H90.6323V21.6945H86.0873V11.3044H95.5328C98.1296 11.3044 99.7201 10.1932 99.7201 8.29934C99.7201 6.40547 98.1296 5.29426 95.5328 5.29426H89.4306C86.9959 5.29426 85.0811 3.3669 85.0811 0.916382H95.1772C100.793 0.916382 104.267 3.95495 104.267 8.29934C104.267 11.2082 102.71 13.5268 99.8844 14.8661L104.527 21.6945H99.2357L95.0816 15.6823H95.0795Z" fill="#000000"/>
<path d="M127.055 11.3043C127.055 17.6095 121.959 21.6944 115.368 21.6944H107.773V0.914185H115.368C121.957 0.914185 127.055 4.99908 127.055 11.3043ZM122.51 11.3043C122.51 7.31777 119.458 5.29206 115.368 5.29206H112.316V17.3166H115.368C119.458 17.3166 122.51 15.2909 122.51 11.3043Z" fill="#000000"/>
<path d="M142.117 18.524H132.963L131.73 21.6923H126.86L135.299 0.914185H139.78L148.219 21.6944H143.35L142.117 18.5261V18.524ZM140.429 14.1462L137.539 6.69624L134.649 14.1462H140.427H140.429Z" fill="#000000"/>
<path d="M162.665 16.3351L171.105 0.914185H174.999V21.6944H170.454V10.4882L164.287 21.6944H161.042L154.875 10.4882V21.6944H150.33V0.914185H154.224L162.663 16.3351H162.665Z" fill="#000000"/>
</svg>
